G04 #@! TF.GenerationSoftware,KiCad,Pcbnew,5.1.2*
G04 #@! TF.CreationDate,2019-05-05T16:50:57+02:00*
G04 #@! TF.ProjectId,nixieboard,6e697869-6562-46f6-9172-642e6b696361,rev?*
G04 #@! TF.SameCoordinates,Original*
G04 #@! TF.FileFunction,Copper,L2,Bot*
G04 #@! TF.FilePolarity,Positive*
%FSLAX46Y46*%
G04 Gerber Fmt 4.6, Leading zero omitted, Abs format (unit mm)*
G04 Created by KiCad (PCBNEW 5.1.2) date 2019-05-05 16:50:57*
%MOMM*%
%LPD*%
G04 APERTURE LIST*
%ADD10O,1.700000X1.700000*%
%ADD11R,1.700000X1.700000*%
%ADD12C,0.100000*%
%ADD13C,1.150000*%
%ADD14C,1.700000*%
%ADD15R,1.700000X1.524000*%
%ADD16C,0.800000*%
%ADD17C,0.250000*%
G04 APERTURE END LIST*
D10*
X153400000Y-102000000D03*
X150860000Y-102000000D03*
X148320000Y-102000000D03*
X145780000Y-102000000D03*
X143240000Y-102000000D03*
X140700000Y-102000000D03*
X138160000Y-102000000D03*
X135620000Y-102000000D03*
X133080000Y-102000000D03*
X130540000Y-102000000D03*
D11*
X128000000Y-102000000D03*
D12*
G36*
X142974505Y-89451204D02*
G01*
X142998773Y-89454804D01*
X143022572Y-89460765D01*
X143045671Y-89469030D01*
X143067850Y-89479520D01*
X143088893Y-89492132D01*
X143108599Y-89506747D01*
X143126777Y-89523223D01*
X143143253Y-89541401D01*
X143157868Y-89561107D01*
X143170480Y-89582150D01*
X143180970Y-89604329D01*
X143189235Y-89627428D01*
X143195196Y-89651227D01*
X143198796Y-89675495D01*
X143200000Y-89699999D01*
X143200000Y-90350001D01*
X143198796Y-90374505D01*
X143195196Y-90398773D01*
X143189235Y-90422572D01*
X143180970Y-90445671D01*
X143170480Y-90467850D01*
X143157868Y-90488893D01*
X143143253Y-90508599D01*
X143126777Y-90526777D01*
X143108599Y-90543253D01*
X143088893Y-90557868D01*
X143067850Y-90570480D01*
X143045671Y-90580970D01*
X143022572Y-90589235D01*
X142998773Y-90595196D01*
X142974505Y-90598796D01*
X142950001Y-90600000D01*
X142049999Y-90600000D01*
X142025495Y-90598796D01*
X142001227Y-90595196D01*
X141977428Y-90589235D01*
X141954329Y-90580970D01*
X141932150Y-90570480D01*
X141911107Y-90557868D01*
X141891401Y-90543253D01*
X141873223Y-90526777D01*
X141856747Y-90508599D01*
X141842132Y-90488893D01*
X141829520Y-90467850D01*
X141819030Y-90445671D01*
X141810765Y-90422572D01*
X141804804Y-90398773D01*
X141801204Y-90374505D01*
X141800000Y-90350001D01*
X141800000Y-89699999D01*
X141801204Y-89675495D01*
X141804804Y-89651227D01*
X141810765Y-89627428D01*
X141819030Y-89604329D01*
X141829520Y-89582150D01*
X141842132Y-89561107D01*
X141856747Y-89541401D01*
X141873223Y-89523223D01*
X141891401Y-89506747D01*
X141911107Y-89492132D01*
X141932150Y-89479520D01*
X141954329Y-89469030D01*
X141977428Y-89460765D01*
X142001227Y-89454804D01*
X142025495Y-89451204D01*
X142049999Y-89450000D01*
X142950001Y-89450000D01*
X142974505Y-89451204D01*
X142974505Y-89451204D01*
G37*
D13*
X142500000Y-90025000D03*
D12*
G36*
X142974505Y-87401204D02*
G01*
X142998773Y-87404804D01*
X143022572Y-87410765D01*
X143045671Y-87419030D01*
X143067850Y-87429520D01*
X143088893Y-87442132D01*
X143108599Y-87456747D01*
X143126777Y-87473223D01*
X143143253Y-87491401D01*
X143157868Y-87511107D01*
X143170480Y-87532150D01*
X143180970Y-87554329D01*
X143189235Y-87577428D01*
X143195196Y-87601227D01*
X143198796Y-87625495D01*
X143200000Y-87649999D01*
X143200000Y-88300001D01*
X143198796Y-88324505D01*
X143195196Y-88348773D01*
X143189235Y-88372572D01*
X143180970Y-88395671D01*
X143170480Y-88417850D01*
X143157868Y-88438893D01*
X143143253Y-88458599D01*
X143126777Y-88476777D01*
X143108599Y-88493253D01*
X143088893Y-88507868D01*
X143067850Y-88520480D01*
X143045671Y-88530970D01*
X143022572Y-88539235D01*
X142998773Y-88545196D01*
X142974505Y-88548796D01*
X142950001Y-88550000D01*
X142049999Y-88550000D01*
X142025495Y-88548796D01*
X142001227Y-88545196D01*
X141977428Y-88539235D01*
X141954329Y-88530970D01*
X141932150Y-88520480D01*
X141911107Y-88507868D01*
X141891401Y-88493253D01*
X141873223Y-88476777D01*
X141856747Y-88458599D01*
X141842132Y-88438893D01*
X141829520Y-88417850D01*
X141819030Y-88395671D01*
X141810765Y-88372572D01*
X141804804Y-88348773D01*
X141801204Y-88324505D01*
X141800000Y-88300001D01*
X141800000Y-87649999D01*
X141801204Y-87625495D01*
X141804804Y-87601227D01*
X141810765Y-87577428D01*
X141819030Y-87554329D01*
X141829520Y-87532150D01*
X141842132Y-87511107D01*
X141856747Y-87491401D01*
X141873223Y-87473223D01*
X141891401Y-87456747D01*
X141911107Y-87442132D01*
X141932150Y-87429520D01*
X141954329Y-87419030D01*
X141977428Y-87410765D01*
X142001227Y-87404804D01*
X142025495Y-87401204D01*
X142049999Y-87400000D01*
X142950001Y-87400000D01*
X142974505Y-87401204D01*
X142974505Y-87401204D01*
G37*
D13*
X142500000Y-87975000D03*
D12*
G36*
X120849505Y-78301204D02*
G01*
X120873773Y-78304804D01*
X120897572Y-78310765D01*
X120920671Y-78319030D01*
X120942850Y-78329520D01*
X120963893Y-78342132D01*
X120983599Y-78356747D01*
X121001777Y-78373223D01*
X121018253Y-78391401D01*
X121032868Y-78411107D01*
X121045480Y-78432150D01*
X121055970Y-78454329D01*
X121064235Y-78477428D01*
X121070196Y-78501227D01*
X121073796Y-78525495D01*
X121075000Y-78549999D01*
X121075000Y-79450001D01*
X121073796Y-79474505D01*
X121070196Y-79498773D01*
X121064235Y-79522572D01*
X121055970Y-79545671D01*
X121045480Y-79567850D01*
X121032868Y-79588893D01*
X121018253Y-79608599D01*
X121001777Y-79626777D01*
X120983599Y-79643253D01*
X120963893Y-79657868D01*
X120942850Y-79670480D01*
X120920671Y-79680970D01*
X120897572Y-79689235D01*
X120873773Y-79695196D01*
X120849505Y-79698796D01*
X120825001Y-79700000D01*
X120174999Y-79700000D01*
X120150495Y-79698796D01*
X120126227Y-79695196D01*
X120102428Y-79689235D01*
X120079329Y-79680970D01*
X120057150Y-79670480D01*
X120036107Y-79657868D01*
X120016401Y-79643253D01*
X119998223Y-79626777D01*
X119981747Y-79608599D01*
X119967132Y-79588893D01*
X119954520Y-79567850D01*
X119944030Y-79545671D01*
X119935765Y-79522572D01*
X119929804Y-79498773D01*
X119926204Y-79474505D01*
X119925000Y-79450001D01*
X119925000Y-78549999D01*
X119926204Y-78525495D01*
X119929804Y-78501227D01*
X119935765Y-78477428D01*
X119944030Y-78454329D01*
X119954520Y-78432150D01*
X119967132Y-78411107D01*
X119981747Y-78391401D01*
X119998223Y-78373223D01*
X120016401Y-78356747D01*
X120036107Y-78342132D01*
X120057150Y-78329520D01*
X120079329Y-78319030D01*
X120102428Y-78310765D01*
X120126227Y-78304804D01*
X120150495Y-78301204D01*
X120174999Y-78300000D01*
X120825001Y-78300000D01*
X120849505Y-78301204D01*
X120849505Y-78301204D01*
G37*
D13*
X120500000Y-79000000D03*
D12*
G36*
X118799505Y-78301204D02*
G01*
X118823773Y-78304804D01*
X118847572Y-78310765D01*
X118870671Y-78319030D01*
X118892850Y-78329520D01*
X118913893Y-78342132D01*
X118933599Y-78356747D01*
X118951777Y-78373223D01*
X118968253Y-78391401D01*
X118982868Y-78411107D01*
X118995480Y-78432150D01*
X119005970Y-78454329D01*
X119014235Y-78477428D01*
X119020196Y-78501227D01*
X119023796Y-78525495D01*
X119025000Y-78549999D01*
X119025000Y-79450001D01*
X119023796Y-79474505D01*
X119020196Y-79498773D01*
X119014235Y-79522572D01*
X119005970Y-79545671D01*
X118995480Y-79567850D01*
X118982868Y-79588893D01*
X118968253Y-79608599D01*
X118951777Y-79626777D01*
X118933599Y-79643253D01*
X118913893Y-79657868D01*
X118892850Y-79670480D01*
X118870671Y-79680970D01*
X118847572Y-79689235D01*
X118823773Y-79695196D01*
X118799505Y-79698796D01*
X118775001Y-79700000D01*
X118124999Y-79700000D01*
X118100495Y-79698796D01*
X118076227Y-79695196D01*
X118052428Y-79689235D01*
X118029329Y-79680970D01*
X118007150Y-79670480D01*
X117986107Y-79657868D01*
X117966401Y-79643253D01*
X117948223Y-79626777D01*
X117931747Y-79608599D01*
X117917132Y-79588893D01*
X117904520Y-79567850D01*
X117894030Y-79545671D01*
X117885765Y-79522572D01*
X117879804Y-79498773D01*
X117876204Y-79474505D01*
X117875000Y-79450001D01*
X117875000Y-78549999D01*
X117876204Y-78525495D01*
X117879804Y-78501227D01*
X117885765Y-78477428D01*
X117894030Y-78454329D01*
X117904520Y-78432150D01*
X117917132Y-78411107D01*
X117931747Y-78391401D01*
X117948223Y-78373223D01*
X117966401Y-78356747D01*
X117986107Y-78342132D01*
X118007150Y-78329520D01*
X118029329Y-78319030D01*
X118052428Y-78310765D01*
X118076227Y-78304804D01*
X118100495Y-78301204D01*
X118124999Y-78300000D01*
X118775001Y-78300000D01*
X118799505Y-78301204D01*
X118799505Y-78301204D01*
G37*
D13*
X118450000Y-79000000D03*
D14*
X152000000Y-95000000D03*
X148000000Y-94000000D03*
X146250000Y-90500000D03*
X146250000Y-86000000D03*
X146250000Y-81500000D03*
X148000000Y-78000000D03*
X152000000Y-77000000D03*
X156000000Y-78000000D03*
X157750000Y-81500000D03*
X157750000Y-86000000D03*
X157750000Y-90500000D03*
D15*
X156000000Y-94000000D03*
D14*
X130500000Y-95000000D03*
X126500000Y-94000000D03*
X124750000Y-90500000D03*
X124750000Y-86000000D03*
X124750000Y-81500000D03*
X126500000Y-78000000D03*
X130500000Y-77000000D03*
X134500000Y-78000000D03*
X136250000Y-81500000D03*
X136250000Y-86000000D03*
X136250000Y-90500000D03*
D15*
X134500000Y-94000000D03*
D14*
X116500000Y-93000000D03*
D15*
X116500000Y-88500000D03*
D12*
G36*
X137474505Y-93376204D02*
G01*
X137498773Y-93379804D01*
X137522572Y-93385765D01*
X137545671Y-93394030D01*
X137567850Y-93404520D01*
X137588893Y-93417132D01*
X137608599Y-93431747D01*
X137626777Y-93448223D01*
X137643253Y-93466401D01*
X137657868Y-93486107D01*
X137670480Y-93507150D01*
X137680970Y-93529329D01*
X137689235Y-93552428D01*
X137695196Y-93576227D01*
X137698796Y-93600495D01*
X137700000Y-93624999D01*
X137700000Y-94275001D01*
X137698796Y-94299505D01*
X137695196Y-94323773D01*
X137689235Y-94347572D01*
X137680970Y-94370671D01*
X137670480Y-94392850D01*
X137657868Y-94413893D01*
X137643253Y-94433599D01*
X137626777Y-94451777D01*
X137608599Y-94468253D01*
X137588893Y-94482868D01*
X137567850Y-94495480D01*
X137545671Y-94505970D01*
X137522572Y-94514235D01*
X137498773Y-94520196D01*
X137474505Y-94523796D01*
X137450001Y-94525000D01*
X136549999Y-94525000D01*
X136525495Y-94523796D01*
X136501227Y-94520196D01*
X136477428Y-94514235D01*
X136454329Y-94505970D01*
X136432150Y-94495480D01*
X136411107Y-94482868D01*
X136391401Y-94468253D01*
X136373223Y-94451777D01*
X136356747Y-94433599D01*
X136342132Y-94413893D01*
X136329520Y-94392850D01*
X136319030Y-94370671D01*
X136310765Y-94347572D01*
X136304804Y-94323773D01*
X136301204Y-94299505D01*
X136300000Y-94275001D01*
X136300000Y-93624999D01*
X136301204Y-93600495D01*
X136304804Y-93576227D01*
X136310765Y-93552428D01*
X136319030Y-93529329D01*
X136329520Y-93507150D01*
X136342132Y-93486107D01*
X136356747Y-93466401D01*
X136373223Y-93448223D01*
X136391401Y-93431747D01*
X136411107Y-93417132D01*
X136432150Y-93404520D01*
X136454329Y-93394030D01*
X136477428Y-93385765D01*
X136501227Y-93379804D01*
X136525495Y-93376204D01*
X136549999Y-93375000D01*
X137450001Y-93375000D01*
X137474505Y-93376204D01*
X137474505Y-93376204D01*
G37*
D13*
X137000000Y-93950000D03*
D12*
G36*
X137474505Y-95426204D02*
G01*
X137498773Y-95429804D01*
X137522572Y-95435765D01*
X137545671Y-95444030D01*
X137567850Y-95454520D01*
X137588893Y-95467132D01*
X137608599Y-95481747D01*
X137626777Y-95498223D01*
X137643253Y-95516401D01*
X137657868Y-95536107D01*
X137670480Y-95557150D01*
X137680970Y-95579329D01*
X137689235Y-95602428D01*
X137695196Y-95626227D01*
X137698796Y-95650495D01*
X137700000Y-95674999D01*
X137700000Y-96325001D01*
X137698796Y-96349505D01*
X137695196Y-96373773D01*
X137689235Y-96397572D01*
X137680970Y-96420671D01*
X137670480Y-96442850D01*
X137657868Y-96463893D01*
X137643253Y-96483599D01*
X137626777Y-96501777D01*
X137608599Y-96518253D01*
X137588893Y-96532868D01*
X137567850Y-96545480D01*
X137545671Y-96555970D01*
X137522572Y-96564235D01*
X137498773Y-96570196D01*
X137474505Y-96573796D01*
X137450001Y-96575000D01*
X136549999Y-96575000D01*
X136525495Y-96573796D01*
X136501227Y-96570196D01*
X136477428Y-96564235D01*
X136454329Y-96555970D01*
X136432150Y-96545480D01*
X136411107Y-96532868D01*
X136391401Y-96518253D01*
X136373223Y-96501777D01*
X136356747Y-96483599D01*
X136342132Y-96463893D01*
X136329520Y-96442850D01*
X136319030Y-96420671D01*
X136310765Y-96397572D01*
X136304804Y-96373773D01*
X136301204Y-96349505D01*
X136300000Y-96325001D01*
X136300000Y-95674999D01*
X136301204Y-95650495D01*
X136304804Y-95626227D01*
X136310765Y-95602428D01*
X136319030Y-95579329D01*
X136329520Y-95557150D01*
X136342132Y-95536107D01*
X136356747Y-95516401D01*
X136373223Y-95498223D01*
X136391401Y-95481747D01*
X136411107Y-95467132D01*
X136432150Y-95454520D01*
X136454329Y-95444030D01*
X136477428Y-95435765D01*
X136501227Y-95429804D01*
X136525495Y-95426204D01*
X136549999Y-95425000D01*
X137450001Y-95425000D01*
X137474505Y-95426204D01*
X137474505Y-95426204D01*
G37*
D13*
X137000000Y-96000000D03*
D12*
G36*
X139974505Y-87376204D02*
G01*
X139998773Y-87379804D01*
X140022572Y-87385765D01*
X140045671Y-87394030D01*
X140067850Y-87404520D01*
X140088893Y-87417132D01*
X140108599Y-87431747D01*
X140126777Y-87448223D01*
X140143253Y-87466401D01*
X140157868Y-87486107D01*
X140170480Y-87507150D01*
X140180970Y-87529329D01*
X140189235Y-87552428D01*
X140195196Y-87576227D01*
X140198796Y-87600495D01*
X140200000Y-87624999D01*
X140200000Y-88275001D01*
X140198796Y-88299505D01*
X140195196Y-88323773D01*
X140189235Y-88347572D01*
X140180970Y-88370671D01*
X140170480Y-88392850D01*
X140157868Y-88413893D01*
X140143253Y-88433599D01*
X140126777Y-88451777D01*
X140108599Y-88468253D01*
X140088893Y-88482868D01*
X140067850Y-88495480D01*
X140045671Y-88505970D01*
X140022572Y-88514235D01*
X139998773Y-88520196D01*
X139974505Y-88523796D01*
X139950001Y-88525000D01*
X139049999Y-88525000D01*
X139025495Y-88523796D01*
X139001227Y-88520196D01*
X138977428Y-88514235D01*
X138954329Y-88505970D01*
X138932150Y-88495480D01*
X138911107Y-88482868D01*
X138891401Y-88468253D01*
X138873223Y-88451777D01*
X138856747Y-88433599D01*
X138842132Y-88413893D01*
X138829520Y-88392850D01*
X138819030Y-88370671D01*
X138810765Y-88347572D01*
X138804804Y-88323773D01*
X138801204Y-88299505D01*
X138800000Y-88275001D01*
X138800000Y-87624999D01*
X138801204Y-87600495D01*
X138804804Y-87576227D01*
X138810765Y-87552428D01*
X138819030Y-87529329D01*
X138829520Y-87507150D01*
X138842132Y-87486107D01*
X138856747Y-87466401D01*
X138873223Y-87448223D01*
X138891401Y-87431747D01*
X138911107Y-87417132D01*
X138932150Y-87404520D01*
X138954329Y-87394030D01*
X138977428Y-87385765D01*
X139001227Y-87379804D01*
X139025495Y-87376204D01*
X139049999Y-87375000D01*
X139950001Y-87375000D01*
X139974505Y-87376204D01*
X139974505Y-87376204D01*
G37*
D13*
X139500000Y-87950000D03*
D12*
G36*
X139974505Y-89426204D02*
G01*
X139998773Y-89429804D01*
X140022572Y-89435765D01*
X140045671Y-89444030D01*
X140067850Y-89454520D01*
X140088893Y-89467132D01*
X140108599Y-89481747D01*
X140126777Y-89498223D01*
X140143253Y-89516401D01*
X140157868Y-89536107D01*
X140170480Y-89557150D01*
X140180970Y-89579329D01*
X140189235Y-89602428D01*
X140195196Y-89626227D01*
X140198796Y-89650495D01*
X140200000Y-89674999D01*
X140200000Y-90325001D01*
X140198796Y-90349505D01*
X140195196Y-90373773D01*
X140189235Y-90397572D01*
X140180970Y-90420671D01*
X140170480Y-90442850D01*
X140157868Y-90463893D01*
X140143253Y-90483599D01*
X140126777Y-90501777D01*
X140108599Y-90518253D01*
X140088893Y-90532868D01*
X140067850Y-90545480D01*
X140045671Y-90555970D01*
X140022572Y-90564235D01*
X139998773Y-90570196D01*
X139974505Y-90573796D01*
X139950001Y-90575000D01*
X139049999Y-90575000D01*
X139025495Y-90573796D01*
X139001227Y-90570196D01*
X138977428Y-90564235D01*
X138954329Y-90555970D01*
X138932150Y-90545480D01*
X138911107Y-90532868D01*
X138891401Y-90518253D01*
X138873223Y-90501777D01*
X138856747Y-90483599D01*
X138842132Y-90463893D01*
X138829520Y-90442850D01*
X138819030Y-90420671D01*
X138810765Y-90397572D01*
X138804804Y-90373773D01*
X138801204Y-90349505D01*
X138800000Y-90325001D01*
X138800000Y-89674999D01*
X138801204Y-89650495D01*
X138804804Y-89626227D01*
X138810765Y-89602428D01*
X138819030Y-89579329D01*
X138829520Y-89557150D01*
X138842132Y-89536107D01*
X138856747Y-89516401D01*
X138873223Y-89498223D01*
X138891401Y-89481747D01*
X138911107Y-89467132D01*
X138932150Y-89454520D01*
X138954329Y-89444030D01*
X138977428Y-89435765D01*
X139001227Y-89429804D01*
X139025495Y-89426204D01*
X139049999Y-89425000D01*
X139950001Y-89425000D01*
X139974505Y-89426204D01*
X139974505Y-89426204D01*
G37*
D13*
X139500000Y-90000000D03*
D10*
X153400000Y-72540000D03*
X153400000Y-70000000D03*
X150860000Y-72540000D03*
X150860000Y-70000000D03*
X148320000Y-72540000D03*
X148320000Y-70000000D03*
X145780000Y-72540000D03*
X145780000Y-70000000D03*
X143240000Y-72540000D03*
X143240000Y-70000000D03*
X140700000Y-72540000D03*
X140700000Y-70000000D03*
X138160000Y-72540000D03*
X138160000Y-70000000D03*
X135620000Y-72540000D03*
X135620000Y-70000000D03*
X133080000Y-72540000D03*
X133080000Y-70000000D03*
X130540000Y-72540000D03*
X130540000Y-70000000D03*
X128000000Y-72540000D03*
D11*
X128000000Y-70000000D03*
D12*
G36*
X118849505Y-87801204D02*
G01*
X118873773Y-87804804D01*
X118897572Y-87810765D01*
X118920671Y-87819030D01*
X118942850Y-87829520D01*
X118963893Y-87842132D01*
X118983599Y-87856747D01*
X119001777Y-87873223D01*
X119018253Y-87891401D01*
X119032868Y-87911107D01*
X119045480Y-87932150D01*
X119055970Y-87954329D01*
X119064235Y-87977428D01*
X119070196Y-88001227D01*
X119073796Y-88025495D01*
X119075000Y-88049999D01*
X119075000Y-88950001D01*
X119073796Y-88974505D01*
X119070196Y-88998773D01*
X119064235Y-89022572D01*
X119055970Y-89045671D01*
X119045480Y-89067850D01*
X119032868Y-89088893D01*
X119018253Y-89108599D01*
X119001777Y-89126777D01*
X118983599Y-89143253D01*
X118963893Y-89157868D01*
X118942850Y-89170480D01*
X118920671Y-89180970D01*
X118897572Y-89189235D01*
X118873773Y-89195196D01*
X118849505Y-89198796D01*
X118825001Y-89200000D01*
X118174999Y-89200000D01*
X118150495Y-89198796D01*
X118126227Y-89195196D01*
X118102428Y-89189235D01*
X118079329Y-89180970D01*
X118057150Y-89170480D01*
X118036107Y-89157868D01*
X118016401Y-89143253D01*
X117998223Y-89126777D01*
X117981747Y-89108599D01*
X117967132Y-89088893D01*
X117954520Y-89067850D01*
X117944030Y-89045671D01*
X117935765Y-89022572D01*
X117929804Y-88998773D01*
X117926204Y-88974505D01*
X117925000Y-88950001D01*
X117925000Y-88049999D01*
X117926204Y-88025495D01*
X117929804Y-88001227D01*
X117935765Y-87977428D01*
X117944030Y-87954329D01*
X117954520Y-87932150D01*
X117967132Y-87911107D01*
X117981747Y-87891401D01*
X117998223Y-87873223D01*
X118016401Y-87856747D01*
X118036107Y-87842132D01*
X118057150Y-87829520D01*
X118079329Y-87819030D01*
X118102428Y-87810765D01*
X118126227Y-87804804D01*
X118150495Y-87801204D01*
X118174999Y-87800000D01*
X118825001Y-87800000D01*
X118849505Y-87801204D01*
X118849505Y-87801204D01*
G37*
D13*
X118500000Y-88500000D03*
D12*
G36*
X120899505Y-87801204D02*
G01*
X120923773Y-87804804D01*
X120947572Y-87810765D01*
X120970671Y-87819030D01*
X120992850Y-87829520D01*
X121013893Y-87842132D01*
X121033599Y-87856747D01*
X121051777Y-87873223D01*
X121068253Y-87891401D01*
X121082868Y-87911107D01*
X121095480Y-87932150D01*
X121105970Y-87954329D01*
X121114235Y-87977428D01*
X121120196Y-88001227D01*
X121123796Y-88025495D01*
X121125000Y-88049999D01*
X121125000Y-88950001D01*
X121123796Y-88974505D01*
X121120196Y-88998773D01*
X121114235Y-89022572D01*
X121105970Y-89045671D01*
X121095480Y-89067850D01*
X121082868Y-89088893D01*
X121068253Y-89108599D01*
X121051777Y-89126777D01*
X121033599Y-89143253D01*
X121013893Y-89157868D01*
X120992850Y-89170480D01*
X120970671Y-89180970D01*
X120947572Y-89189235D01*
X120923773Y-89195196D01*
X120899505Y-89198796D01*
X120875001Y-89200000D01*
X120224999Y-89200000D01*
X120200495Y-89198796D01*
X120176227Y-89195196D01*
X120152428Y-89189235D01*
X120129329Y-89180970D01*
X120107150Y-89170480D01*
X120086107Y-89157868D01*
X120066401Y-89143253D01*
X120048223Y-89126777D01*
X120031747Y-89108599D01*
X120017132Y-89088893D01*
X120004520Y-89067850D01*
X119994030Y-89045671D01*
X119985765Y-89022572D01*
X119979804Y-88998773D01*
X119976204Y-88974505D01*
X119975000Y-88950001D01*
X119975000Y-88049999D01*
X119976204Y-88025495D01*
X119979804Y-88001227D01*
X119985765Y-87977428D01*
X119994030Y-87954329D01*
X120004520Y-87932150D01*
X120017132Y-87911107D01*
X120031747Y-87891401D01*
X120048223Y-87873223D01*
X120066401Y-87856747D01*
X120086107Y-87842132D01*
X120107150Y-87829520D01*
X120129329Y-87819030D01*
X120152428Y-87810765D01*
X120176227Y-87804804D01*
X120200495Y-87801204D01*
X120224999Y-87800000D01*
X120875001Y-87800000D01*
X120899505Y-87801204D01*
X120899505Y-87801204D01*
G37*
D13*
X120550000Y-88500000D03*
D12*
G36*
X142974505Y-93376204D02*
G01*
X142998773Y-93379804D01*
X143022572Y-93385765D01*
X143045671Y-93394030D01*
X143067850Y-93404520D01*
X143088893Y-93417132D01*
X143108599Y-93431747D01*
X143126777Y-93448223D01*
X143143253Y-93466401D01*
X143157868Y-93486107D01*
X143170480Y-93507150D01*
X143180970Y-93529329D01*
X143189235Y-93552428D01*
X143195196Y-93576227D01*
X143198796Y-93600495D01*
X143200000Y-93624999D01*
X143200000Y-94275001D01*
X143198796Y-94299505D01*
X143195196Y-94323773D01*
X143189235Y-94347572D01*
X143180970Y-94370671D01*
X143170480Y-94392850D01*
X143157868Y-94413893D01*
X143143253Y-94433599D01*
X143126777Y-94451777D01*
X143108599Y-94468253D01*
X143088893Y-94482868D01*
X143067850Y-94495480D01*
X143045671Y-94505970D01*
X143022572Y-94514235D01*
X142998773Y-94520196D01*
X142974505Y-94523796D01*
X142950001Y-94525000D01*
X142049999Y-94525000D01*
X142025495Y-94523796D01*
X142001227Y-94520196D01*
X141977428Y-94514235D01*
X141954329Y-94505970D01*
X141932150Y-94495480D01*
X141911107Y-94482868D01*
X141891401Y-94468253D01*
X141873223Y-94451777D01*
X141856747Y-94433599D01*
X141842132Y-94413893D01*
X141829520Y-94392850D01*
X141819030Y-94370671D01*
X141810765Y-94347572D01*
X141804804Y-94323773D01*
X141801204Y-94299505D01*
X141800000Y-94275001D01*
X141800000Y-93624999D01*
X141801204Y-93600495D01*
X141804804Y-93576227D01*
X141810765Y-93552428D01*
X141819030Y-93529329D01*
X141829520Y-93507150D01*
X141842132Y-93486107D01*
X141856747Y-93466401D01*
X141873223Y-93448223D01*
X141891401Y-93431747D01*
X141911107Y-93417132D01*
X141932150Y-93404520D01*
X141954329Y-93394030D01*
X141977428Y-93385765D01*
X142001227Y-93379804D01*
X142025495Y-93376204D01*
X142049999Y-93375000D01*
X142950001Y-93375000D01*
X142974505Y-93376204D01*
X142974505Y-93376204D01*
G37*
D13*
X142500000Y-93950000D03*
D12*
G36*
X142974505Y-95426204D02*
G01*
X142998773Y-95429804D01*
X143022572Y-95435765D01*
X143045671Y-95444030D01*
X143067850Y-95454520D01*
X143088893Y-95467132D01*
X143108599Y-95481747D01*
X143126777Y-95498223D01*
X143143253Y-95516401D01*
X143157868Y-95536107D01*
X143170480Y-95557150D01*
X143180970Y-95579329D01*
X143189235Y-95602428D01*
X143195196Y-95626227D01*
X143198796Y-95650495D01*
X143200000Y-95674999D01*
X143200000Y-96325001D01*
X143198796Y-96349505D01*
X143195196Y-96373773D01*
X143189235Y-96397572D01*
X143180970Y-96420671D01*
X143170480Y-96442850D01*
X143157868Y-96463893D01*
X143143253Y-96483599D01*
X143126777Y-96501777D01*
X143108599Y-96518253D01*
X143088893Y-96532868D01*
X143067850Y-96545480D01*
X143045671Y-96555970D01*
X143022572Y-96564235D01*
X142998773Y-96570196D01*
X142974505Y-96573796D01*
X142950001Y-96575000D01*
X142049999Y-96575000D01*
X142025495Y-96573796D01*
X142001227Y-96570196D01*
X141977428Y-96564235D01*
X141954329Y-96555970D01*
X141932150Y-96545480D01*
X141911107Y-96532868D01*
X141891401Y-96518253D01*
X141873223Y-96501777D01*
X141856747Y-96483599D01*
X141842132Y-96463893D01*
X141829520Y-96442850D01*
X141819030Y-96420671D01*
X141810765Y-96397572D01*
X141804804Y-96373773D01*
X141801204Y-96349505D01*
X141800000Y-96325001D01*
X141800000Y-95674999D01*
X141801204Y-95650495D01*
X141804804Y-95626227D01*
X141810765Y-95602428D01*
X141819030Y-95579329D01*
X141829520Y-95557150D01*
X141842132Y-95536107D01*
X141856747Y-95516401D01*
X141873223Y-95498223D01*
X141891401Y-95481747D01*
X141911107Y-95467132D01*
X141932150Y-95454520D01*
X141954329Y-95444030D01*
X141977428Y-95435765D01*
X142001227Y-95429804D01*
X142025495Y-95426204D01*
X142049999Y-95425000D01*
X142950001Y-95425000D01*
X142974505Y-95426204D01*
X142974505Y-95426204D01*
G37*
D13*
X142500000Y-96000000D03*
D14*
X116500000Y-83500000D03*
D15*
X116500000Y-79000000D03*
D16*
X123541700Y-79443900D03*
X144871400Y-74266600D03*
D17*
X128000000Y-70000000D02*
X128000000Y-71175300D01*
X128000000Y-71175300D02*
X128367400Y-71175300D01*
X128367400Y-71175300D02*
X129175300Y-71983200D01*
X129175300Y-71983200D02*
X129175300Y-77344700D01*
X129175300Y-77344700D02*
X135580600Y-83750000D01*
X135580600Y-83750000D02*
X135695900Y-83750000D01*
X135695900Y-83750000D02*
X139500000Y-87554100D01*
X139500000Y-87554100D02*
X139500000Y-87950000D01*
X128000000Y-72540000D02*
X128000000Y-73715300D01*
X128000000Y-73715300D02*
X128450400Y-74165700D01*
X128450400Y-74165700D02*
X128450400Y-79923600D01*
X128450400Y-79923600D02*
X137380700Y-88853900D01*
X137380700Y-88853900D02*
X141621100Y-88853900D01*
X141621100Y-88853900D02*
X142500000Y-87975000D01*
X130540000Y-70000000D02*
X129364700Y-70000000D01*
X129364700Y-70000000D02*
X129364700Y-69192000D01*
X129364700Y-69192000D02*
X128997300Y-68824600D01*
X128997300Y-68824600D02*
X126995500Y-68824600D01*
X126995500Y-68824600D02*
X126817800Y-69002300D01*
X126817800Y-69002300D02*
X126817800Y-75510300D01*
X126817800Y-75510300D02*
X128000000Y-76692500D01*
X128000000Y-76692500D02*
X128000000Y-82250000D01*
X128000000Y-82250000D02*
X136250000Y-90500000D01*
X130540000Y-72540000D02*
X131715300Y-72540000D01*
X157750000Y-90500000D02*
X141970000Y-74720000D01*
X141970000Y-74720000D02*
X141970000Y-72081800D01*
X141970000Y-72081800D02*
X141252900Y-71364700D01*
X141252900Y-71364700D02*
X132523200Y-71364700D01*
X132523200Y-71364700D02*
X131715300Y-72172600D01*
X131715300Y-72172600D02*
X131715300Y-72540000D01*
X126500000Y-94000000D02*
X123541700Y-91041700D01*
X123541700Y-91041700D02*
X123541700Y-79443900D01*
X133080000Y-72540000D02*
X133080000Y-73715300D01*
X133080000Y-73715300D02*
X144100700Y-84736000D01*
X144100700Y-84736000D02*
X144100700Y-90100700D01*
X144100700Y-90100700D02*
X148000000Y-94000000D01*
X135620000Y-70000000D02*
X134444700Y-70000000D01*
X134444700Y-70000000D02*
X134444700Y-69632700D01*
X134444700Y-69632700D02*
X133147400Y-68335400D01*
X133147400Y-68335400D02*
X126817800Y-68335400D01*
X126817800Y-68335400D02*
X125324600Y-69828600D01*
X125324600Y-69828600D02*
X125324600Y-80211500D01*
X125324600Y-80211500D02*
X125959000Y-80845900D01*
X125959000Y-80845900D02*
X125959000Y-89291000D01*
X125959000Y-89291000D02*
X124750000Y-90500000D01*
X135620000Y-73715300D02*
X135620000Y-74352100D01*
X135620000Y-74352100D02*
X144701700Y-83433800D01*
X144701700Y-83433800D02*
X144701700Y-88951700D01*
X144701700Y-88951700D02*
X146250000Y-90500000D01*
X135620000Y-72540000D02*
X135620000Y-73715300D01*
X138160000Y-72540000D02*
X138160000Y-73715300D01*
X138160000Y-73715300D02*
X138160000Y-75937000D01*
X138160000Y-75937000D02*
X146250000Y-84027000D01*
X146250000Y-84027000D02*
X146250000Y-86000000D01*
X141875300Y-70000000D02*
X141875300Y-69632700D01*
X141875300Y-69632700D02*
X142700800Y-68807200D01*
X142700800Y-68807200D02*
X143712000Y-68807200D01*
X143712000Y-68807200D02*
X144415400Y-69510600D01*
X144415400Y-69510600D02*
X144415400Y-73810600D01*
X144415400Y-73810600D02*
X144871400Y-74266600D01*
X140700000Y-70000000D02*
X141875300Y-70000000D01*
X140700000Y-72540000D02*
X140700000Y-75950000D01*
X140700000Y-75950000D02*
X146250000Y-81500000D01*
X143240000Y-73715300D02*
X147524700Y-78000000D01*
X147524700Y-78000000D02*
X148000000Y-78000000D01*
X143240000Y-72540000D02*
X143240000Y-73715300D01*
X150860000Y-72540000D02*
X152035300Y-72540000D01*
X157750000Y-81500000D02*
X157750000Y-75194300D01*
X157750000Y-75194300D02*
X153920400Y-71364700D01*
X153920400Y-71364700D02*
X152843200Y-71364700D01*
X152843200Y-71364700D02*
X152035300Y-72172600D01*
X152035300Y-72172600D02*
X152035300Y-72540000D01*
X153400000Y-72540000D02*
X153400000Y-81650000D01*
X153400000Y-81650000D02*
X157750000Y-86000000D01*
X137000000Y-96000000D02*
X132175300Y-100824700D01*
X132175300Y-100824700D02*
X128000000Y-100824700D01*
X142500000Y-96000000D02*
X137000000Y-96000000D01*
X120550000Y-88500000D02*
X120550000Y-93374700D01*
X120550000Y-93374700D02*
X128000000Y-100824700D01*
X120500000Y-79000000D02*
X120500000Y-88450000D01*
X120500000Y-88450000D02*
X120550000Y-88500000D01*
X128000000Y-102000000D02*
X128000000Y-100824700D01*
X134500000Y-94000000D02*
X135675300Y-94000000D01*
X137000000Y-93950000D02*
X135725300Y-93950000D01*
X135725300Y-93950000D02*
X135675300Y-94000000D01*
X139500000Y-90000000D02*
X136587400Y-92912600D01*
X136587400Y-92912600D02*
X132587400Y-92912600D01*
X132587400Y-92912600D02*
X130500000Y-95000000D01*
X152000000Y-95000000D02*
X151819000Y-95181000D01*
X151819000Y-95181000D02*
X147427100Y-95181000D01*
X147427100Y-95181000D02*
X142500000Y-90253900D01*
X142500000Y-90253900D02*
X142500000Y-90025000D01*
X156000000Y-94000000D02*
X156000000Y-95087300D01*
X142500000Y-93950000D02*
X144771500Y-96221500D01*
X144771500Y-96221500D02*
X154865800Y-96221500D01*
X154865800Y-96221500D02*
X156000000Y-95087300D01*
X116500000Y-79000000D02*
X118450000Y-79000000D01*
X118500000Y-88500000D02*
X116500000Y-88500000D01*
M02*
