G04 #@! TF.GenerationSoftware,KiCad,Pcbnew,5.1.2*
G04 #@! TF.CreationDate,2019-05-05T16:50:57+02:00*
G04 #@! TF.ProjectId,nixieboard,6e697869-6562-46f6-9172-642e6b696361,rev?*
G04 #@! TF.SameCoordinates,Original*
G04 #@! TF.FileFunction,Legend,Bot*
G04 #@! TF.FilePolarity,Positive*
%FSLAX46Y46*%
G04 Gerber Fmt 4.6, Leading zero omitted, Abs format (unit mm)*
G04 Created by KiCad (PCBNEW 5.1.2) date 2019-05-05 16:50:57*
%MOMM*%
%LPD*%
G04 APERTURE LIST*
%ADD10C,0.120000*%
%ADD11C,0.150000*%
G04 APERTURE END LIST*
D10*
X126670000Y-100670000D02*
X126670000Y-102000000D01*
X128000000Y-100670000D02*
X126670000Y-100670000D01*
X129270000Y-100670000D02*
X129270000Y-103330000D01*
X129270000Y-103330000D02*
X154730000Y-103330000D01*
X129270000Y-100670000D02*
X154730000Y-100670000D01*
X154730000Y-100670000D02*
X154730000Y-103330000D01*
X143210000Y-89261252D02*
X143210000Y-88738748D01*
X141790000Y-89261252D02*
X141790000Y-88738748D01*
X119736252Y-78290000D02*
X119213748Y-78290000D01*
X119736252Y-79710000D02*
X119213748Y-79710000D01*
X136290000Y-95236252D02*
X136290000Y-94713748D01*
X137710000Y-95236252D02*
X137710000Y-94713748D01*
X138790000Y-89236252D02*
X138790000Y-88713748D01*
X140210000Y-89236252D02*
X140210000Y-88713748D01*
X126670000Y-68670000D02*
X126670000Y-70000000D01*
X128000000Y-68670000D02*
X126670000Y-68670000D01*
X126670000Y-71270000D02*
X126670000Y-73870000D01*
X129270000Y-71270000D02*
X126670000Y-71270000D01*
X129270000Y-68670000D02*
X129270000Y-71270000D01*
X126670000Y-73870000D02*
X154730000Y-73870000D01*
X129270000Y-68670000D02*
X154730000Y-68670000D01*
X154730000Y-68670000D02*
X154730000Y-73870000D01*
X119786252Y-89210000D02*
X119263748Y-89210000D01*
X119786252Y-87790000D02*
X119263748Y-87790000D01*
X141790000Y-95236252D02*
X141790000Y-94713748D01*
X143210000Y-95236252D02*
X143210000Y-94713748D01*
D11*
X125122380Y-101666666D02*
X125836666Y-101666666D01*
X125979523Y-101619047D01*
X126074761Y-101523809D01*
X126122380Y-101380952D01*
X126122380Y-101285714D01*
X125217619Y-102095238D02*
X125170000Y-102142857D01*
X125122380Y-102238095D01*
X125122380Y-102476190D01*
X125170000Y-102571428D01*
X125217619Y-102619047D01*
X125312857Y-102666666D01*
X125408095Y-102666666D01*
X125550952Y-102619047D01*
X126122380Y-102047619D01*
X126122380Y-102666666D01*
X142666666Y-86977380D02*
X143000000Y-86501190D01*
X143238095Y-86977380D02*
X143238095Y-85977380D01*
X142857142Y-85977380D01*
X142761904Y-86025000D01*
X142714285Y-86072619D01*
X142666666Y-86167857D01*
X142666666Y-86310714D01*
X142714285Y-86405952D01*
X142761904Y-86453571D01*
X142857142Y-86501190D01*
X143238095Y-86501190D01*
X141809523Y-86310714D02*
X141809523Y-86977380D01*
X142047619Y-85929761D02*
X142285714Y-86644047D01*
X141666666Y-86644047D01*
X122516666Y-79452380D02*
X122850000Y-78976190D01*
X123088095Y-79452380D02*
X123088095Y-78452380D01*
X122707142Y-78452380D01*
X122611904Y-78500000D01*
X122564285Y-78547619D01*
X122516666Y-78642857D01*
X122516666Y-78785714D01*
X122564285Y-78880952D01*
X122611904Y-78928571D01*
X122707142Y-78976190D01*
X123088095Y-78976190D01*
X121611904Y-78452380D02*
X122088095Y-78452380D01*
X122135714Y-78928571D01*
X122088095Y-78880952D01*
X121992857Y-78833333D01*
X121754761Y-78833333D01*
X121659523Y-78880952D01*
X121611904Y-78928571D01*
X121564285Y-79023809D01*
X121564285Y-79261904D01*
X121611904Y-79357142D01*
X121659523Y-79404761D01*
X121754761Y-79452380D01*
X121992857Y-79452380D01*
X122088095Y-79404761D01*
X122135714Y-79357142D01*
X139102380Y-94808333D02*
X138626190Y-94475000D01*
X139102380Y-94236904D02*
X138102380Y-94236904D01*
X138102380Y-94617857D01*
X138150000Y-94713095D01*
X138197619Y-94760714D01*
X138292857Y-94808333D01*
X138435714Y-94808333D01*
X138530952Y-94760714D01*
X138578571Y-94713095D01*
X138626190Y-94617857D01*
X138626190Y-94236904D01*
X139102380Y-95760714D02*
X139102380Y-95189285D01*
X139102380Y-95475000D02*
X138102380Y-95475000D01*
X138245238Y-95379761D01*
X138340476Y-95284523D01*
X138388095Y-95189285D01*
X139766666Y-86752380D02*
X140100000Y-86276190D01*
X140338095Y-86752380D02*
X140338095Y-85752380D01*
X139957142Y-85752380D01*
X139861904Y-85800000D01*
X139814285Y-85847619D01*
X139766666Y-85942857D01*
X139766666Y-86085714D01*
X139814285Y-86180952D01*
X139861904Y-86228571D01*
X139957142Y-86276190D01*
X140338095Y-86276190D01*
X139385714Y-85847619D02*
X139338095Y-85800000D01*
X139242857Y-85752380D01*
X139004761Y-85752380D01*
X138909523Y-85800000D01*
X138861904Y-85847619D01*
X138814285Y-85942857D01*
X138814285Y-86038095D01*
X138861904Y-86180952D01*
X139433333Y-86752380D01*
X138814285Y-86752380D01*
X125122380Y-70936666D02*
X125836666Y-70936666D01*
X125979523Y-70889047D01*
X126074761Y-70793809D01*
X126122380Y-70650952D01*
X126122380Y-70555714D01*
X126122380Y-71936666D02*
X126122380Y-71365238D01*
X126122380Y-71650952D02*
X125122380Y-71650952D01*
X125265238Y-71555714D01*
X125360476Y-71460476D01*
X125408095Y-71365238D01*
X122566666Y-89052380D02*
X122900000Y-88576190D01*
X123138095Y-89052380D02*
X123138095Y-88052380D01*
X122757142Y-88052380D01*
X122661904Y-88100000D01*
X122614285Y-88147619D01*
X122566666Y-88242857D01*
X122566666Y-88385714D01*
X122614285Y-88480952D01*
X122661904Y-88528571D01*
X122757142Y-88576190D01*
X123138095Y-88576190D01*
X121709523Y-88052380D02*
X121900000Y-88052380D01*
X121995238Y-88100000D01*
X122042857Y-88147619D01*
X122138095Y-88290476D01*
X122185714Y-88480952D01*
X122185714Y-88861904D01*
X122138095Y-88957142D01*
X122090476Y-89004761D01*
X121995238Y-89052380D01*
X121804761Y-89052380D01*
X121709523Y-89004761D01*
X121661904Y-88957142D01*
X121614285Y-88861904D01*
X121614285Y-88623809D01*
X121661904Y-88528571D01*
X121709523Y-88480952D01*
X121804761Y-88433333D01*
X121995238Y-88433333D01*
X122090476Y-88480952D01*
X122138095Y-88528571D01*
X122185714Y-88623809D01*
X144602380Y-94808333D02*
X144126190Y-94475000D01*
X144602380Y-94236904D02*
X143602380Y-94236904D01*
X143602380Y-94617857D01*
X143650000Y-94713095D01*
X143697619Y-94760714D01*
X143792857Y-94808333D01*
X143935714Y-94808333D01*
X144030952Y-94760714D01*
X144078571Y-94713095D01*
X144126190Y-94617857D01*
X144126190Y-94236904D01*
X143602380Y-95141666D02*
X143602380Y-95760714D01*
X143983333Y-95427380D01*
X143983333Y-95570238D01*
X144030952Y-95665476D01*
X144078571Y-95713095D01*
X144173809Y-95760714D01*
X144411904Y-95760714D01*
X144507142Y-95713095D01*
X144554761Y-95665476D01*
X144602380Y-95570238D01*
X144602380Y-95284523D01*
X144554761Y-95189285D01*
X144507142Y-95141666D01*
M02*
