M48
; DRILL file {KiCad 5.1.2} date Sun 05 May 2019 04:50:53 PM CEST
; FORMAT={3:3/ absolute / metric / suppress leading zeros}
; #@! TF.CreationDate,2019-05-05T16:50:53+02:00
; #@! TF.GenerationSoftware,Kicad,Pcbnew,5.1.2
FMAT,2
METRIC,TZ
T1C0.400
T2C1.000
T3C3.200
%
G90
G05
T1
X123542Y-79444
X144871Y-74267
T2
X146250Y-81500
X146250Y-86000
X146250Y-90500
X148000Y-78000
X148000Y-94000
X152000Y-77000
X152000Y-95000
X156000Y-78000
X156000Y-94000
X157750Y-81500
X157750Y-86000
X157750Y-90500
X128000Y-70000
X128000Y-72540
X130540Y-70000
X130540Y-72540
X133080Y-70000
X133080Y-72540
X135620Y-70000
X135620Y-72540
X138160Y-70000
X138160Y-72540
X140700Y-70000
X140700Y-72540
X143240Y-70000
X143240Y-72540
X145780Y-70000
X145780Y-72540
X148320Y-70000
X148320Y-72540
X150860Y-70000
X150860Y-72540
X153400Y-70000
X153400Y-72540
X124750Y-81500
X124750Y-86000
X124750Y-90500
X126500Y-78000
X126500Y-94000
X130500Y-77000
X130500Y-95000
X134500Y-78000
X134500Y-94000
X136250Y-81500
X136250Y-86000
X136250Y-90500
X128000Y-102000
X130540Y-102000
X133080Y-102000
X135620Y-102000
X138160Y-102000
X140700Y-102000
X143240Y-102000
X145780Y-102000
X148320Y-102000
X150860Y-102000
X153400Y-102000
X116500Y-88500
X116500Y-93000
X116500Y-79000
X116500Y-83500
T3
X159000Y-71500
X122500Y-71600
X122500Y-100500
X159000Y-100500
T0
M30
