G04 #@! TF.GenerationSoftware,KiCad,Pcbnew,5.1.2*
G04 #@! TF.CreationDate,2019-05-06T20:04:11+02:00*
G04 #@! TF.ProjectId,controlboard,636f6e74-726f-46c6-926f-6172642e6b69,rev?*
G04 #@! TF.SameCoordinates,Original*
G04 #@! TF.FileFunction,Copper,L1,Top*
G04 #@! TF.FilePolarity,Positive*
%FSLAX46Y46*%
G04 Gerber Fmt 4.6, Leading zero omitted, Abs format (unit mm)*
G04 Created by KiCad (PCBNEW 5.1.2) date 2019-05-06 20:04:11*
%MOMM*%
%LPD*%
G04 APERTURE LIST*
%ADD10C,0.100000*%
%ADD11C,1.150000*%
%ADD12R,1.700000X1.700000*%
%ADD13O,1.700000X1.700000*%
%ADD14R,0.800000X0.900000*%
%ADD15R,3.800000X2.000000*%
%ADD16R,1.500000X2.000000*%
%ADD17O,2.000000X1.600000*%
%ADD18R,2.000000X2.000000*%
%ADD19R,1.600000X1.600000*%
%ADD20O,1.600000X1.600000*%
%ADD21R,2.499360X2.499360*%
%ADD22C,2.499360*%
%ADD23C,0.800000*%
%ADD24C,0.250000*%
%ADD25C,0.400000*%
G04 APERTURE END LIST*
D10*
G36*
X87474505Y-33901204D02*
G01*
X87498773Y-33904804D01*
X87522572Y-33910765D01*
X87545671Y-33919030D01*
X87567850Y-33929520D01*
X87588893Y-33942132D01*
X87608599Y-33956747D01*
X87626777Y-33973223D01*
X87643253Y-33991401D01*
X87657868Y-34011107D01*
X87670480Y-34032150D01*
X87680970Y-34054329D01*
X87689235Y-34077428D01*
X87695196Y-34101227D01*
X87698796Y-34125495D01*
X87700000Y-34149999D01*
X87700000Y-34800001D01*
X87698796Y-34824505D01*
X87695196Y-34848773D01*
X87689235Y-34872572D01*
X87680970Y-34895671D01*
X87670480Y-34917850D01*
X87657868Y-34938893D01*
X87643253Y-34958599D01*
X87626777Y-34976777D01*
X87608599Y-34993253D01*
X87588893Y-35007868D01*
X87567850Y-35020480D01*
X87545671Y-35030970D01*
X87522572Y-35039235D01*
X87498773Y-35045196D01*
X87474505Y-35048796D01*
X87450001Y-35050000D01*
X86549999Y-35050000D01*
X86525495Y-35048796D01*
X86501227Y-35045196D01*
X86477428Y-35039235D01*
X86454329Y-35030970D01*
X86432150Y-35020480D01*
X86411107Y-35007868D01*
X86391401Y-34993253D01*
X86373223Y-34976777D01*
X86356747Y-34958599D01*
X86342132Y-34938893D01*
X86329520Y-34917850D01*
X86319030Y-34895671D01*
X86310765Y-34872572D01*
X86304804Y-34848773D01*
X86301204Y-34824505D01*
X86300000Y-34800001D01*
X86300000Y-34149999D01*
X86301204Y-34125495D01*
X86304804Y-34101227D01*
X86310765Y-34077428D01*
X86319030Y-34054329D01*
X86329520Y-34032150D01*
X86342132Y-34011107D01*
X86356747Y-33991401D01*
X86373223Y-33973223D01*
X86391401Y-33956747D01*
X86411107Y-33942132D01*
X86432150Y-33929520D01*
X86454329Y-33919030D01*
X86477428Y-33910765D01*
X86501227Y-33904804D01*
X86525495Y-33901204D01*
X86549999Y-33900000D01*
X87450001Y-33900000D01*
X87474505Y-33901204D01*
X87474505Y-33901204D01*
G37*
D11*
X87000000Y-34475000D03*
D10*
G36*
X87474505Y-35951204D02*
G01*
X87498773Y-35954804D01*
X87522572Y-35960765D01*
X87545671Y-35969030D01*
X87567850Y-35979520D01*
X87588893Y-35992132D01*
X87608599Y-36006747D01*
X87626777Y-36023223D01*
X87643253Y-36041401D01*
X87657868Y-36061107D01*
X87670480Y-36082150D01*
X87680970Y-36104329D01*
X87689235Y-36127428D01*
X87695196Y-36151227D01*
X87698796Y-36175495D01*
X87700000Y-36199999D01*
X87700000Y-36850001D01*
X87698796Y-36874505D01*
X87695196Y-36898773D01*
X87689235Y-36922572D01*
X87680970Y-36945671D01*
X87670480Y-36967850D01*
X87657868Y-36988893D01*
X87643253Y-37008599D01*
X87626777Y-37026777D01*
X87608599Y-37043253D01*
X87588893Y-37057868D01*
X87567850Y-37070480D01*
X87545671Y-37080970D01*
X87522572Y-37089235D01*
X87498773Y-37095196D01*
X87474505Y-37098796D01*
X87450001Y-37100000D01*
X86549999Y-37100000D01*
X86525495Y-37098796D01*
X86501227Y-37095196D01*
X86477428Y-37089235D01*
X86454329Y-37080970D01*
X86432150Y-37070480D01*
X86411107Y-37057868D01*
X86391401Y-37043253D01*
X86373223Y-37026777D01*
X86356747Y-37008599D01*
X86342132Y-36988893D01*
X86329520Y-36967850D01*
X86319030Y-36945671D01*
X86310765Y-36922572D01*
X86304804Y-36898773D01*
X86301204Y-36874505D01*
X86300000Y-36850001D01*
X86300000Y-36199999D01*
X86301204Y-36175495D01*
X86304804Y-36151227D01*
X86310765Y-36127428D01*
X86319030Y-36104329D01*
X86329520Y-36082150D01*
X86342132Y-36061107D01*
X86356747Y-36041401D01*
X86373223Y-36023223D01*
X86391401Y-36006747D01*
X86411107Y-35992132D01*
X86432150Y-35979520D01*
X86454329Y-35969030D01*
X86477428Y-35960765D01*
X86501227Y-35954804D01*
X86525495Y-35951204D01*
X86549999Y-35950000D01*
X87450001Y-35950000D01*
X87474505Y-35951204D01*
X87474505Y-35951204D01*
G37*
D11*
X87000000Y-36525000D03*
D10*
G36*
X94874505Y-30801204D02*
G01*
X94898773Y-30804804D01*
X94922572Y-30810765D01*
X94945671Y-30819030D01*
X94967850Y-30829520D01*
X94988893Y-30842132D01*
X95008599Y-30856747D01*
X95026777Y-30873223D01*
X95043253Y-30891401D01*
X95057868Y-30911107D01*
X95070480Y-30932150D01*
X95080970Y-30954329D01*
X95089235Y-30977428D01*
X95095196Y-31001227D01*
X95098796Y-31025495D01*
X95100000Y-31049999D01*
X95100000Y-31950001D01*
X95098796Y-31974505D01*
X95095196Y-31998773D01*
X95089235Y-32022572D01*
X95080970Y-32045671D01*
X95070480Y-32067850D01*
X95057868Y-32088893D01*
X95043253Y-32108599D01*
X95026777Y-32126777D01*
X95008599Y-32143253D01*
X94988893Y-32157868D01*
X94967850Y-32170480D01*
X94945671Y-32180970D01*
X94922572Y-32189235D01*
X94898773Y-32195196D01*
X94874505Y-32198796D01*
X94850001Y-32200000D01*
X94199999Y-32200000D01*
X94175495Y-32198796D01*
X94151227Y-32195196D01*
X94127428Y-32189235D01*
X94104329Y-32180970D01*
X94082150Y-32170480D01*
X94061107Y-32157868D01*
X94041401Y-32143253D01*
X94023223Y-32126777D01*
X94006747Y-32108599D01*
X93992132Y-32088893D01*
X93979520Y-32067850D01*
X93969030Y-32045671D01*
X93960765Y-32022572D01*
X93954804Y-31998773D01*
X93951204Y-31974505D01*
X93950000Y-31950001D01*
X93950000Y-31049999D01*
X93951204Y-31025495D01*
X93954804Y-31001227D01*
X93960765Y-30977428D01*
X93969030Y-30954329D01*
X93979520Y-30932150D01*
X93992132Y-30911107D01*
X94006747Y-30891401D01*
X94023223Y-30873223D01*
X94041401Y-30856747D01*
X94061107Y-30842132D01*
X94082150Y-30829520D01*
X94104329Y-30819030D01*
X94127428Y-30810765D01*
X94151227Y-30804804D01*
X94175495Y-30801204D01*
X94199999Y-30800000D01*
X94850001Y-30800000D01*
X94874505Y-30801204D01*
X94874505Y-30801204D01*
G37*
D11*
X94525000Y-31500000D03*
D10*
G36*
X92824505Y-30801204D02*
G01*
X92848773Y-30804804D01*
X92872572Y-30810765D01*
X92895671Y-30819030D01*
X92917850Y-30829520D01*
X92938893Y-30842132D01*
X92958599Y-30856747D01*
X92976777Y-30873223D01*
X92993253Y-30891401D01*
X93007868Y-30911107D01*
X93020480Y-30932150D01*
X93030970Y-30954329D01*
X93039235Y-30977428D01*
X93045196Y-31001227D01*
X93048796Y-31025495D01*
X93050000Y-31049999D01*
X93050000Y-31950001D01*
X93048796Y-31974505D01*
X93045196Y-31998773D01*
X93039235Y-32022572D01*
X93030970Y-32045671D01*
X93020480Y-32067850D01*
X93007868Y-32088893D01*
X92993253Y-32108599D01*
X92976777Y-32126777D01*
X92958599Y-32143253D01*
X92938893Y-32157868D01*
X92917850Y-32170480D01*
X92895671Y-32180970D01*
X92872572Y-32189235D01*
X92848773Y-32195196D01*
X92824505Y-32198796D01*
X92800001Y-32200000D01*
X92149999Y-32200000D01*
X92125495Y-32198796D01*
X92101227Y-32195196D01*
X92077428Y-32189235D01*
X92054329Y-32180970D01*
X92032150Y-32170480D01*
X92011107Y-32157868D01*
X91991401Y-32143253D01*
X91973223Y-32126777D01*
X91956747Y-32108599D01*
X91942132Y-32088893D01*
X91929520Y-32067850D01*
X91919030Y-32045671D01*
X91910765Y-32022572D01*
X91904804Y-31998773D01*
X91901204Y-31974505D01*
X91900000Y-31950001D01*
X91900000Y-31049999D01*
X91901204Y-31025495D01*
X91904804Y-31001227D01*
X91910765Y-30977428D01*
X91919030Y-30954329D01*
X91929520Y-30932150D01*
X91942132Y-30911107D01*
X91956747Y-30891401D01*
X91973223Y-30873223D01*
X91991401Y-30856747D01*
X92011107Y-30842132D01*
X92032150Y-30829520D01*
X92054329Y-30819030D01*
X92077428Y-30810765D01*
X92101227Y-30804804D01*
X92125495Y-30801204D01*
X92149999Y-30800000D01*
X92800001Y-30800000D01*
X92824505Y-30801204D01*
X92824505Y-30801204D01*
G37*
D11*
X92475000Y-31500000D03*
D12*
X66200000Y-53800000D03*
D13*
X68740000Y-53800000D03*
X71280000Y-53800000D03*
X73820000Y-53800000D03*
D12*
X65000000Y-30000000D03*
D13*
X67540000Y-30000000D03*
X70080000Y-30000000D03*
X72620000Y-30000000D03*
X75160000Y-30000000D03*
D12*
X102500000Y-59250000D03*
D13*
X99960000Y-59250000D03*
X97420000Y-59250000D03*
X94880000Y-59250000D03*
X92340000Y-59250000D03*
X89800000Y-59250000D03*
X87260000Y-59250000D03*
X84720000Y-59250000D03*
X82180000Y-59250000D03*
D14*
X95500000Y-54750000D03*
X94550000Y-52750000D03*
X96450000Y-52750000D03*
X90400000Y-52750000D03*
X88500000Y-52750000D03*
X89450000Y-54750000D03*
X83500000Y-54750000D03*
X82550000Y-52750000D03*
X84450000Y-52750000D03*
X102500000Y-52750000D03*
X100600000Y-52750000D03*
X101550000Y-54750000D03*
D10*
G36*
X94849505Y-50051204D02*
G01*
X94873773Y-50054804D01*
X94897572Y-50060765D01*
X94920671Y-50069030D01*
X94942850Y-50079520D01*
X94963893Y-50092132D01*
X94983599Y-50106747D01*
X95001777Y-50123223D01*
X95018253Y-50141401D01*
X95032868Y-50161107D01*
X95045480Y-50182150D01*
X95055970Y-50204329D01*
X95064235Y-50227428D01*
X95070196Y-50251227D01*
X95073796Y-50275495D01*
X95075000Y-50299999D01*
X95075000Y-51200001D01*
X95073796Y-51224505D01*
X95070196Y-51248773D01*
X95064235Y-51272572D01*
X95055970Y-51295671D01*
X95045480Y-51317850D01*
X95032868Y-51338893D01*
X95018253Y-51358599D01*
X95001777Y-51376777D01*
X94983599Y-51393253D01*
X94963893Y-51407868D01*
X94942850Y-51420480D01*
X94920671Y-51430970D01*
X94897572Y-51439235D01*
X94873773Y-51445196D01*
X94849505Y-51448796D01*
X94825001Y-51450000D01*
X94174999Y-51450000D01*
X94150495Y-51448796D01*
X94126227Y-51445196D01*
X94102428Y-51439235D01*
X94079329Y-51430970D01*
X94057150Y-51420480D01*
X94036107Y-51407868D01*
X94016401Y-51393253D01*
X93998223Y-51376777D01*
X93981747Y-51358599D01*
X93967132Y-51338893D01*
X93954520Y-51317850D01*
X93944030Y-51295671D01*
X93935765Y-51272572D01*
X93929804Y-51248773D01*
X93926204Y-51224505D01*
X93925000Y-51200001D01*
X93925000Y-50299999D01*
X93926204Y-50275495D01*
X93929804Y-50251227D01*
X93935765Y-50227428D01*
X93944030Y-50204329D01*
X93954520Y-50182150D01*
X93967132Y-50161107D01*
X93981747Y-50141401D01*
X93998223Y-50123223D01*
X94016401Y-50106747D01*
X94036107Y-50092132D01*
X94057150Y-50079520D01*
X94079329Y-50069030D01*
X94102428Y-50060765D01*
X94126227Y-50054804D01*
X94150495Y-50051204D01*
X94174999Y-50050000D01*
X94825001Y-50050000D01*
X94849505Y-50051204D01*
X94849505Y-50051204D01*
G37*
D11*
X94500000Y-50750000D03*
D10*
G36*
X96899505Y-50051204D02*
G01*
X96923773Y-50054804D01*
X96947572Y-50060765D01*
X96970671Y-50069030D01*
X96992850Y-50079520D01*
X97013893Y-50092132D01*
X97033599Y-50106747D01*
X97051777Y-50123223D01*
X97068253Y-50141401D01*
X97082868Y-50161107D01*
X97095480Y-50182150D01*
X97105970Y-50204329D01*
X97114235Y-50227428D01*
X97120196Y-50251227D01*
X97123796Y-50275495D01*
X97125000Y-50299999D01*
X97125000Y-51200001D01*
X97123796Y-51224505D01*
X97120196Y-51248773D01*
X97114235Y-51272572D01*
X97105970Y-51295671D01*
X97095480Y-51317850D01*
X97082868Y-51338893D01*
X97068253Y-51358599D01*
X97051777Y-51376777D01*
X97033599Y-51393253D01*
X97013893Y-51407868D01*
X96992850Y-51420480D01*
X96970671Y-51430970D01*
X96947572Y-51439235D01*
X96923773Y-51445196D01*
X96899505Y-51448796D01*
X96875001Y-51450000D01*
X96224999Y-51450000D01*
X96200495Y-51448796D01*
X96176227Y-51445196D01*
X96152428Y-51439235D01*
X96129329Y-51430970D01*
X96107150Y-51420480D01*
X96086107Y-51407868D01*
X96066401Y-51393253D01*
X96048223Y-51376777D01*
X96031747Y-51358599D01*
X96017132Y-51338893D01*
X96004520Y-51317850D01*
X95994030Y-51295671D01*
X95985765Y-51272572D01*
X95979804Y-51248773D01*
X95976204Y-51224505D01*
X95975000Y-51200001D01*
X95975000Y-50299999D01*
X95976204Y-50275495D01*
X95979804Y-50251227D01*
X95985765Y-50227428D01*
X95994030Y-50204329D01*
X96004520Y-50182150D01*
X96017132Y-50161107D01*
X96031747Y-50141401D01*
X96048223Y-50123223D01*
X96066401Y-50106747D01*
X96086107Y-50092132D01*
X96107150Y-50079520D01*
X96129329Y-50069030D01*
X96152428Y-50060765D01*
X96176227Y-50054804D01*
X96200495Y-50051204D01*
X96224999Y-50050000D01*
X96875001Y-50050000D01*
X96899505Y-50051204D01*
X96899505Y-50051204D01*
G37*
D11*
X96550000Y-50750000D03*
D10*
G36*
X88849505Y-50051204D02*
G01*
X88873773Y-50054804D01*
X88897572Y-50060765D01*
X88920671Y-50069030D01*
X88942850Y-50079520D01*
X88963893Y-50092132D01*
X88983599Y-50106747D01*
X89001777Y-50123223D01*
X89018253Y-50141401D01*
X89032868Y-50161107D01*
X89045480Y-50182150D01*
X89055970Y-50204329D01*
X89064235Y-50227428D01*
X89070196Y-50251227D01*
X89073796Y-50275495D01*
X89075000Y-50299999D01*
X89075000Y-51200001D01*
X89073796Y-51224505D01*
X89070196Y-51248773D01*
X89064235Y-51272572D01*
X89055970Y-51295671D01*
X89045480Y-51317850D01*
X89032868Y-51338893D01*
X89018253Y-51358599D01*
X89001777Y-51376777D01*
X88983599Y-51393253D01*
X88963893Y-51407868D01*
X88942850Y-51420480D01*
X88920671Y-51430970D01*
X88897572Y-51439235D01*
X88873773Y-51445196D01*
X88849505Y-51448796D01*
X88825001Y-51450000D01*
X88174999Y-51450000D01*
X88150495Y-51448796D01*
X88126227Y-51445196D01*
X88102428Y-51439235D01*
X88079329Y-51430970D01*
X88057150Y-51420480D01*
X88036107Y-51407868D01*
X88016401Y-51393253D01*
X87998223Y-51376777D01*
X87981747Y-51358599D01*
X87967132Y-51338893D01*
X87954520Y-51317850D01*
X87944030Y-51295671D01*
X87935765Y-51272572D01*
X87929804Y-51248773D01*
X87926204Y-51224505D01*
X87925000Y-51200001D01*
X87925000Y-50299999D01*
X87926204Y-50275495D01*
X87929804Y-50251227D01*
X87935765Y-50227428D01*
X87944030Y-50204329D01*
X87954520Y-50182150D01*
X87967132Y-50161107D01*
X87981747Y-50141401D01*
X87998223Y-50123223D01*
X88016401Y-50106747D01*
X88036107Y-50092132D01*
X88057150Y-50079520D01*
X88079329Y-50069030D01*
X88102428Y-50060765D01*
X88126227Y-50054804D01*
X88150495Y-50051204D01*
X88174999Y-50050000D01*
X88825001Y-50050000D01*
X88849505Y-50051204D01*
X88849505Y-50051204D01*
G37*
D11*
X88500000Y-50750000D03*
D10*
G36*
X90899505Y-50051204D02*
G01*
X90923773Y-50054804D01*
X90947572Y-50060765D01*
X90970671Y-50069030D01*
X90992850Y-50079520D01*
X91013893Y-50092132D01*
X91033599Y-50106747D01*
X91051777Y-50123223D01*
X91068253Y-50141401D01*
X91082868Y-50161107D01*
X91095480Y-50182150D01*
X91105970Y-50204329D01*
X91114235Y-50227428D01*
X91120196Y-50251227D01*
X91123796Y-50275495D01*
X91125000Y-50299999D01*
X91125000Y-51200001D01*
X91123796Y-51224505D01*
X91120196Y-51248773D01*
X91114235Y-51272572D01*
X91105970Y-51295671D01*
X91095480Y-51317850D01*
X91082868Y-51338893D01*
X91068253Y-51358599D01*
X91051777Y-51376777D01*
X91033599Y-51393253D01*
X91013893Y-51407868D01*
X90992850Y-51420480D01*
X90970671Y-51430970D01*
X90947572Y-51439235D01*
X90923773Y-51445196D01*
X90899505Y-51448796D01*
X90875001Y-51450000D01*
X90224999Y-51450000D01*
X90200495Y-51448796D01*
X90176227Y-51445196D01*
X90152428Y-51439235D01*
X90129329Y-51430970D01*
X90107150Y-51420480D01*
X90086107Y-51407868D01*
X90066401Y-51393253D01*
X90048223Y-51376777D01*
X90031747Y-51358599D01*
X90017132Y-51338893D01*
X90004520Y-51317850D01*
X89994030Y-51295671D01*
X89985765Y-51272572D01*
X89979804Y-51248773D01*
X89976204Y-51224505D01*
X89975000Y-51200001D01*
X89975000Y-50299999D01*
X89976204Y-50275495D01*
X89979804Y-50251227D01*
X89985765Y-50227428D01*
X89994030Y-50204329D01*
X90004520Y-50182150D01*
X90017132Y-50161107D01*
X90031747Y-50141401D01*
X90048223Y-50123223D01*
X90066401Y-50106747D01*
X90086107Y-50092132D01*
X90107150Y-50079520D01*
X90129329Y-50069030D01*
X90152428Y-50060765D01*
X90176227Y-50054804D01*
X90200495Y-50051204D01*
X90224999Y-50050000D01*
X90875001Y-50050000D01*
X90899505Y-50051204D01*
X90899505Y-50051204D01*
G37*
D11*
X90550000Y-50750000D03*
D10*
G36*
X82799505Y-50051204D02*
G01*
X82823773Y-50054804D01*
X82847572Y-50060765D01*
X82870671Y-50069030D01*
X82892850Y-50079520D01*
X82913893Y-50092132D01*
X82933599Y-50106747D01*
X82951777Y-50123223D01*
X82968253Y-50141401D01*
X82982868Y-50161107D01*
X82995480Y-50182150D01*
X83005970Y-50204329D01*
X83014235Y-50227428D01*
X83020196Y-50251227D01*
X83023796Y-50275495D01*
X83025000Y-50299999D01*
X83025000Y-51200001D01*
X83023796Y-51224505D01*
X83020196Y-51248773D01*
X83014235Y-51272572D01*
X83005970Y-51295671D01*
X82995480Y-51317850D01*
X82982868Y-51338893D01*
X82968253Y-51358599D01*
X82951777Y-51376777D01*
X82933599Y-51393253D01*
X82913893Y-51407868D01*
X82892850Y-51420480D01*
X82870671Y-51430970D01*
X82847572Y-51439235D01*
X82823773Y-51445196D01*
X82799505Y-51448796D01*
X82775001Y-51450000D01*
X82124999Y-51450000D01*
X82100495Y-51448796D01*
X82076227Y-51445196D01*
X82052428Y-51439235D01*
X82029329Y-51430970D01*
X82007150Y-51420480D01*
X81986107Y-51407868D01*
X81966401Y-51393253D01*
X81948223Y-51376777D01*
X81931747Y-51358599D01*
X81917132Y-51338893D01*
X81904520Y-51317850D01*
X81894030Y-51295671D01*
X81885765Y-51272572D01*
X81879804Y-51248773D01*
X81876204Y-51224505D01*
X81875000Y-51200001D01*
X81875000Y-50299999D01*
X81876204Y-50275495D01*
X81879804Y-50251227D01*
X81885765Y-50227428D01*
X81894030Y-50204329D01*
X81904520Y-50182150D01*
X81917132Y-50161107D01*
X81931747Y-50141401D01*
X81948223Y-50123223D01*
X81966401Y-50106747D01*
X81986107Y-50092132D01*
X82007150Y-50079520D01*
X82029329Y-50069030D01*
X82052428Y-50060765D01*
X82076227Y-50054804D01*
X82100495Y-50051204D01*
X82124999Y-50050000D01*
X82775001Y-50050000D01*
X82799505Y-50051204D01*
X82799505Y-50051204D01*
G37*
D11*
X82450000Y-50750000D03*
D10*
G36*
X84849505Y-50051204D02*
G01*
X84873773Y-50054804D01*
X84897572Y-50060765D01*
X84920671Y-50069030D01*
X84942850Y-50079520D01*
X84963893Y-50092132D01*
X84983599Y-50106747D01*
X85001777Y-50123223D01*
X85018253Y-50141401D01*
X85032868Y-50161107D01*
X85045480Y-50182150D01*
X85055970Y-50204329D01*
X85064235Y-50227428D01*
X85070196Y-50251227D01*
X85073796Y-50275495D01*
X85075000Y-50299999D01*
X85075000Y-51200001D01*
X85073796Y-51224505D01*
X85070196Y-51248773D01*
X85064235Y-51272572D01*
X85055970Y-51295671D01*
X85045480Y-51317850D01*
X85032868Y-51338893D01*
X85018253Y-51358599D01*
X85001777Y-51376777D01*
X84983599Y-51393253D01*
X84963893Y-51407868D01*
X84942850Y-51420480D01*
X84920671Y-51430970D01*
X84897572Y-51439235D01*
X84873773Y-51445196D01*
X84849505Y-51448796D01*
X84825001Y-51450000D01*
X84174999Y-51450000D01*
X84150495Y-51448796D01*
X84126227Y-51445196D01*
X84102428Y-51439235D01*
X84079329Y-51430970D01*
X84057150Y-51420480D01*
X84036107Y-51407868D01*
X84016401Y-51393253D01*
X83998223Y-51376777D01*
X83981747Y-51358599D01*
X83967132Y-51338893D01*
X83954520Y-51317850D01*
X83944030Y-51295671D01*
X83935765Y-51272572D01*
X83929804Y-51248773D01*
X83926204Y-51224505D01*
X83925000Y-51200001D01*
X83925000Y-50299999D01*
X83926204Y-50275495D01*
X83929804Y-50251227D01*
X83935765Y-50227428D01*
X83944030Y-50204329D01*
X83954520Y-50182150D01*
X83967132Y-50161107D01*
X83981747Y-50141401D01*
X83998223Y-50123223D01*
X84016401Y-50106747D01*
X84036107Y-50092132D01*
X84057150Y-50079520D01*
X84079329Y-50069030D01*
X84102428Y-50060765D01*
X84126227Y-50054804D01*
X84150495Y-50051204D01*
X84174999Y-50050000D01*
X84825001Y-50050000D01*
X84849505Y-50051204D01*
X84849505Y-50051204D01*
G37*
D11*
X84500000Y-50750000D03*
D10*
G36*
X102899505Y-50051204D02*
G01*
X102923773Y-50054804D01*
X102947572Y-50060765D01*
X102970671Y-50069030D01*
X102992850Y-50079520D01*
X103013893Y-50092132D01*
X103033599Y-50106747D01*
X103051777Y-50123223D01*
X103068253Y-50141401D01*
X103082868Y-50161107D01*
X103095480Y-50182150D01*
X103105970Y-50204329D01*
X103114235Y-50227428D01*
X103120196Y-50251227D01*
X103123796Y-50275495D01*
X103125000Y-50299999D01*
X103125000Y-51200001D01*
X103123796Y-51224505D01*
X103120196Y-51248773D01*
X103114235Y-51272572D01*
X103105970Y-51295671D01*
X103095480Y-51317850D01*
X103082868Y-51338893D01*
X103068253Y-51358599D01*
X103051777Y-51376777D01*
X103033599Y-51393253D01*
X103013893Y-51407868D01*
X102992850Y-51420480D01*
X102970671Y-51430970D01*
X102947572Y-51439235D01*
X102923773Y-51445196D01*
X102899505Y-51448796D01*
X102875001Y-51450000D01*
X102224999Y-51450000D01*
X102200495Y-51448796D01*
X102176227Y-51445196D01*
X102152428Y-51439235D01*
X102129329Y-51430970D01*
X102107150Y-51420480D01*
X102086107Y-51407868D01*
X102066401Y-51393253D01*
X102048223Y-51376777D01*
X102031747Y-51358599D01*
X102017132Y-51338893D01*
X102004520Y-51317850D01*
X101994030Y-51295671D01*
X101985765Y-51272572D01*
X101979804Y-51248773D01*
X101976204Y-51224505D01*
X101975000Y-51200001D01*
X101975000Y-50299999D01*
X101976204Y-50275495D01*
X101979804Y-50251227D01*
X101985765Y-50227428D01*
X101994030Y-50204329D01*
X102004520Y-50182150D01*
X102017132Y-50161107D01*
X102031747Y-50141401D01*
X102048223Y-50123223D01*
X102066401Y-50106747D01*
X102086107Y-50092132D01*
X102107150Y-50079520D01*
X102129329Y-50069030D01*
X102152428Y-50060765D01*
X102176227Y-50054804D01*
X102200495Y-50051204D01*
X102224999Y-50050000D01*
X102875001Y-50050000D01*
X102899505Y-50051204D01*
X102899505Y-50051204D01*
G37*
D11*
X102550000Y-50750000D03*
D10*
G36*
X100849505Y-50051204D02*
G01*
X100873773Y-50054804D01*
X100897572Y-50060765D01*
X100920671Y-50069030D01*
X100942850Y-50079520D01*
X100963893Y-50092132D01*
X100983599Y-50106747D01*
X101001777Y-50123223D01*
X101018253Y-50141401D01*
X101032868Y-50161107D01*
X101045480Y-50182150D01*
X101055970Y-50204329D01*
X101064235Y-50227428D01*
X101070196Y-50251227D01*
X101073796Y-50275495D01*
X101075000Y-50299999D01*
X101075000Y-51200001D01*
X101073796Y-51224505D01*
X101070196Y-51248773D01*
X101064235Y-51272572D01*
X101055970Y-51295671D01*
X101045480Y-51317850D01*
X101032868Y-51338893D01*
X101018253Y-51358599D01*
X101001777Y-51376777D01*
X100983599Y-51393253D01*
X100963893Y-51407868D01*
X100942850Y-51420480D01*
X100920671Y-51430970D01*
X100897572Y-51439235D01*
X100873773Y-51445196D01*
X100849505Y-51448796D01*
X100825001Y-51450000D01*
X100174999Y-51450000D01*
X100150495Y-51448796D01*
X100126227Y-51445196D01*
X100102428Y-51439235D01*
X100079329Y-51430970D01*
X100057150Y-51420480D01*
X100036107Y-51407868D01*
X100016401Y-51393253D01*
X99998223Y-51376777D01*
X99981747Y-51358599D01*
X99967132Y-51338893D01*
X99954520Y-51317850D01*
X99944030Y-51295671D01*
X99935765Y-51272572D01*
X99929804Y-51248773D01*
X99926204Y-51224505D01*
X99925000Y-51200001D01*
X99925000Y-50299999D01*
X99926204Y-50275495D01*
X99929804Y-50251227D01*
X99935765Y-50227428D01*
X99944030Y-50204329D01*
X99954520Y-50182150D01*
X99967132Y-50161107D01*
X99981747Y-50141401D01*
X99998223Y-50123223D01*
X100016401Y-50106747D01*
X100036107Y-50092132D01*
X100057150Y-50079520D01*
X100079329Y-50069030D01*
X100102428Y-50060765D01*
X100126227Y-50054804D01*
X100150495Y-50051204D01*
X100174999Y-50050000D01*
X100825001Y-50050000D01*
X100849505Y-50051204D01*
X100849505Y-50051204D01*
G37*
D11*
X100500000Y-50750000D03*
D10*
G36*
X70580505Y-40195204D02*
G01*
X70604773Y-40198804D01*
X70628572Y-40204765D01*
X70651671Y-40213030D01*
X70673850Y-40223520D01*
X70694893Y-40236132D01*
X70714599Y-40250747D01*
X70732777Y-40267223D01*
X70749253Y-40285401D01*
X70763868Y-40305107D01*
X70776480Y-40326150D01*
X70786970Y-40348329D01*
X70795235Y-40371428D01*
X70801196Y-40395227D01*
X70804796Y-40419495D01*
X70806000Y-40443999D01*
X70806000Y-41344001D01*
X70804796Y-41368505D01*
X70801196Y-41392773D01*
X70795235Y-41416572D01*
X70786970Y-41439671D01*
X70776480Y-41461850D01*
X70763868Y-41482893D01*
X70749253Y-41502599D01*
X70732777Y-41520777D01*
X70714599Y-41537253D01*
X70694893Y-41551868D01*
X70673850Y-41564480D01*
X70651671Y-41574970D01*
X70628572Y-41583235D01*
X70604773Y-41589196D01*
X70580505Y-41592796D01*
X70556001Y-41594000D01*
X69905999Y-41594000D01*
X69881495Y-41592796D01*
X69857227Y-41589196D01*
X69833428Y-41583235D01*
X69810329Y-41574970D01*
X69788150Y-41564480D01*
X69767107Y-41551868D01*
X69747401Y-41537253D01*
X69729223Y-41520777D01*
X69712747Y-41502599D01*
X69698132Y-41482893D01*
X69685520Y-41461850D01*
X69675030Y-41439671D01*
X69666765Y-41416572D01*
X69660804Y-41392773D01*
X69657204Y-41368505D01*
X69656000Y-41344001D01*
X69656000Y-40443999D01*
X69657204Y-40419495D01*
X69660804Y-40395227D01*
X69666765Y-40371428D01*
X69675030Y-40348329D01*
X69685520Y-40326150D01*
X69698132Y-40305107D01*
X69712747Y-40285401D01*
X69729223Y-40267223D01*
X69747401Y-40250747D01*
X69767107Y-40236132D01*
X69788150Y-40223520D01*
X69810329Y-40213030D01*
X69833428Y-40204765D01*
X69857227Y-40198804D01*
X69881495Y-40195204D01*
X69905999Y-40194000D01*
X70556001Y-40194000D01*
X70580505Y-40195204D01*
X70580505Y-40195204D01*
G37*
D11*
X70231000Y-40894000D03*
D10*
G36*
X72630505Y-40195204D02*
G01*
X72654773Y-40198804D01*
X72678572Y-40204765D01*
X72701671Y-40213030D01*
X72723850Y-40223520D01*
X72744893Y-40236132D01*
X72764599Y-40250747D01*
X72782777Y-40267223D01*
X72799253Y-40285401D01*
X72813868Y-40305107D01*
X72826480Y-40326150D01*
X72836970Y-40348329D01*
X72845235Y-40371428D01*
X72851196Y-40395227D01*
X72854796Y-40419495D01*
X72856000Y-40443999D01*
X72856000Y-41344001D01*
X72854796Y-41368505D01*
X72851196Y-41392773D01*
X72845235Y-41416572D01*
X72836970Y-41439671D01*
X72826480Y-41461850D01*
X72813868Y-41482893D01*
X72799253Y-41502599D01*
X72782777Y-41520777D01*
X72764599Y-41537253D01*
X72744893Y-41551868D01*
X72723850Y-41564480D01*
X72701671Y-41574970D01*
X72678572Y-41583235D01*
X72654773Y-41589196D01*
X72630505Y-41592796D01*
X72606001Y-41594000D01*
X71955999Y-41594000D01*
X71931495Y-41592796D01*
X71907227Y-41589196D01*
X71883428Y-41583235D01*
X71860329Y-41574970D01*
X71838150Y-41564480D01*
X71817107Y-41551868D01*
X71797401Y-41537253D01*
X71779223Y-41520777D01*
X71762747Y-41502599D01*
X71748132Y-41482893D01*
X71735520Y-41461850D01*
X71725030Y-41439671D01*
X71716765Y-41416572D01*
X71710804Y-41392773D01*
X71707204Y-41368505D01*
X71706000Y-41344001D01*
X71706000Y-40443999D01*
X71707204Y-40419495D01*
X71710804Y-40395227D01*
X71716765Y-40371428D01*
X71725030Y-40348329D01*
X71735520Y-40326150D01*
X71748132Y-40305107D01*
X71762747Y-40285401D01*
X71779223Y-40267223D01*
X71797401Y-40250747D01*
X71817107Y-40236132D01*
X71838150Y-40223520D01*
X71860329Y-40213030D01*
X71883428Y-40204765D01*
X71907227Y-40198804D01*
X71931495Y-40195204D01*
X71955999Y-40194000D01*
X72606001Y-40194000D01*
X72630505Y-40195204D01*
X72630505Y-40195204D01*
G37*
D11*
X72281000Y-40894000D03*
D10*
G36*
X92974505Y-52126204D02*
G01*
X92998773Y-52129804D01*
X93022572Y-52135765D01*
X93045671Y-52144030D01*
X93067850Y-52154520D01*
X93088893Y-52167132D01*
X93108599Y-52181747D01*
X93126777Y-52198223D01*
X93143253Y-52216401D01*
X93157868Y-52236107D01*
X93170480Y-52257150D01*
X93180970Y-52279329D01*
X93189235Y-52302428D01*
X93195196Y-52326227D01*
X93198796Y-52350495D01*
X93200000Y-52374999D01*
X93200000Y-53025001D01*
X93198796Y-53049505D01*
X93195196Y-53073773D01*
X93189235Y-53097572D01*
X93180970Y-53120671D01*
X93170480Y-53142850D01*
X93157868Y-53163893D01*
X93143253Y-53183599D01*
X93126777Y-53201777D01*
X93108599Y-53218253D01*
X93088893Y-53232868D01*
X93067850Y-53245480D01*
X93045671Y-53255970D01*
X93022572Y-53264235D01*
X92998773Y-53270196D01*
X92974505Y-53273796D01*
X92950001Y-53275000D01*
X92049999Y-53275000D01*
X92025495Y-53273796D01*
X92001227Y-53270196D01*
X91977428Y-53264235D01*
X91954329Y-53255970D01*
X91932150Y-53245480D01*
X91911107Y-53232868D01*
X91891401Y-53218253D01*
X91873223Y-53201777D01*
X91856747Y-53183599D01*
X91842132Y-53163893D01*
X91829520Y-53142850D01*
X91819030Y-53120671D01*
X91810765Y-53097572D01*
X91804804Y-53073773D01*
X91801204Y-53049505D01*
X91800000Y-53025001D01*
X91800000Y-52374999D01*
X91801204Y-52350495D01*
X91804804Y-52326227D01*
X91810765Y-52302428D01*
X91819030Y-52279329D01*
X91829520Y-52257150D01*
X91842132Y-52236107D01*
X91856747Y-52216401D01*
X91873223Y-52198223D01*
X91891401Y-52181747D01*
X91911107Y-52167132D01*
X91932150Y-52154520D01*
X91954329Y-52144030D01*
X91977428Y-52135765D01*
X92001227Y-52129804D01*
X92025495Y-52126204D01*
X92049999Y-52125000D01*
X92950001Y-52125000D01*
X92974505Y-52126204D01*
X92974505Y-52126204D01*
G37*
D11*
X92500000Y-52700000D03*
D10*
G36*
X92974505Y-54176204D02*
G01*
X92998773Y-54179804D01*
X93022572Y-54185765D01*
X93045671Y-54194030D01*
X93067850Y-54204520D01*
X93088893Y-54217132D01*
X93108599Y-54231747D01*
X93126777Y-54248223D01*
X93143253Y-54266401D01*
X93157868Y-54286107D01*
X93170480Y-54307150D01*
X93180970Y-54329329D01*
X93189235Y-54352428D01*
X93195196Y-54376227D01*
X93198796Y-54400495D01*
X93200000Y-54424999D01*
X93200000Y-55075001D01*
X93198796Y-55099505D01*
X93195196Y-55123773D01*
X93189235Y-55147572D01*
X93180970Y-55170671D01*
X93170480Y-55192850D01*
X93157868Y-55213893D01*
X93143253Y-55233599D01*
X93126777Y-55251777D01*
X93108599Y-55268253D01*
X93088893Y-55282868D01*
X93067850Y-55295480D01*
X93045671Y-55305970D01*
X93022572Y-55314235D01*
X92998773Y-55320196D01*
X92974505Y-55323796D01*
X92950001Y-55325000D01*
X92049999Y-55325000D01*
X92025495Y-55323796D01*
X92001227Y-55320196D01*
X91977428Y-55314235D01*
X91954329Y-55305970D01*
X91932150Y-55295480D01*
X91911107Y-55282868D01*
X91891401Y-55268253D01*
X91873223Y-55251777D01*
X91856747Y-55233599D01*
X91842132Y-55213893D01*
X91829520Y-55192850D01*
X91819030Y-55170671D01*
X91810765Y-55147572D01*
X91804804Y-55123773D01*
X91801204Y-55099505D01*
X91800000Y-55075001D01*
X91800000Y-54424999D01*
X91801204Y-54400495D01*
X91804804Y-54376227D01*
X91810765Y-54352428D01*
X91819030Y-54329329D01*
X91829520Y-54307150D01*
X91842132Y-54286107D01*
X91856747Y-54266401D01*
X91873223Y-54248223D01*
X91891401Y-54231747D01*
X91911107Y-54217132D01*
X91932150Y-54204520D01*
X91954329Y-54194030D01*
X91977428Y-54185765D01*
X92001227Y-54179804D01*
X92025495Y-54176204D01*
X92049999Y-54175000D01*
X92950001Y-54175000D01*
X92974505Y-54176204D01*
X92974505Y-54176204D01*
G37*
D11*
X92500000Y-54750000D03*
D10*
G36*
X86974505Y-52176204D02*
G01*
X86998773Y-52179804D01*
X87022572Y-52185765D01*
X87045671Y-52194030D01*
X87067850Y-52204520D01*
X87088893Y-52217132D01*
X87108599Y-52231747D01*
X87126777Y-52248223D01*
X87143253Y-52266401D01*
X87157868Y-52286107D01*
X87170480Y-52307150D01*
X87180970Y-52329329D01*
X87189235Y-52352428D01*
X87195196Y-52376227D01*
X87198796Y-52400495D01*
X87200000Y-52424999D01*
X87200000Y-53075001D01*
X87198796Y-53099505D01*
X87195196Y-53123773D01*
X87189235Y-53147572D01*
X87180970Y-53170671D01*
X87170480Y-53192850D01*
X87157868Y-53213893D01*
X87143253Y-53233599D01*
X87126777Y-53251777D01*
X87108599Y-53268253D01*
X87088893Y-53282868D01*
X87067850Y-53295480D01*
X87045671Y-53305970D01*
X87022572Y-53314235D01*
X86998773Y-53320196D01*
X86974505Y-53323796D01*
X86950001Y-53325000D01*
X86049999Y-53325000D01*
X86025495Y-53323796D01*
X86001227Y-53320196D01*
X85977428Y-53314235D01*
X85954329Y-53305970D01*
X85932150Y-53295480D01*
X85911107Y-53282868D01*
X85891401Y-53268253D01*
X85873223Y-53251777D01*
X85856747Y-53233599D01*
X85842132Y-53213893D01*
X85829520Y-53192850D01*
X85819030Y-53170671D01*
X85810765Y-53147572D01*
X85804804Y-53123773D01*
X85801204Y-53099505D01*
X85800000Y-53075001D01*
X85800000Y-52424999D01*
X85801204Y-52400495D01*
X85804804Y-52376227D01*
X85810765Y-52352428D01*
X85819030Y-52329329D01*
X85829520Y-52307150D01*
X85842132Y-52286107D01*
X85856747Y-52266401D01*
X85873223Y-52248223D01*
X85891401Y-52231747D01*
X85911107Y-52217132D01*
X85932150Y-52204520D01*
X85954329Y-52194030D01*
X85977428Y-52185765D01*
X86001227Y-52179804D01*
X86025495Y-52176204D01*
X86049999Y-52175000D01*
X86950001Y-52175000D01*
X86974505Y-52176204D01*
X86974505Y-52176204D01*
G37*
D11*
X86500000Y-52750000D03*
D10*
G36*
X86974505Y-54226204D02*
G01*
X86998773Y-54229804D01*
X87022572Y-54235765D01*
X87045671Y-54244030D01*
X87067850Y-54254520D01*
X87088893Y-54267132D01*
X87108599Y-54281747D01*
X87126777Y-54298223D01*
X87143253Y-54316401D01*
X87157868Y-54336107D01*
X87170480Y-54357150D01*
X87180970Y-54379329D01*
X87189235Y-54402428D01*
X87195196Y-54426227D01*
X87198796Y-54450495D01*
X87200000Y-54474999D01*
X87200000Y-55125001D01*
X87198796Y-55149505D01*
X87195196Y-55173773D01*
X87189235Y-55197572D01*
X87180970Y-55220671D01*
X87170480Y-55242850D01*
X87157868Y-55263893D01*
X87143253Y-55283599D01*
X87126777Y-55301777D01*
X87108599Y-55318253D01*
X87088893Y-55332868D01*
X87067850Y-55345480D01*
X87045671Y-55355970D01*
X87022572Y-55364235D01*
X86998773Y-55370196D01*
X86974505Y-55373796D01*
X86950001Y-55375000D01*
X86049999Y-55375000D01*
X86025495Y-55373796D01*
X86001227Y-55370196D01*
X85977428Y-55364235D01*
X85954329Y-55355970D01*
X85932150Y-55345480D01*
X85911107Y-55332868D01*
X85891401Y-55318253D01*
X85873223Y-55301777D01*
X85856747Y-55283599D01*
X85842132Y-55263893D01*
X85829520Y-55242850D01*
X85819030Y-55220671D01*
X85810765Y-55197572D01*
X85804804Y-55173773D01*
X85801204Y-55149505D01*
X85800000Y-55125001D01*
X85800000Y-54474999D01*
X85801204Y-54450495D01*
X85804804Y-54426227D01*
X85810765Y-54402428D01*
X85819030Y-54379329D01*
X85829520Y-54357150D01*
X85842132Y-54336107D01*
X85856747Y-54316401D01*
X85873223Y-54298223D01*
X85891401Y-54281747D01*
X85911107Y-54267132D01*
X85932150Y-54254520D01*
X85954329Y-54244030D01*
X85977428Y-54235765D01*
X86001227Y-54229804D01*
X86025495Y-54226204D01*
X86049999Y-54225000D01*
X86950001Y-54225000D01*
X86974505Y-54226204D01*
X86974505Y-54226204D01*
G37*
D11*
X86500000Y-54800000D03*
D10*
G36*
X80724505Y-52126204D02*
G01*
X80748773Y-52129804D01*
X80772572Y-52135765D01*
X80795671Y-52144030D01*
X80817850Y-52154520D01*
X80838893Y-52167132D01*
X80858599Y-52181747D01*
X80876777Y-52198223D01*
X80893253Y-52216401D01*
X80907868Y-52236107D01*
X80920480Y-52257150D01*
X80930970Y-52279329D01*
X80939235Y-52302428D01*
X80945196Y-52326227D01*
X80948796Y-52350495D01*
X80950000Y-52374999D01*
X80950000Y-53025001D01*
X80948796Y-53049505D01*
X80945196Y-53073773D01*
X80939235Y-53097572D01*
X80930970Y-53120671D01*
X80920480Y-53142850D01*
X80907868Y-53163893D01*
X80893253Y-53183599D01*
X80876777Y-53201777D01*
X80858599Y-53218253D01*
X80838893Y-53232868D01*
X80817850Y-53245480D01*
X80795671Y-53255970D01*
X80772572Y-53264235D01*
X80748773Y-53270196D01*
X80724505Y-53273796D01*
X80700001Y-53275000D01*
X79799999Y-53275000D01*
X79775495Y-53273796D01*
X79751227Y-53270196D01*
X79727428Y-53264235D01*
X79704329Y-53255970D01*
X79682150Y-53245480D01*
X79661107Y-53232868D01*
X79641401Y-53218253D01*
X79623223Y-53201777D01*
X79606747Y-53183599D01*
X79592132Y-53163893D01*
X79579520Y-53142850D01*
X79569030Y-53120671D01*
X79560765Y-53097572D01*
X79554804Y-53073773D01*
X79551204Y-53049505D01*
X79550000Y-53025001D01*
X79550000Y-52374999D01*
X79551204Y-52350495D01*
X79554804Y-52326227D01*
X79560765Y-52302428D01*
X79569030Y-52279329D01*
X79579520Y-52257150D01*
X79592132Y-52236107D01*
X79606747Y-52216401D01*
X79623223Y-52198223D01*
X79641401Y-52181747D01*
X79661107Y-52167132D01*
X79682150Y-52154520D01*
X79704329Y-52144030D01*
X79727428Y-52135765D01*
X79751227Y-52129804D01*
X79775495Y-52126204D01*
X79799999Y-52125000D01*
X80700001Y-52125000D01*
X80724505Y-52126204D01*
X80724505Y-52126204D01*
G37*
D11*
X80250000Y-52700000D03*
D10*
G36*
X80724505Y-54176204D02*
G01*
X80748773Y-54179804D01*
X80772572Y-54185765D01*
X80795671Y-54194030D01*
X80817850Y-54204520D01*
X80838893Y-54217132D01*
X80858599Y-54231747D01*
X80876777Y-54248223D01*
X80893253Y-54266401D01*
X80907868Y-54286107D01*
X80920480Y-54307150D01*
X80930970Y-54329329D01*
X80939235Y-54352428D01*
X80945196Y-54376227D01*
X80948796Y-54400495D01*
X80950000Y-54424999D01*
X80950000Y-55075001D01*
X80948796Y-55099505D01*
X80945196Y-55123773D01*
X80939235Y-55147572D01*
X80930970Y-55170671D01*
X80920480Y-55192850D01*
X80907868Y-55213893D01*
X80893253Y-55233599D01*
X80876777Y-55251777D01*
X80858599Y-55268253D01*
X80838893Y-55282868D01*
X80817850Y-55295480D01*
X80795671Y-55305970D01*
X80772572Y-55314235D01*
X80748773Y-55320196D01*
X80724505Y-55323796D01*
X80700001Y-55325000D01*
X79799999Y-55325000D01*
X79775495Y-55323796D01*
X79751227Y-55320196D01*
X79727428Y-55314235D01*
X79704329Y-55305970D01*
X79682150Y-55295480D01*
X79661107Y-55282868D01*
X79641401Y-55268253D01*
X79623223Y-55251777D01*
X79606747Y-55233599D01*
X79592132Y-55213893D01*
X79579520Y-55192850D01*
X79569030Y-55170671D01*
X79560765Y-55147572D01*
X79554804Y-55123773D01*
X79551204Y-55099505D01*
X79550000Y-55075001D01*
X79550000Y-54424999D01*
X79551204Y-54400495D01*
X79554804Y-54376227D01*
X79560765Y-54352428D01*
X79569030Y-54329329D01*
X79579520Y-54307150D01*
X79592132Y-54286107D01*
X79606747Y-54266401D01*
X79623223Y-54248223D01*
X79641401Y-54231747D01*
X79661107Y-54217132D01*
X79682150Y-54204520D01*
X79704329Y-54194030D01*
X79727428Y-54185765D01*
X79751227Y-54179804D01*
X79775495Y-54176204D01*
X79799999Y-54175000D01*
X80700001Y-54175000D01*
X80724505Y-54176204D01*
X80724505Y-54176204D01*
G37*
D11*
X80250000Y-54750000D03*
D10*
G36*
X98974505Y-53976204D02*
G01*
X98998773Y-53979804D01*
X99022572Y-53985765D01*
X99045671Y-53994030D01*
X99067850Y-54004520D01*
X99088893Y-54017132D01*
X99108599Y-54031747D01*
X99126777Y-54048223D01*
X99143253Y-54066401D01*
X99157868Y-54086107D01*
X99170480Y-54107150D01*
X99180970Y-54129329D01*
X99189235Y-54152428D01*
X99195196Y-54176227D01*
X99198796Y-54200495D01*
X99200000Y-54224999D01*
X99200000Y-54875001D01*
X99198796Y-54899505D01*
X99195196Y-54923773D01*
X99189235Y-54947572D01*
X99180970Y-54970671D01*
X99170480Y-54992850D01*
X99157868Y-55013893D01*
X99143253Y-55033599D01*
X99126777Y-55051777D01*
X99108599Y-55068253D01*
X99088893Y-55082868D01*
X99067850Y-55095480D01*
X99045671Y-55105970D01*
X99022572Y-55114235D01*
X98998773Y-55120196D01*
X98974505Y-55123796D01*
X98950001Y-55125000D01*
X98049999Y-55125000D01*
X98025495Y-55123796D01*
X98001227Y-55120196D01*
X97977428Y-55114235D01*
X97954329Y-55105970D01*
X97932150Y-55095480D01*
X97911107Y-55082868D01*
X97891401Y-55068253D01*
X97873223Y-55051777D01*
X97856747Y-55033599D01*
X97842132Y-55013893D01*
X97829520Y-54992850D01*
X97819030Y-54970671D01*
X97810765Y-54947572D01*
X97804804Y-54923773D01*
X97801204Y-54899505D01*
X97800000Y-54875001D01*
X97800000Y-54224999D01*
X97801204Y-54200495D01*
X97804804Y-54176227D01*
X97810765Y-54152428D01*
X97819030Y-54129329D01*
X97829520Y-54107150D01*
X97842132Y-54086107D01*
X97856747Y-54066401D01*
X97873223Y-54048223D01*
X97891401Y-54031747D01*
X97911107Y-54017132D01*
X97932150Y-54004520D01*
X97954329Y-53994030D01*
X97977428Y-53985765D01*
X98001227Y-53979804D01*
X98025495Y-53976204D01*
X98049999Y-53975000D01*
X98950001Y-53975000D01*
X98974505Y-53976204D01*
X98974505Y-53976204D01*
G37*
D11*
X98500000Y-54550000D03*
D10*
G36*
X98974505Y-51926204D02*
G01*
X98998773Y-51929804D01*
X99022572Y-51935765D01*
X99045671Y-51944030D01*
X99067850Y-51954520D01*
X99088893Y-51967132D01*
X99108599Y-51981747D01*
X99126777Y-51998223D01*
X99143253Y-52016401D01*
X99157868Y-52036107D01*
X99170480Y-52057150D01*
X99180970Y-52079329D01*
X99189235Y-52102428D01*
X99195196Y-52126227D01*
X99198796Y-52150495D01*
X99200000Y-52174999D01*
X99200000Y-52825001D01*
X99198796Y-52849505D01*
X99195196Y-52873773D01*
X99189235Y-52897572D01*
X99180970Y-52920671D01*
X99170480Y-52942850D01*
X99157868Y-52963893D01*
X99143253Y-52983599D01*
X99126777Y-53001777D01*
X99108599Y-53018253D01*
X99088893Y-53032868D01*
X99067850Y-53045480D01*
X99045671Y-53055970D01*
X99022572Y-53064235D01*
X98998773Y-53070196D01*
X98974505Y-53073796D01*
X98950001Y-53075000D01*
X98049999Y-53075000D01*
X98025495Y-53073796D01*
X98001227Y-53070196D01*
X97977428Y-53064235D01*
X97954329Y-53055970D01*
X97932150Y-53045480D01*
X97911107Y-53032868D01*
X97891401Y-53018253D01*
X97873223Y-53001777D01*
X97856747Y-52983599D01*
X97842132Y-52963893D01*
X97829520Y-52942850D01*
X97819030Y-52920671D01*
X97810765Y-52897572D01*
X97804804Y-52873773D01*
X97801204Y-52849505D01*
X97800000Y-52825001D01*
X97800000Y-52174999D01*
X97801204Y-52150495D01*
X97804804Y-52126227D01*
X97810765Y-52102428D01*
X97819030Y-52079329D01*
X97829520Y-52057150D01*
X97842132Y-52036107D01*
X97856747Y-52016401D01*
X97873223Y-51998223D01*
X97891401Y-51981747D01*
X97911107Y-51967132D01*
X97932150Y-51954520D01*
X97954329Y-51944030D01*
X97977428Y-51935765D01*
X98001227Y-51929804D01*
X98025495Y-51926204D01*
X98049999Y-51925000D01*
X98950001Y-51925000D01*
X98974505Y-51926204D01*
X98974505Y-51926204D01*
G37*
D11*
X98500000Y-52500000D03*
D10*
G36*
X72748505Y-32702204D02*
G01*
X72772773Y-32705804D01*
X72796572Y-32711765D01*
X72819671Y-32720030D01*
X72841850Y-32730520D01*
X72862893Y-32743132D01*
X72882599Y-32757747D01*
X72900777Y-32774223D01*
X72917253Y-32792401D01*
X72931868Y-32812107D01*
X72944480Y-32833150D01*
X72954970Y-32855329D01*
X72963235Y-32878428D01*
X72969196Y-32902227D01*
X72972796Y-32926495D01*
X72974000Y-32950999D01*
X72974000Y-33851001D01*
X72972796Y-33875505D01*
X72969196Y-33899773D01*
X72963235Y-33923572D01*
X72954970Y-33946671D01*
X72944480Y-33968850D01*
X72931868Y-33989893D01*
X72917253Y-34009599D01*
X72900777Y-34027777D01*
X72882599Y-34044253D01*
X72862893Y-34058868D01*
X72841850Y-34071480D01*
X72819671Y-34081970D01*
X72796572Y-34090235D01*
X72772773Y-34096196D01*
X72748505Y-34099796D01*
X72724001Y-34101000D01*
X72073999Y-34101000D01*
X72049495Y-34099796D01*
X72025227Y-34096196D01*
X72001428Y-34090235D01*
X71978329Y-34081970D01*
X71956150Y-34071480D01*
X71935107Y-34058868D01*
X71915401Y-34044253D01*
X71897223Y-34027777D01*
X71880747Y-34009599D01*
X71866132Y-33989893D01*
X71853520Y-33968850D01*
X71843030Y-33946671D01*
X71834765Y-33923572D01*
X71828804Y-33899773D01*
X71825204Y-33875505D01*
X71824000Y-33851001D01*
X71824000Y-32950999D01*
X71825204Y-32926495D01*
X71828804Y-32902227D01*
X71834765Y-32878428D01*
X71843030Y-32855329D01*
X71853520Y-32833150D01*
X71866132Y-32812107D01*
X71880747Y-32792401D01*
X71897223Y-32774223D01*
X71915401Y-32757747D01*
X71935107Y-32743132D01*
X71956150Y-32730520D01*
X71978329Y-32720030D01*
X72001428Y-32711765D01*
X72025227Y-32705804D01*
X72049495Y-32702204D01*
X72073999Y-32701000D01*
X72724001Y-32701000D01*
X72748505Y-32702204D01*
X72748505Y-32702204D01*
G37*
D11*
X72399000Y-33401000D03*
D10*
G36*
X70698505Y-32702204D02*
G01*
X70722773Y-32705804D01*
X70746572Y-32711765D01*
X70769671Y-32720030D01*
X70791850Y-32730520D01*
X70812893Y-32743132D01*
X70832599Y-32757747D01*
X70850777Y-32774223D01*
X70867253Y-32792401D01*
X70881868Y-32812107D01*
X70894480Y-32833150D01*
X70904970Y-32855329D01*
X70913235Y-32878428D01*
X70919196Y-32902227D01*
X70922796Y-32926495D01*
X70924000Y-32950999D01*
X70924000Y-33851001D01*
X70922796Y-33875505D01*
X70919196Y-33899773D01*
X70913235Y-33923572D01*
X70904970Y-33946671D01*
X70894480Y-33968850D01*
X70881868Y-33989893D01*
X70867253Y-34009599D01*
X70850777Y-34027777D01*
X70832599Y-34044253D01*
X70812893Y-34058868D01*
X70791850Y-34071480D01*
X70769671Y-34081970D01*
X70746572Y-34090235D01*
X70722773Y-34096196D01*
X70698505Y-34099796D01*
X70674001Y-34101000D01*
X70023999Y-34101000D01*
X69999495Y-34099796D01*
X69975227Y-34096196D01*
X69951428Y-34090235D01*
X69928329Y-34081970D01*
X69906150Y-34071480D01*
X69885107Y-34058868D01*
X69865401Y-34044253D01*
X69847223Y-34027777D01*
X69830747Y-34009599D01*
X69816132Y-33989893D01*
X69803520Y-33968850D01*
X69793030Y-33946671D01*
X69784765Y-33923572D01*
X69778804Y-33899773D01*
X69775204Y-33875505D01*
X69774000Y-33851001D01*
X69774000Y-32950999D01*
X69775204Y-32926495D01*
X69778804Y-32902227D01*
X69784765Y-32878428D01*
X69793030Y-32855329D01*
X69803520Y-32833150D01*
X69816132Y-32812107D01*
X69830747Y-32792401D01*
X69847223Y-32774223D01*
X69865401Y-32757747D01*
X69885107Y-32743132D01*
X69906150Y-32730520D01*
X69928329Y-32720030D01*
X69951428Y-32711765D01*
X69975227Y-32705804D01*
X69999495Y-32702204D01*
X70023999Y-32701000D01*
X70674001Y-32701000D01*
X70698505Y-32702204D01*
X70698505Y-32702204D01*
G37*
D11*
X70349000Y-33401000D03*
D15*
X92000000Y-40550000D03*
D16*
X92000000Y-34250000D03*
X89700000Y-34250000D03*
X94300000Y-34250000D03*
D17*
X80615001Y-32275001D03*
D18*
X80615001Y-29735001D03*
D17*
X80615001Y-34815001D03*
X80615001Y-37355001D03*
X80615001Y-39895001D03*
X80615001Y-42435001D03*
X80615001Y-44975001D03*
X80615001Y-47515001D03*
X103475001Y-47515001D03*
X103475001Y-44975001D03*
X103475001Y-42435001D03*
X103475001Y-39895001D03*
X103475001Y-37355001D03*
X103475001Y-34815001D03*
X103475001Y-32275001D03*
X103475001Y-29735001D03*
D19*
X65151000Y-41021000D03*
D20*
X67691000Y-33401000D03*
X67691000Y-41021000D03*
X65151000Y-33401000D03*
D21*
X70000000Y-58000000D03*
D22*
X66190000Y-58000000D03*
D23*
X92600000Y-48800000D03*
X88400000Y-48600000D03*
D24*
X85876628Y-53373372D02*
X86500000Y-52750000D01*
X85275001Y-53974999D02*
X85876628Y-53373372D01*
X81524999Y-53974999D02*
X85275001Y-53974999D01*
X80250000Y-52700000D02*
X81524999Y-53974999D01*
X91876628Y-53323372D02*
X92500000Y-52700000D01*
X87550000Y-53800000D02*
X91400000Y-53800000D01*
X91400000Y-53800000D02*
X91876628Y-53323372D01*
X86500000Y-52750000D02*
X87550000Y-53800000D01*
X85010000Y-57000000D02*
X79000000Y-57000000D01*
X87260000Y-59250000D02*
X85010000Y-57000000D01*
X79000000Y-57000000D02*
X78800000Y-56800000D01*
X78800000Y-56800000D02*
X78800000Y-54150000D01*
X78800000Y-54150000D02*
X80250000Y-52700000D01*
D25*
X87250000Y-34250000D02*
X87000000Y-34500000D01*
X89700000Y-34250000D02*
X87250000Y-34250000D01*
X66190000Y-59767314D02*
X67422686Y-61000000D01*
X66190000Y-58000000D02*
X66190000Y-59767314D01*
X85510000Y-61000000D02*
X87260000Y-59250000D01*
X67422686Y-61000000D02*
X85510000Y-61000000D01*
X86376628Y-33876628D02*
X87000000Y-34500000D01*
X86114991Y-33614991D02*
X86376628Y-33876628D01*
X75160000Y-30000000D02*
X78774991Y-33614991D01*
X78972910Y-33614991D02*
X79415009Y-33614991D01*
X78774991Y-33614991D02*
X79415009Y-33614991D01*
X79415009Y-33614991D02*
X86114991Y-33614991D01*
X63574990Y-28425010D02*
X73585010Y-28425010D01*
X62925010Y-29074990D02*
X63574990Y-28425010D01*
X73585010Y-28425010D02*
X75160000Y-30000000D01*
X66190000Y-58000000D02*
X62925010Y-54735010D01*
X62925010Y-54735010D02*
X62925010Y-29074990D01*
X68740000Y-55090320D02*
X68740000Y-53800000D01*
X70000000Y-58000000D02*
X70000000Y-56350320D01*
X70000000Y-56350320D02*
X68740000Y-55090320D01*
X68740000Y-53800000D02*
X68740000Y-46710000D01*
X86200000Y-36550000D02*
X87000000Y-36550000D01*
X85804991Y-36154991D02*
X86200000Y-36550000D01*
X80057921Y-36154991D02*
X85804991Y-36154991D01*
X102075001Y-44975001D02*
X99441000Y-42341000D01*
X103475001Y-44975001D02*
X102075001Y-44975001D01*
X99441000Y-36941000D02*
X97000000Y-34500000D01*
X99441000Y-42341000D02*
X99441000Y-36941000D01*
X96750000Y-34250000D02*
X97000000Y-34500000D01*
X94300000Y-34250000D02*
X96750000Y-34250000D01*
X94300000Y-34500000D02*
X94300000Y-34250000D01*
D24*
X94300000Y-32225000D02*
X94525000Y-32000000D01*
X94300000Y-34250000D02*
X94300000Y-32225000D01*
X93499990Y-30474990D02*
X93901628Y-30876628D01*
X91911820Y-30474990D02*
X93499990Y-30474990D01*
X93901628Y-30876628D02*
X94525000Y-31500000D01*
X90924999Y-31461811D02*
X91911820Y-30474990D01*
X90924999Y-35360003D02*
X90924999Y-31461811D01*
X90710001Y-35575001D02*
X90924999Y-35360003D01*
X87949999Y-35575001D02*
X90710001Y-35575001D01*
X87000000Y-36525000D02*
X87949999Y-35575001D01*
D25*
X71980000Y-33580000D02*
X72000000Y-33600000D01*
D24*
X71657628Y-41517372D02*
X71657628Y-43792372D01*
X71657628Y-43792372D02*
X68740000Y-46710000D01*
X72281000Y-40894000D02*
X71657628Y-41517372D01*
D25*
X77303930Y-33401000D02*
X78974465Y-35071535D01*
X72399000Y-33401000D02*
X77303930Y-33401000D01*
X77502930Y-33600000D02*
X78974465Y-35071535D01*
X78974465Y-35071535D02*
X80057921Y-36154991D01*
X72399000Y-30221000D02*
X72620000Y-30000000D01*
X67540000Y-31202081D02*
X68087919Y-31750000D01*
X67540000Y-30000000D02*
X67540000Y-31202081D01*
X70401256Y-31741000D02*
X72399000Y-31741000D01*
X70392256Y-31750000D02*
X70401256Y-31741000D01*
X68087919Y-31750000D02*
X70392256Y-31750000D01*
X72399000Y-33401000D02*
X72399000Y-31741000D01*
X72399000Y-31741000D02*
X72399000Y-30221000D01*
D24*
X100484999Y-47515001D02*
X103475001Y-47515001D01*
X98500000Y-52500000D02*
X98500000Y-51825000D01*
X98500000Y-51825000D02*
X98600000Y-51725000D01*
D25*
X102075001Y-47515001D02*
X103475001Y-47515001D01*
X92000000Y-41950000D02*
X97565001Y-47515001D01*
X92000000Y-40550000D02*
X92000000Y-41950000D01*
D24*
X98500000Y-47530002D02*
X98515001Y-47515001D01*
D25*
X97565001Y-47515001D02*
X98515001Y-47515001D01*
X98515001Y-47515001D02*
X102075001Y-47515001D01*
D24*
X90975001Y-60425001D02*
X90649999Y-60099999D01*
X97984001Y-60425001D02*
X90975001Y-60425001D01*
X98595001Y-59814001D02*
X97984001Y-60425001D01*
X98595001Y-58685999D02*
X98595001Y-59814001D01*
X97474990Y-57565988D02*
X98595001Y-58685999D01*
X90649999Y-60099999D02*
X89800000Y-59250000D01*
X97474990Y-53986820D02*
X97474990Y-57565988D01*
X98500000Y-52961810D02*
X97474990Y-53986820D01*
X98500000Y-52500000D02*
X98500000Y-52961810D01*
D25*
X92000000Y-40550000D02*
X93000000Y-40550000D01*
D24*
X92000000Y-40550000D02*
X92000000Y-34250000D01*
X92000000Y-32475000D02*
X92475000Y-32000000D01*
X92000000Y-34250000D02*
X92000000Y-32475000D01*
X84450000Y-50800000D02*
X84500000Y-50750000D01*
X84450000Y-52750000D02*
X84450000Y-50800000D01*
X96450000Y-50850000D02*
X96550000Y-50750000D01*
X96450000Y-52750000D02*
X96450000Y-50850000D01*
X102500000Y-50800000D02*
X102550000Y-50750000D01*
X102500000Y-52750000D02*
X102500000Y-50800000D01*
X90550000Y-47580002D02*
X90484999Y-47515001D01*
X90484999Y-47515001D02*
X93315001Y-47515001D01*
X84500000Y-50750000D02*
X84500000Y-47530002D01*
X84500000Y-47530002D02*
X84484999Y-47515001D01*
X80615001Y-47515001D02*
X84484999Y-47515001D01*
X84484999Y-47515001D02*
X90484999Y-47515001D01*
X102550000Y-50750000D02*
X100400000Y-48600000D01*
X94400000Y-48600000D02*
X93900000Y-48100000D01*
X93315001Y-47515001D02*
X93900000Y-48100000D01*
X100400000Y-48600000D02*
X94400000Y-48600000D01*
X93900000Y-48100000D02*
X96550000Y-50750000D01*
X90550000Y-49750000D02*
X90550000Y-50750000D01*
X90400000Y-50900000D02*
X90550000Y-50750000D01*
X90400000Y-52750000D02*
X90400000Y-50900000D01*
X90550000Y-50750000D02*
X90550000Y-47580002D01*
D25*
X65151000Y-30151000D02*
X65000000Y-30000000D01*
X65151000Y-33401000D02*
X65151000Y-30151000D01*
D24*
X99960000Y-59250000D02*
X99960000Y-57640000D01*
X101550000Y-56050000D02*
X101550000Y-54750000D01*
X99960000Y-57640000D02*
X101550000Y-56050000D01*
X101350000Y-54550000D02*
X101550000Y-54750000D01*
X98500000Y-54550000D02*
X101350000Y-54550000D01*
X95500000Y-54750000D02*
X92500000Y-54750000D01*
X95500000Y-57330000D02*
X97420000Y-59250000D01*
X95500000Y-54750000D02*
X95500000Y-57330000D01*
X86550000Y-54750000D02*
X86500000Y-54800000D01*
X89450000Y-54750000D02*
X86550000Y-54750000D01*
X89450000Y-54800000D02*
X91450000Y-56800000D01*
X89450000Y-54750000D02*
X89450000Y-54800000D01*
X92430000Y-56800000D02*
X94880000Y-59250000D01*
X91450000Y-56800000D02*
X92430000Y-56800000D01*
X83500000Y-54750000D02*
X80250000Y-54750000D01*
X83500000Y-54800000D02*
X85100000Y-56400000D01*
X83500000Y-54750000D02*
X83500000Y-54800000D01*
X89490000Y-56400000D02*
X92340000Y-59250000D01*
X85100000Y-56400000D02*
X89490000Y-56400000D01*
D25*
X82180000Y-59250000D02*
X78050000Y-59250000D01*
X78050000Y-59250000D02*
X76600000Y-57800000D01*
X76600000Y-57800000D02*
X76600000Y-40405000D01*
X76600000Y-40405000D02*
X76600000Y-40200000D01*
X76600000Y-39652000D02*
X76600000Y-40405000D01*
X70349000Y-33401000D02*
X76600000Y-39652000D01*
X70349000Y-33401000D02*
X67691000Y-33401000D01*
D24*
X94550000Y-50800000D02*
X94500000Y-50750000D01*
X94550000Y-52750000D02*
X94550000Y-50800000D01*
X94500000Y-50750000D02*
X92600000Y-48850000D01*
X92600000Y-48850000D02*
X92600000Y-48800000D01*
X88500000Y-48700000D02*
X88400000Y-48600000D01*
X88500000Y-52750000D02*
X88500000Y-50750000D01*
X88500000Y-50750000D02*
X88500000Y-48700000D01*
X82550000Y-50850000D02*
X82450000Y-50750000D01*
X82550000Y-52750000D02*
X82550000Y-50850000D01*
X82450000Y-50750000D02*
X80550000Y-50750000D01*
X80550000Y-50750000D02*
X78200000Y-48400000D01*
X78200000Y-44650002D02*
X80415001Y-42435001D01*
X80415001Y-42435001D02*
X80615001Y-42435001D01*
X78200000Y-48400000D02*
X78200000Y-44650002D01*
X100600000Y-50850000D02*
X100500000Y-50750000D01*
X100600000Y-52750000D02*
X100600000Y-50850000D01*
X100600000Y-52800000D02*
X100600000Y-52750000D01*
X101325001Y-53525001D02*
X100600000Y-52800000D01*
X103160001Y-53525001D02*
X101325001Y-53525001D01*
X104800011Y-51884991D02*
X103160001Y-53525001D01*
X104800011Y-41020011D02*
X104800011Y-51884991D01*
X103675001Y-39895001D02*
X104800011Y-41020011D01*
X103475001Y-39895001D02*
X103675001Y-39895001D01*
X70104000Y-41021000D02*
X70231000Y-40894000D01*
X67691000Y-41021000D02*
X70104000Y-41021000D01*
M02*
