G04 #@! TF.GenerationSoftware,KiCad,Pcbnew,5.1.2*
G04 #@! TF.CreationDate,2019-05-06T20:04:11+02:00*
G04 #@! TF.ProjectId,controlboard,636f6e74-726f-46c6-926f-6172642e6b69,rev?*
G04 #@! TF.SameCoordinates,Original*
G04 #@! TF.FileFunction,Soldermask,Top*
G04 #@! TF.FilePolarity,Negative*
%FSLAX46Y46*%
G04 Gerber Fmt 4.6, Leading zero omitted, Abs format (unit mm)*
G04 Created by KiCad (PCBNEW 5.1.2) date 2019-05-06 20:04:11*
%MOMM*%
%LPD*%
G04 APERTURE LIST*
%ADD10C,0.100000*%
G04 APERTURE END LIST*
D10*
G36*
X82290443Y-58355519D02*
G01*
X82356627Y-58362037D01*
X82526466Y-58413557D01*
X82682991Y-58497222D01*
X82718729Y-58526552D01*
X82820186Y-58609814D01*
X82903448Y-58711271D01*
X82932778Y-58747009D01*
X83016443Y-58903534D01*
X83067963Y-59073373D01*
X83085359Y-59250000D01*
X83067963Y-59426627D01*
X83016443Y-59596466D01*
X82932778Y-59752991D01*
X82903448Y-59788729D01*
X82820186Y-59890186D01*
X82718729Y-59973448D01*
X82682991Y-60002778D01*
X82526466Y-60086443D01*
X82356627Y-60137963D01*
X82290442Y-60144482D01*
X82224260Y-60151000D01*
X82135740Y-60151000D01*
X82069558Y-60144482D01*
X82003373Y-60137963D01*
X81833534Y-60086443D01*
X81677009Y-60002778D01*
X81641271Y-59973448D01*
X81539814Y-59890186D01*
X81456552Y-59788729D01*
X81427222Y-59752991D01*
X81343557Y-59596466D01*
X81292037Y-59426627D01*
X81274641Y-59250000D01*
X81292037Y-59073373D01*
X81343557Y-58903534D01*
X81427222Y-58747009D01*
X81456552Y-58711271D01*
X81539814Y-58609814D01*
X81641271Y-58526552D01*
X81677009Y-58497222D01*
X81833534Y-58413557D01*
X82003373Y-58362037D01*
X82069557Y-58355519D01*
X82135740Y-58349000D01*
X82224260Y-58349000D01*
X82290443Y-58355519D01*
X82290443Y-58355519D01*
G37*
G36*
X84830443Y-58355519D02*
G01*
X84896627Y-58362037D01*
X85066466Y-58413557D01*
X85222991Y-58497222D01*
X85258729Y-58526552D01*
X85360186Y-58609814D01*
X85443448Y-58711271D01*
X85472778Y-58747009D01*
X85556443Y-58903534D01*
X85607963Y-59073373D01*
X85625359Y-59250000D01*
X85607963Y-59426627D01*
X85556443Y-59596466D01*
X85472778Y-59752991D01*
X85443448Y-59788729D01*
X85360186Y-59890186D01*
X85258729Y-59973448D01*
X85222991Y-60002778D01*
X85066466Y-60086443D01*
X84896627Y-60137963D01*
X84830442Y-60144482D01*
X84764260Y-60151000D01*
X84675740Y-60151000D01*
X84609558Y-60144482D01*
X84543373Y-60137963D01*
X84373534Y-60086443D01*
X84217009Y-60002778D01*
X84181271Y-59973448D01*
X84079814Y-59890186D01*
X83996552Y-59788729D01*
X83967222Y-59752991D01*
X83883557Y-59596466D01*
X83832037Y-59426627D01*
X83814641Y-59250000D01*
X83832037Y-59073373D01*
X83883557Y-58903534D01*
X83967222Y-58747009D01*
X83996552Y-58711271D01*
X84079814Y-58609814D01*
X84181271Y-58526552D01*
X84217009Y-58497222D01*
X84373534Y-58413557D01*
X84543373Y-58362037D01*
X84609557Y-58355519D01*
X84675740Y-58349000D01*
X84764260Y-58349000D01*
X84830443Y-58355519D01*
X84830443Y-58355519D01*
G37*
G36*
X87370443Y-58355519D02*
G01*
X87436627Y-58362037D01*
X87606466Y-58413557D01*
X87762991Y-58497222D01*
X87798729Y-58526552D01*
X87900186Y-58609814D01*
X87983448Y-58711271D01*
X88012778Y-58747009D01*
X88096443Y-58903534D01*
X88147963Y-59073373D01*
X88165359Y-59250000D01*
X88147963Y-59426627D01*
X88096443Y-59596466D01*
X88012778Y-59752991D01*
X87983448Y-59788729D01*
X87900186Y-59890186D01*
X87798729Y-59973448D01*
X87762991Y-60002778D01*
X87606466Y-60086443D01*
X87436627Y-60137963D01*
X87370442Y-60144482D01*
X87304260Y-60151000D01*
X87215740Y-60151000D01*
X87149558Y-60144482D01*
X87083373Y-60137963D01*
X86913534Y-60086443D01*
X86757009Y-60002778D01*
X86721271Y-59973448D01*
X86619814Y-59890186D01*
X86536552Y-59788729D01*
X86507222Y-59752991D01*
X86423557Y-59596466D01*
X86372037Y-59426627D01*
X86354641Y-59250000D01*
X86372037Y-59073373D01*
X86423557Y-58903534D01*
X86507222Y-58747009D01*
X86536552Y-58711271D01*
X86619814Y-58609814D01*
X86721271Y-58526552D01*
X86757009Y-58497222D01*
X86913534Y-58413557D01*
X87083373Y-58362037D01*
X87149557Y-58355519D01*
X87215740Y-58349000D01*
X87304260Y-58349000D01*
X87370443Y-58355519D01*
X87370443Y-58355519D01*
G37*
G36*
X89910443Y-58355519D02*
G01*
X89976627Y-58362037D01*
X90146466Y-58413557D01*
X90302991Y-58497222D01*
X90338729Y-58526552D01*
X90440186Y-58609814D01*
X90523448Y-58711271D01*
X90552778Y-58747009D01*
X90636443Y-58903534D01*
X90687963Y-59073373D01*
X90705359Y-59250000D01*
X90687963Y-59426627D01*
X90636443Y-59596466D01*
X90552778Y-59752991D01*
X90523448Y-59788729D01*
X90440186Y-59890186D01*
X90338729Y-59973448D01*
X90302991Y-60002778D01*
X90146466Y-60086443D01*
X89976627Y-60137963D01*
X89910442Y-60144482D01*
X89844260Y-60151000D01*
X89755740Y-60151000D01*
X89689558Y-60144482D01*
X89623373Y-60137963D01*
X89453534Y-60086443D01*
X89297009Y-60002778D01*
X89261271Y-59973448D01*
X89159814Y-59890186D01*
X89076552Y-59788729D01*
X89047222Y-59752991D01*
X88963557Y-59596466D01*
X88912037Y-59426627D01*
X88894641Y-59250000D01*
X88912037Y-59073373D01*
X88963557Y-58903534D01*
X89047222Y-58747009D01*
X89076552Y-58711271D01*
X89159814Y-58609814D01*
X89261271Y-58526552D01*
X89297009Y-58497222D01*
X89453534Y-58413557D01*
X89623373Y-58362037D01*
X89689557Y-58355519D01*
X89755740Y-58349000D01*
X89844260Y-58349000D01*
X89910443Y-58355519D01*
X89910443Y-58355519D01*
G37*
G36*
X92450443Y-58355519D02*
G01*
X92516627Y-58362037D01*
X92686466Y-58413557D01*
X92842991Y-58497222D01*
X92878729Y-58526552D01*
X92980186Y-58609814D01*
X93063448Y-58711271D01*
X93092778Y-58747009D01*
X93176443Y-58903534D01*
X93227963Y-59073373D01*
X93245359Y-59250000D01*
X93227963Y-59426627D01*
X93176443Y-59596466D01*
X93092778Y-59752991D01*
X93063448Y-59788729D01*
X92980186Y-59890186D01*
X92878729Y-59973448D01*
X92842991Y-60002778D01*
X92686466Y-60086443D01*
X92516627Y-60137963D01*
X92450442Y-60144482D01*
X92384260Y-60151000D01*
X92295740Y-60151000D01*
X92229558Y-60144482D01*
X92163373Y-60137963D01*
X91993534Y-60086443D01*
X91837009Y-60002778D01*
X91801271Y-59973448D01*
X91699814Y-59890186D01*
X91616552Y-59788729D01*
X91587222Y-59752991D01*
X91503557Y-59596466D01*
X91452037Y-59426627D01*
X91434641Y-59250000D01*
X91452037Y-59073373D01*
X91503557Y-58903534D01*
X91587222Y-58747009D01*
X91616552Y-58711271D01*
X91699814Y-58609814D01*
X91801271Y-58526552D01*
X91837009Y-58497222D01*
X91993534Y-58413557D01*
X92163373Y-58362037D01*
X92229557Y-58355519D01*
X92295740Y-58349000D01*
X92384260Y-58349000D01*
X92450443Y-58355519D01*
X92450443Y-58355519D01*
G37*
G36*
X94990443Y-58355519D02*
G01*
X95056627Y-58362037D01*
X95226466Y-58413557D01*
X95382991Y-58497222D01*
X95418729Y-58526552D01*
X95520186Y-58609814D01*
X95603448Y-58711271D01*
X95632778Y-58747009D01*
X95716443Y-58903534D01*
X95767963Y-59073373D01*
X95785359Y-59250000D01*
X95767963Y-59426627D01*
X95716443Y-59596466D01*
X95632778Y-59752991D01*
X95603448Y-59788729D01*
X95520186Y-59890186D01*
X95418729Y-59973448D01*
X95382991Y-60002778D01*
X95226466Y-60086443D01*
X95056627Y-60137963D01*
X94990442Y-60144482D01*
X94924260Y-60151000D01*
X94835740Y-60151000D01*
X94769558Y-60144482D01*
X94703373Y-60137963D01*
X94533534Y-60086443D01*
X94377009Y-60002778D01*
X94341271Y-59973448D01*
X94239814Y-59890186D01*
X94156552Y-59788729D01*
X94127222Y-59752991D01*
X94043557Y-59596466D01*
X93992037Y-59426627D01*
X93974641Y-59250000D01*
X93992037Y-59073373D01*
X94043557Y-58903534D01*
X94127222Y-58747009D01*
X94156552Y-58711271D01*
X94239814Y-58609814D01*
X94341271Y-58526552D01*
X94377009Y-58497222D01*
X94533534Y-58413557D01*
X94703373Y-58362037D01*
X94769557Y-58355519D01*
X94835740Y-58349000D01*
X94924260Y-58349000D01*
X94990443Y-58355519D01*
X94990443Y-58355519D01*
G37*
G36*
X97530443Y-58355519D02*
G01*
X97596627Y-58362037D01*
X97766466Y-58413557D01*
X97922991Y-58497222D01*
X97958729Y-58526552D01*
X98060186Y-58609814D01*
X98143448Y-58711271D01*
X98172778Y-58747009D01*
X98256443Y-58903534D01*
X98307963Y-59073373D01*
X98325359Y-59250000D01*
X98307963Y-59426627D01*
X98256443Y-59596466D01*
X98172778Y-59752991D01*
X98143448Y-59788729D01*
X98060186Y-59890186D01*
X97958729Y-59973448D01*
X97922991Y-60002778D01*
X97766466Y-60086443D01*
X97596627Y-60137963D01*
X97530442Y-60144482D01*
X97464260Y-60151000D01*
X97375740Y-60151000D01*
X97309558Y-60144482D01*
X97243373Y-60137963D01*
X97073534Y-60086443D01*
X96917009Y-60002778D01*
X96881271Y-59973448D01*
X96779814Y-59890186D01*
X96696552Y-59788729D01*
X96667222Y-59752991D01*
X96583557Y-59596466D01*
X96532037Y-59426627D01*
X96514641Y-59250000D01*
X96532037Y-59073373D01*
X96583557Y-58903534D01*
X96667222Y-58747009D01*
X96696552Y-58711271D01*
X96779814Y-58609814D01*
X96881271Y-58526552D01*
X96917009Y-58497222D01*
X97073534Y-58413557D01*
X97243373Y-58362037D01*
X97309557Y-58355519D01*
X97375740Y-58349000D01*
X97464260Y-58349000D01*
X97530443Y-58355519D01*
X97530443Y-58355519D01*
G37*
G36*
X100070443Y-58355519D02*
G01*
X100136627Y-58362037D01*
X100306466Y-58413557D01*
X100462991Y-58497222D01*
X100498729Y-58526552D01*
X100600186Y-58609814D01*
X100683448Y-58711271D01*
X100712778Y-58747009D01*
X100796443Y-58903534D01*
X100847963Y-59073373D01*
X100865359Y-59250000D01*
X100847963Y-59426627D01*
X100796443Y-59596466D01*
X100712778Y-59752991D01*
X100683448Y-59788729D01*
X100600186Y-59890186D01*
X100498729Y-59973448D01*
X100462991Y-60002778D01*
X100306466Y-60086443D01*
X100136627Y-60137963D01*
X100070442Y-60144482D01*
X100004260Y-60151000D01*
X99915740Y-60151000D01*
X99849558Y-60144482D01*
X99783373Y-60137963D01*
X99613534Y-60086443D01*
X99457009Y-60002778D01*
X99421271Y-59973448D01*
X99319814Y-59890186D01*
X99236552Y-59788729D01*
X99207222Y-59752991D01*
X99123557Y-59596466D01*
X99072037Y-59426627D01*
X99054641Y-59250000D01*
X99072037Y-59073373D01*
X99123557Y-58903534D01*
X99207222Y-58747009D01*
X99236552Y-58711271D01*
X99319814Y-58609814D01*
X99421271Y-58526552D01*
X99457009Y-58497222D01*
X99613534Y-58413557D01*
X99783373Y-58362037D01*
X99849557Y-58355519D01*
X99915740Y-58349000D01*
X100004260Y-58349000D01*
X100070443Y-58355519D01*
X100070443Y-58355519D01*
G37*
G36*
X103401000Y-60151000D02*
G01*
X101599000Y-60151000D01*
X101599000Y-58349000D01*
X103401000Y-58349000D01*
X103401000Y-60151000D01*
X103401000Y-60151000D01*
G37*
G36*
X71300680Y-59300680D02*
G01*
X68699320Y-59300680D01*
X68699320Y-56699320D01*
X71300680Y-56699320D01*
X71300680Y-59300680D01*
X71300680Y-59300680D01*
G37*
G36*
X66569393Y-56749304D02*
G01*
X66806101Y-56847352D01*
X66806103Y-56847353D01*
X67019135Y-56989696D01*
X67200304Y-57170865D01*
X67342647Y-57383897D01*
X67342648Y-57383899D01*
X67440696Y-57620607D01*
X67490680Y-57871893D01*
X67490680Y-58128107D01*
X67440696Y-58379393D01*
X67391889Y-58497222D01*
X67342647Y-58616103D01*
X67200304Y-58829135D01*
X67019135Y-59010304D01*
X66806103Y-59152647D01*
X66806102Y-59152648D01*
X66806101Y-59152648D01*
X66569393Y-59250696D01*
X66318107Y-59300680D01*
X66061893Y-59300680D01*
X65810607Y-59250696D01*
X65573899Y-59152648D01*
X65573898Y-59152648D01*
X65573897Y-59152647D01*
X65360865Y-59010304D01*
X65179696Y-58829135D01*
X65037353Y-58616103D01*
X64988111Y-58497222D01*
X64939304Y-58379393D01*
X64889320Y-58128107D01*
X64889320Y-57871893D01*
X64939304Y-57620607D01*
X65037352Y-57383899D01*
X65037353Y-57383897D01*
X65179696Y-57170865D01*
X65360865Y-56989696D01*
X65573897Y-56847353D01*
X65573899Y-56847352D01*
X65810607Y-56749304D01*
X66061893Y-56699320D01*
X66318107Y-56699320D01*
X66569393Y-56749304D01*
X66569393Y-56749304D01*
G37*
G36*
X87088674Y-54178465D02*
G01*
X87126367Y-54189899D01*
X87161103Y-54208466D01*
X87191548Y-54233452D01*
X87216534Y-54263897D01*
X87235101Y-54298633D01*
X87246535Y-54336326D01*
X87251000Y-54381661D01*
X87251000Y-55218339D01*
X87246535Y-55263674D01*
X87235101Y-55301367D01*
X87216534Y-55336103D01*
X87191548Y-55366548D01*
X87161103Y-55391534D01*
X87126367Y-55410101D01*
X87088674Y-55421535D01*
X87043339Y-55426000D01*
X85956661Y-55426000D01*
X85911326Y-55421535D01*
X85873633Y-55410101D01*
X85838897Y-55391534D01*
X85808452Y-55366548D01*
X85783466Y-55336103D01*
X85764899Y-55301367D01*
X85753465Y-55263674D01*
X85749000Y-55218339D01*
X85749000Y-54381661D01*
X85753465Y-54336326D01*
X85764899Y-54298633D01*
X85783466Y-54263897D01*
X85808452Y-54233452D01*
X85838897Y-54208466D01*
X85873633Y-54189899D01*
X85911326Y-54178465D01*
X85956661Y-54174000D01*
X87043339Y-54174000D01*
X87088674Y-54178465D01*
X87088674Y-54178465D01*
G37*
G36*
X80838674Y-54128465D02*
G01*
X80876367Y-54139899D01*
X80911103Y-54158466D01*
X80941548Y-54183452D01*
X80966534Y-54213897D01*
X80985101Y-54248633D01*
X80996535Y-54286326D01*
X81001000Y-54331661D01*
X81001000Y-55168339D01*
X80996535Y-55213674D01*
X80985101Y-55251367D01*
X80966534Y-55286103D01*
X80941548Y-55316548D01*
X80911103Y-55341534D01*
X80876367Y-55360101D01*
X80838674Y-55371535D01*
X80793339Y-55376000D01*
X79706661Y-55376000D01*
X79661326Y-55371535D01*
X79623633Y-55360101D01*
X79588897Y-55341534D01*
X79558452Y-55316548D01*
X79533466Y-55286103D01*
X79514899Y-55251367D01*
X79503465Y-55213674D01*
X79499000Y-55168339D01*
X79499000Y-54331661D01*
X79503465Y-54286326D01*
X79514899Y-54248633D01*
X79533466Y-54213897D01*
X79558452Y-54183452D01*
X79588897Y-54158466D01*
X79623633Y-54139899D01*
X79661326Y-54128465D01*
X79706661Y-54124000D01*
X80793339Y-54124000D01*
X80838674Y-54128465D01*
X80838674Y-54128465D01*
G37*
G36*
X93088674Y-54128465D02*
G01*
X93126367Y-54139899D01*
X93161103Y-54158466D01*
X93191548Y-54183452D01*
X93216534Y-54213897D01*
X93235101Y-54248633D01*
X93246535Y-54286326D01*
X93251000Y-54331661D01*
X93251000Y-55168339D01*
X93246535Y-55213674D01*
X93235101Y-55251367D01*
X93216534Y-55286103D01*
X93191548Y-55316548D01*
X93161103Y-55341534D01*
X93126367Y-55360101D01*
X93088674Y-55371535D01*
X93043339Y-55376000D01*
X91956661Y-55376000D01*
X91911326Y-55371535D01*
X91873633Y-55360101D01*
X91838897Y-55341534D01*
X91808452Y-55316548D01*
X91783466Y-55286103D01*
X91764899Y-55251367D01*
X91753465Y-55213674D01*
X91749000Y-55168339D01*
X91749000Y-54331661D01*
X91753465Y-54286326D01*
X91764899Y-54248633D01*
X91783466Y-54213897D01*
X91808452Y-54183452D01*
X91838897Y-54158466D01*
X91873633Y-54139899D01*
X91911326Y-54128465D01*
X91956661Y-54124000D01*
X93043339Y-54124000D01*
X93088674Y-54128465D01*
X93088674Y-54128465D01*
G37*
G36*
X95951000Y-55251000D02*
G01*
X95049000Y-55251000D01*
X95049000Y-54249000D01*
X95951000Y-54249000D01*
X95951000Y-55251000D01*
X95951000Y-55251000D01*
G37*
G36*
X102001000Y-55251000D02*
G01*
X101099000Y-55251000D01*
X101099000Y-54249000D01*
X102001000Y-54249000D01*
X102001000Y-55251000D01*
X102001000Y-55251000D01*
G37*
G36*
X89901000Y-55251000D02*
G01*
X88999000Y-55251000D01*
X88999000Y-54249000D01*
X89901000Y-54249000D01*
X89901000Y-55251000D01*
X89901000Y-55251000D01*
G37*
G36*
X83951000Y-55251000D02*
G01*
X83049000Y-55251000D01*
X83049000Y-54249000D01*
X83951000Y-54249000D01*
X83951000Y-55251000D01*
X83951000Y-55251000D01*
G37*
G36*
X99088674Y-53928465D02*
G01*
X99126367Y-53939899D01*
X99161103Y-53958466D01*
X99191548Y-53983452D01*
X99216534Y-54013897D01*
X99235101Y-54048633D01*
X99246535Y-54086326D01*
X99251000Y-54131661D01*
X99251000Y-54968339D01*
X99246535Y-55013674D01*
X99235101Y-55051367D01*
X99216534Y-55086103D01*
X99191548Y-55116548D01*
X99161103Y-55141534D01*
X99126367Y-55160101D01*
X99088674Y-55171535D01*
X99043339Y-55176000D01*
X97956661Y-55176000D01*
X97911326Y-55171535D01*
X97873633Y-55160101D01*
X97838897Y-55141534D01*
X97808452Y-55116548D01*
X97783466Y-55086103D01*
X97764899Y-55051367D01*
X97753465Y-55013674D01*
X97749000Y-54968339D01*
X97749000Y-54131661D01*
X97753465Y-54086326D01*
X97764899Y-54048633D01*
X97783466Y-54013897D01*
X97808452Y-53983452D01*
X97838897Y-53958466D01*
X97873633Y-53939899D01*
X97911326Y-53928465D01*
X97956661Y-53924000D01*
X99043339Y-53924000D01*
X99088674Y-53928465D01*
X99088674Y-53928465D01*
G37*
G36*
X73930443Y-52905519D02*
G01*
X73996627Y-52912037D01*
X74166466Y-52963557D01*
X74322991Y-53047222D01*
X74358729Y-53076552D01*
X74460186Y-53159814D01*
X74531147Y-53246282D01*
X74572778Y-53297009D01*
X74656443Y-53453534D01*
X74707963Y-53623373D01*
X74725359Y-53800000D01*
X74707963Y-53976627D01*
X74656443Y-54146466D01*
X74572778Y-54302991D01*
X74549249Y-54331661D01*
X74460186Y-54440186D01*
X74358729Y-54523448D01*
X74322991Y-54552778D01*
X74166466Y-54636443D01*
X73996627Y-54687963D01*
X73930443Y-54694481D01*
X73864260Y-54701000D01*
X73775740Y-54701000D01*
X73709557Y-54694481D01*
X73643373Y-54687963D01*
X73473534Y-54636443D01*
X73317009Y-54552778D01*
X73281271Y-54523448D01*
X73179814Y-54440186D01*
X73090751Y-54331661D01*
X73067222Y-54302991D01*
X72983557Y-54146466D01*
X72932037Y-53976627D01*
X72914641Y-53800000D01*
X72932037Y-53623373D01*
X72983557Y-53453534D01*
X73067222Y-53297009D01*
X73108853Y-53246282D01*
X73179814Y-53159814D01*
X73281271Y-53076552D01*
X73317009Y-53047222D01*
X73473534Y-52963557D01*
X73643373Y-52912037D01*
X73709557Y-52905519D01*
X73775740Y-52899000D01*
X73864260Y-52899000D01*
X73930443Y-52905519D01*
X73930443Y-52905519D01*
G37*
G36*
X67101000Y-54701000D02*
G01*
X65299000Y-54701000D01*
X65299000Y-52899000D01*
X67101000Y-52899000D01*
X67101000Y-54701000D01*
X67101000Y-54701000D01*
G37*
G36*
X68850443Y-52905519D02*
G01*
X68916627Y-52912037D01*
X69086466Y-52963557D01*
X69242991Y-53047222D01*
X69278729Y-53076552D01*
X69380186Y-53159814D01*
X69451147Y-53246282D01*
X69492778Y-53297009D01*
X69576443Y-53453534D01*
X69627963Y-53623373D01*
X69645359Y-53800000D01*
X69627963Y-53976627D01*
X69576443Y-54146466D01*
X69492778Y-54302991D01*
X69469249Y-54331661D01*
X69380186Y-54440186D01*
X69278729Y-54523448D01*
X69242991Y-54552778D01*
X69086466Y-54636443D01*
X68916627Y-54687963D01*
X68850443Y-54694481D01*
X68784260Y-54701000D01*
X68695740Y-54701000D01*
X68629557Y-54694481D01*
X68563373Y-54687963D01*
X68393534Y-54636443D01*
X68237009Y-54552778D01*
X68201271Y-54523448D01*
X68099814Y-54440186D01*
X68010751Y-54331661D01*
X67987222Y-54302991D01*
X67903557Y-54146466D01*
X67852037Y-53976627D01*
X67834641Y-53800000D01*
X67852037Y-53623373D01*
X67903557Y-53453534D01*
X67987222Y-53297009D01*
X68028853Y-53246282D01*
X68099814Y-53159814D01*
X68201271Y-53076552D01*
X68237009Y-53047222D01*
X68393534Y-52963557D01*
X68563373Y-52912037D01*
X68629557Y-52905519D01*
X68695740Y-52899000D01*
X68784260Y-52899000D01*
X68850443Y-52905519D01*
X68850443Y-52905519D01*
G37*
G36*
X71390443Y-52905519D02*
G01*
X71456627Y-52912037D01*
X71626466Y-52963557D01*
X71782991Y-53047222D01*
X71818729Y-53076552D01*
X71920186Y-53159814D01*
X71991147Y-53246282D01*
X72032778Y-53297009D01*
X72116443Y-53453534D01*
X72167963Y-53623373D01*
X72185359Y-53800000D01*
X72167963Y-53976627D01*
X72116443Y-54146466D01*
X72032778Y-54302991D01*
X72009249Y-54331661D01*
X71920186Y-54440186D01*
X71818729Y-54523448D01*
X71782991Y-54552778D01*
X71626466Y-54636443D01*
X71456627Y-54687963D01*
X71390443Y-54694481D01*
X71324260Y-54701000D01*
X71235740Y-54701000D01*
X71169557Y-54694481D01*
X71103373Y-54687963D01*
X70933534Y-54636443D01*
X70777009Y-54552778D01*
X70741271Y-54523448D01*
X70639814Y-54440186D01*
X70550751Y-54331661D01*
X70527222Y-54302991D01*
X70443557Y-54146466D01*
X70392037Y-53976627D01*
X70374641Y-53800000D01*
X70392037Y-53623373D01*
X70443557Y-53453534D01*
X70527222Y-53297009D01*
X70568853Y-53246282D01*
X70639814Y-53159814D01*
X70741271Y-53076552D01*
X70777009Y-53047222D01*
X70933534Y-52963557D01*
X71103373Y-52912037D01*
X71169557Y-52905519D01*
X71235740Y-52899000D01*
X71324260Y-52899000D01*
X71390443Y-52905519D01*
X71390443Y-52905519D01*
G37*
G36*
X87088674Y-52128465D02*
G01*
X87126367Y-52139899D01*
X87161103Y-52158466D01*
X87191548Y-52183452D01*
X87216534Y-52213897D01*
X87235101Y-52248633D01*
X87246535Y-52286326D01*
X87251000Y-52331661D01*
X87251000Y-53168339D01*
X87246535Y-53213674D01*
X87235101Y-53251367D01*
X87216534Y-53286103D01*
X87191548Y-53316548D01*
X87161103Y-53341534D01*
X87126367Y-53360101D01*
X87088674Y-53371535D01*
X87043339Y-53376000D01*
X85956661Y-53376000D01*
X85911326Y-53371535D01*
X85873633Y-53360101D01*
X85838897Y-53341534D01*
X85808452Y-53316548D01*
X85783466Y-53286103D01*
X85764899Y-53251367D01*
X85753465Y-53213674D01*
X85749000Y-53168339D01*
X85749000Y-52331661D01*
X85753465Y-52286326D01*
X85764899Y-52248633D01*
X85783466Y-52213897D01*
X85808452Y-52183452D01*
X85838897Y-52158466D01*
X85873633Y-52139899D01*
X85911326Y-52128465D01*
X85956661Y-52124000D01*
X87043339Y-52124000D01*
X87088674Y-52128465D01*
X87088674Y-52128465D01*
G37*
G36*
X93088674Y-52078465D02*
G01*
X93126367Y-52089899D01*
X93161103Y-52108466D01*
X93191548Y-52133452D01*
X93216534Y-52163897D01*
X93235101Y-52198633D01*
X93246535Y-52236326D01*
X93251000Y-52281661D01*
X93251000Y-53118339D01*
X93246535Y-53163674D01*
X93235101Y-53201367D01*
X93216534Y-53236103D01*
X93191548Y-53266548D01*
X93161103Y-53291534D01*
X93126367Y-53310101D01*
X93088674Y-53321535D01*
X93043339Y-53326000D01*
X91956661Y-53326000D01*
X91911326Y-53321535D01*
X91873633Y-53310101D01*
X91838897Y-53291534D01*
X91808452Y-53266548D01*
X91783466Y-53236103D01*
X91764899Y-53201367D01*
X91753465Y-53163674D01*
X91749000Y-53118339D01*
X91749000Y-52281661D01*
X91753465Y-52236326D01*
X91764899Y-52198633D01*
X91783466Y-52163897D01*
X91808452Y-52133452D01*
X91838897Y-52108466D01*
X91873633Y-52089899D01*
X91911326Y-52078465D01*
X91956661Y-52074000D01*
X93043339Y-52074000D01*
X93088674Y-52078465D01*
X93088674Y-52078465D01*
G37*
G36*
X80838674Y-52078465D02*
G01*
X80876367Y-52089899D01*
X80911103Y-52108466D01*
X80941548Y-52133452D01*
X80966534Y-52163897D01*
X80985101Y-52198633D01*
X80996535Y-52236326D01*
X81001000Y-52281661D01*
X81001000Y-53118339D01*
X80996535Y-53163674D01*
X80985101Y-53201367D01*
X80966534Y-53236103D01*
X80941548Y-53266548D01*
X80911103Y-53291534D01*
X80876367Y-53310101D01*
X80838674Y-53321535D01*
X80793339Y-53326000D01*
X79706661Y-53326000D01*
X79661326Y-53321535D01*
X79623633Y-53310101D01*
X79588897Y-53291534D01*
X79558452Y-53266548D01*
X79533466Y-53236103D01*
X79514899Y-53201367D01*
X79503465Y-53163674D01*
X79499000Y-53118339D01*
X79499000Y-52281661D01*
X79503465Y-52236326D01*
X79514899Y-52198633D01*
X79533466Y-52163897D01*
X79558452Y-52133452D01*
X79588897Y-52108466D01*
X79623633Y-52089899D01*
X79661326Y-52078465D01*
X79706661Y-52074000D01*
X80793339Y-52074000D01*
X80838674Y-52078465D01*
X80838674Y-52078465D01*
G37*
G36*
X88951000Y-53251000D02*
G01*
X88049000Y-53251000D01*
X88049000Y-52249000D01*
X88951000Y-52249000D01*
X88951000Y-53251000D01*
X88951000Y-53251000D01*
G37*
G36*
X83001000Y-53251000D02*
G01*
X82099000Y-53251000D01*
X82099000Y-52249000D01*
X83001000Y-52249000D01*
X83001000Y-53251000D01*
X83001000Y-53251000D01*
G37*
G36*
X84901000Y-53251000D02*
G01*
X83999000Y-53251000D01*
X83999000Y-52249000D01*
X84901000Y-52249000D01*
X84901000Y-53251000D01*
X84901000Y-53251000D01*
G37*
G36*
X101051000Y-53251000D02*
G01*
X100149000Y-53251000D01*
X100149000Y-52249000D01*
X101051000Y-52249000D01*
X101051000Y-53251000D01*
X101051000Y-53251000D01*
G37*
G36*
X95001000Y-53251000D02*
G01*
X94099000Y-53251000D01*
X94099000Y-52249000D01*
X95001000Y-52249000D01*
X95001000Y-53251000D01*
X95001000Y-53251000D01*
G37*
G36*
X96901000Y-53251000D02*
G01*
X95999000Y-53251000D01*
X95999000Y-52249000D01*
X96901000Y-52249000D01*
X96901000Y-53251000D01*
X96901000Y-53251000D01*
G37*
G36*
X90851000Y-53251000D02*
G01*
X89949000Y-53251000D01*
X89949000Y-52249000D01*
X90851000Y-52249000D01*
X90851000Y-53251000D01*
X90851000Y-53251000D01*
G37*
G36*
X102951000Y-53251000D02*
G01*
X102049000Y-53251000D01*
X102049000Y-52249000D01*
X102951000Y-52249000D01*
X102951000Y-53251000D01*
X102951000Y-53251000D01*
G37*
G36*
X99088674Y-51878465D02*
G01*
X99126367Y-51889899D01*
X99161103Y-51908466D01*
X99191548Y-51933452D01*
X99216534Y-51963897D01*
X99235101Y-51998633D01*
X99246535Y-52036326D01*
X99251000Y-52081661D01*
X99251000Y-52918339D01*
X99246535Y-52963674D01*
X99235101Y-53001367D01*
X99216534Y-53036103D01*
X99191548Y-53066548D01*
X99161103Y-53091534D01*
X99126367Y-53110101D01*
X99088674Y-53121535D01*
X99043339Y-53126000D01*
X97956661Y-53126000D01*
X97911326Y-53121535D01*
X97873633Y-53110101D01*
X97838897Y-53091534D01*
X97808452Y-53066548D01*
X97783466Y-53036103D01*
X97764899Y-53001367D01*
X97753465Y-52963674D01*
X97749000Y-52918339D01*
X97749000Y-52081661D01*
X97753465Y-52036326D01*
X97764899Y-51998633D01*
X97783466Y-51963897D01*
X97808452Y-51933452D01*
X97838897Y-51908466D01*
X97873633Y-51889899D01*
X97911326Y-51878465D01*
X97956661Y-51874000D01*
X99043339Y-51874000D01*
X99088674Y-51878465D01*
X99088674Y-51878465D01*
G37*
G36*
X103013674Y-50003465D02*
G01*
X103051367Y-50014899D01*
X103086103Y-50033466D01*
X103116548Y-50058452D01*
X103141534Y-50088897D01*
X103160101Y-50123633D01*
X103171535Y-50161326D01*
X103176000Y-50206661D01*
X103176000Y-51293339D01*
X103171535Y-51338674D01*
X103160101Y-51376367D01*
X103141534Y-51411103D01*
X103116548Y-51441548D01*
X103086103Y-51466534D01*
X103051367Y-51485101D01*
X103013674Y-51496535D01*
X102968339Y-51501000D01*
X102131661Y-51501000D01*
X102086326Y-51496535D01*
X102048633Y-51485101D01*
X102013897Y-51466534D01*
X101983452Y-51441548D01*
X101958466Y-51411103D01*
X101939899Y-51376367D01*
X101928465Y-51338674D01*
X101924000Y-51293339D01*
X101924000Y-50206661D01*
X101928465Y-50161326D01*
X101939899Y-50123633D01*
X101958466Y-50088897D01*
X101983452Y-50058452D01*
X102013897Y-50033466D01*
X102048633Y-50014899D01*
X102086326Y-50003465D01*
X102131661Y-49999000D01*
X102968339Y-49999000D01*
X103013674Y-50003465D01*
X103013674Y-50003465D01*
G37*
G36*
X97013674Y-50003465D02*
G01*
X97051367Y-50014899D01*
X97086103Y-50033466D01*
X97116548Y-50058452D01*
X97141534Y-50088897D01*
X97160101Y-50123633D01*
X97171535Y-50161326D01*
X97176000Y-50206661D01*
X97176000Y-51293339D01*
X97171535Y-51338674D01*
X97160101Y-51376367D01*
X97141534Y-51411103D01*
X97116548Y-51441548D01*
X97086103Y-51466534D01*
X97051367Y-51485101D01*
X97013674Y-51496535D01*
X96968339Y-51501000D01*
X96131661Y-51501000D01*
X96086326Y-51496535D01*
X96048633Y-51485101D01*
X96013897Y-51466534D01*
X95983452Y-51441548D01*
X95958466Y-51411103D01*
X95939899Y-51376367D01*
X95928465Y-51338674D01*
X95924000Y-51293339D01*
X95924000Y-50206661D01*
X95928465Y-50161326D01*
X95939899Y-50123633D01*
X95958466Y-50088897D01*
X95983452Y-50058452D01*
X96013897Y-50033466D01*
X96048633Y-50014899D01*
X96086326Y-50003465D01*
X96131661Y-49999000D01*
X96968339Y-49999000D01*
X97013674Y-50003465D01*
X97013674Y-50003465D01*
G37*
G36*
X94963674Y-50003465D02*
G01*
X95001367Y-50014899D01*
X95036103Y-50033466D01*
X95066548Y-50058452D01*
X95091534Y-50088897D01*
X95110101Y-50123633D01*
X95121535Y-50161326D01*
X95126000Y-50206661D01*
X95126000Y-51293339D01*
X95121535Y-51338674D01*
X95110101Y-51376367D01*
X95091534Y-51411103D01*
X95066548Y-51441548D01*
X95036103Y-51466534D01*
X95001367Y-51485101D01*
X94963674Y-51496535D01*
X94918339Y-51501000D01*
X94081661Y-51501000D01*
X94036326Y-51496535D01*
X93998633Y-51485101D01*
X93963897Y-51466534D01*
X93933452Y-51441548D01*
X93908466Y-51411103D01*
X93889899Y-51376367D01*
X93878465Y-51338674D01*
X93874000Y-51293339D01*
X93874000Y-50206661D01*
X93878465Y-50161326D01*
X93889899Y-50123633D01*
X93908466Y-50088897D01*
X93933452Y-50058452D01*
X93963897Y-50033466D01*
X93998633Y-50014899D01*
X94036326Y-50003465D01*
X94081661Y-49999000D01*
X94918339Y-49999000D01*
X94963674Y-50003465D01*
X94963674Y-50003465D01*
G37*
G36*
X91013674Y-50003465D02*
G01*
X91051367Y-50014899D01*
X91086103Y-50033466D01*
X91116548Y-50058452D01*
X91141534Y-50088897D01*
X91160101Y-50123633D01*
X91171535Y-50161326D01*
X91176000Y-50206661D01*
X91176000Y-51293339D01*
X91171535Y-51338674D01*
X91160101Y-51376367D01*
X91141534Y-51411103D01*
X91116548Y-51441548D01*
X91086103Y-51466534D01*
X91051367Y-51485101D01*
X91013674Y-51496535D01*
X90968339Y-51501000D01*
X90131661Y-51501000D01*
X90086326Y-51496535D01*
X90048633Y-51485101D01*
X90013897Y-51466534D01*
X89983452Y-51441548D01*
X89958466Y-51411103D01*
X89939899Y-51376367D01*
X89928465Y-51338674D01*
X89924000Y-51293339D01*
X89924000Y-50206661D01*
X89928465Y-50161326D01*
X89939899Y-50123633D01*
X89958466Y-50088897D01*
X89983452Y-50058452D01*
X90013897Y-50033466D01*
X90048633Y-50014899D01*
X90086326Y-50003465D01*
X90131661Y-49999000D01*
X90968339Y-49999000D01*
X91013674Y-50003465D01*
X91013674Y-50003465D01*
G37*
G36*
X84963674Y-50003465D02*
G01*
X85001367Y-50014899D01*
X85036103Y-50033466D01*
X85066548Y-50058452D01*
X85091534Y-50088897D01*
X85110101Y-50123633D01*
X85121535Y-50161326D01*
X85126000Y-50206661D01*
X85126000Y-51293339D01*
X85121535Y-51338674D01*
X85110101Y-51376367D01*
X85091534Y-51411103D01*
X85066548Y-51441548D01*
X85036103Y-51466534D01*
X85001367Y-51485101D01*
X84963674Y-51496535D01*
X84918339Y-51501000D01*
X84081661Y-51501000D01*
X84036326Y-51496535D01*
X83998633Y-51485101D01*
X83963897Y-51466534D01*
X83933452Y-51441548D01*
X83908466Y-51411103D01*
X83889899Y-51376367D01*
X83878465Y-51338674D01*
X83874000Y-51293339D01*
X83874000Y-50206661D01*
X83878465Y-50161326D01*
X83889899Y-50123633D01*
X83908466Y-50088897D01*
X83933452Y-50058452D01*
X83963897Y-50033466D01*
X83998633Y-50014899D01*
X84036326Y-50003465D01*
X84081661Y-49999000D01*
X84918339Y-49999000D01*
X84963674Y-50003465D01*
X84963674Y-50003465D01*
G37*
G36*
X88963674Y-50003465D02*
G01*
X89001367Y-50014899D01*
X89036103Y-50033466D01*
X89066548Y-50058452D01*
X89091534Y-50088897D01*
X89110101Y-50123633D01*
X89121535Y-50161326D01*
X89126000Y-50206661D01*
X89126000Y-51293339D01*
X89121535Y-51338674D01*
X89110101Y-51376367D01*
X89091534Y-51411103D01*
X89066548Y-51441548D01*
X89036103Y-51466534D01*
X89001367Y-51485101D01*
X88963674Y-51496535D01*
X88918339Y-51501000D01*
X88081661Y-51501000D01*
X88036326Y-51496535D01*
X87998633Y-51485101D01*
X87963897Y-51466534D01*
X87933452Y-51441548D01*
X87908466Y-51411103D01*
X87889899Y-51376367D01*
X87878465Y-51338674D01*
X87874000Y-51293339D01*
X87874000Y-50206661D01*
X87878465Y-50161326D01*
X87889899Y-50123633D01*
X87908466Y-50088897D01*
X87933452Y-50058452D01*
X87963897Y-50033466D01*
X87998633Y-50014899D01*
X88036326Y-50003465D01*
X88081661Y-49999000D01*
X88918339Y-49999000D01*
X88963674Y-50003465D01*
X88963674Y-50003465D01*
G37*
G36*
X100963674Y-50003465D02*
G01*
X101001367Y-50014899D01*
X101036103Y-50033466D01*
X101066548Y-50058452D01*
X101091534Y-50088897D01*
X101110101Y-50123633D01*
X101121535Y-50161326D01*
X101126000Y-50206661D01*
X101126000Y-51293339D01*
X101121535Y-51338674D01*
X101110101Y-51376367D01*
X101091534Y-51411103D01*
X101066548Y-51441548D01*
X101036103Y-51466534D01*
X101001367Y-51485101D01*
X100963674Y-51496535D01*
X100918339Y-51501000D01*
X100081661Y-51501000D01*
X100036326Y-51496535D01*
X99998633Y-51485101D01*
X99963897Y-51466534D01*
X99933452Y-51441548D01*
X99908466Y-51411103D01*
X99889899Y-51376367D01*
X99878465Y-51338674D01*
X99874000Y-51293339D01*
X99874000Y-50206661D01*
X99878465Y-50161326D01*
X99889899Y-50123633D01*
X99908466Y-50088897D01*
X99933452Y-50058452D01*
X99963897Y-50033466D01*
X99998633Y-50014899D01*
X100036326Y-50003465D01*
X100081661Y-49999000D01*
X100918339Y-49999000D01*
X100963674Y-50003465D01*
X100963674Y-50003465D01*
G37*
G36*
X82913674Y-50003465D02*
G01*
X82951367Y-50014899D01*
X82986103Y-50033466D01*
X83016548Y-50058452D01*
X83041534Y-50088897D01*
X83060101Y-50123633D01*
X83071535Y-50161326D01*
X83076000Y-50206661D01*
X83076000Y-51293339D01*
X83071535Y-51338674D01*
X83060101Y-51376367D01*
X83041534Y-51411103D01*
X83016548Y-51441548D01*
X82986103Y-51466534D01*
X82951367Y-51485101D01*
X82913674Y-51496535D01*
X82868339Y-51501000D01*
X82031661Y-51501000D01*
X81986326Y-51496535D01*
X81948633Y-51485101D01*
X81913897Y-51466534D01*
X81883452Y-51441548D01*
X81858466Y-51411103D01*
X81839899Y-51376367D01*
X81828465Y-51338674D01*
X81824000Y-51293339D01*
X81824000Y-50206661D01*
X81828465Y-50161326D01*
X81839899Y-50123633D01*
X81858466Y-50088897D01*
X81883452Y-50058452D01*
X81913897Y-50033466D01*
X81948633Y-50014899D01*
X81986326Y-50003465D01*
X82031661Y-49999000D01*
X82868339Y-49999000D01*
X82913674Y-50003465D01*
X82913674Y-50003465D01*
G37*
G36*
X66375256Y-46391298D02*
G01*
X66481579Y-46412447D01*
X66782042Y-46536903D01*
X67052451Y-46717585D01*
X67282415Y-46947549D01*
X67463097Y-47217958D01*
X67587553Y-47518421D01*
X67651000Y-47837391D01*
X67651000Y-48162609D01*
X67587553Y-48481579D01*
X67463097Y-48782042D01*
X67282415Y-49052451D01*
X67052451Y-49282415D01*
X66782042Y-49463097D01*
X66481579Y-49587553D01*
X66375256Y-49608702D01*
X66162611Y-49651000D01*
X65837389Y-49651000D01*
X65624744Y-49608702D01*
X65518421Y-49587553D01*
X65217958Y-49463097D01*
X64947549Y-49282415D01*
X64717585Y-49052451D01*
X64536903Y-48782042D01*
X64412447Y-48481579D01*
X64349000Y-48162609D01*
X64349000Y-47837391D01*
X64412447Y-47518421D01*
X64536903Y-47217958D01*
X64717585Y-46947549D01*
X64947549Y-46717585D01*
X65217958Y-46536903D01*
X65518421Y-46412447D01*
X65624744Y-46391298D01*
X65837389Y-46349000D01*
X66162611Y-46349000D01*
X66375256Y-46391298D01*
X66375256Y-46391298D01*
G37*
G36*
X103841824Y-46676314D02*
G01*
X104002243Y-46724977D01*
X104134907Y-46795887D01*
X104150079Y-46803997D01*
X104279660Y-46910342D01*
X104386005Y-47039923D01*
X104386006Y-47039925D01*
X104465025Y-47187759D01*
X104513688Y-47348178D01*
X104530118Y-47515001D01*
X104513688Y-47681824D01*
X104513687Y-47681826D01*
X104466498Y-47837389D01*
X104465025Y-47842243D01*
X104394115Y-47974907D01*
X104386005Y-47990079D01*
X104279660Y-48119660D01*
X104150079Y-48226005D01*
X104150077Y-48226006D01*
X104002243Y-48305025D01*
X103841824Y-48353688D01*
X103716805Y-48366001D01*
X103233197Y-48366001D01*
X103108178Y-48353688D01*
X102947759Y-48305025D01*
X102799925Y-48226006D01*
X102799923Y-48226005D01*
X102670342Y-48119660D01*
X102563997Y-47990079D01*
X102555887Y-47974907D01*
X102484977Y-47842243D01*
X102483505Y-47837389D01*
X102436315Y-47681826D01*
X102436314Y-47681824D01*
X102419884Y-47515001D01*
X102436314Y-47348178D01*
X102484977Y-47187759D01*
X102563996Y-47039925D01*
X102563997Y-47039923D01*
X102670342Y-46910342D01*
X102799923Y-46803997D01*
X102815095Y-46795887D01*
X102947759Y-46724977D01*
X103108178Y-46676314D01*
X103233197Y-46664001D01*
X103716805Y-46664001D01*
X103841824Y-46676314D01*
X103841824Y-46676314D01*
G37*
G36*
X80981824Y-46676314D02*
G01*
X81142243Y-46724977D01*
X81274907Y-46795887D01*
X81290079Y-46803997D01*
X81419660Y-46910342D01*
X81526005Y-47039923D01*
X81526006Y-47039925D01*
X81605025Y-47187759D01*
X81653688Y-47348178D01*
X81670118Y-47515001D01*
X81653688Y-47681824D01*
X81653687Y-47681826D01*
X81606498Y-47837389D01*
X81605025Y-47842243D01*
X81534115Y-47974907D01*
X81526005Y-47990079D01*
X81419660Y-48119660D01*
X81290079Y-48226005D01*
X81290077Y-48226006D01*
X81142243Y-48305025D01*
X80981824Y-48353688D01*
X80856805Y-48366001D01*
X80373197Y-48366001D01*
X80248178Y-48353688D01*
X80087759Y-48305025D01*
X79939925Y-48226006D01*
X79939923Y-48226005D01*
X79810342Y-48119660D01*
X79703997Y-47990079D01*
X79695887Y-47974907D01*
X79624977Y-47842243D01*
X79623505Y-47837389D01*
X79576315Y-47681826D01*
X79576314Y-47681824D01*
X79559884Y-47515001D01*
X79576314Y-47348178D01*
X79624977Y-47187759D01*
X79703996Y-47039925D01*
X79703997Y-47039923D01*
X79810342Y-46910342D01*
X79939923Y-46803997D01*
X79955095Y-46795887D01*
X80087759Y-46724977D01*
X80248178Y-46676314D01*
X80373197Y-46664001D01*
X80856805Y-46664001D01*
X80981824Y-46676314D01*
X80981824Y-46676314D01*
G37*
G36*
X103841824Y-44136314D02*
G01*
X104002243Y-44184977D01*
X104134907Y-44255887D01*
X104150079Y-44263997D01*
X104279660Y-44370342D01*
X104386005Y-44499923D01*
X104386006Y-44499925D01*
X104465025Y-44647759D01*
X104513688Y-44808178D01*
X104530118Y-44975001D01*
X104513688Y-45141824D01*
X104465025Y-45302243D01*
X104394115Y-45434907D01*
X104386005Y-45450079D01*
X104279660Y-45579660D01*
X104150079Y-45686005D01*
X104150077Y-45686006D01*
X104002243Y-45765025D01*
X103841824Y-45813688D01*
X103716805Y-45826001D01*
X103233197Y-45826001D01*
X103108178Y-45813688D01*
X102947759Y-45765025D01*
X102799925Y-45686006D01*
X102799923Y-45686005D01*
X102670342Y-45579660D01*
X102563997Y-45450079D01*
X102555887Y-45434907D01*
X102484977Y-45302243D01*
X102436314Y-45141824D01*
X102419884Y-44975001D01*
X102436314Y-44808178D01*
X102484977Y-44647759D01*
X102563996Y-44499925D01*
X102563997Y-44499923D01*
X102670342Y-44370342D01*
X102799923Y-44263997D01*
X102815095Y-44255887D01*
X102947759Y-44184977D01*
X103108178Y-44136314D01*
X103233197Y-44124001D01*
X103716805Y-44124001D01*
X103841824Y-44136314D01*
X103841824Y-44136314D01*
G37*
G36*
X80981824Y-44136314D02*
G01*
X81142243Y-44184977D01*
X81274907Y-44255887D01*
X81290079Y-44263997D01*
X81419660Y-44370342D01*
X81526005Y-44499923D01*
X81526006Y-44499925D01*
X81605025Y-44647759D01*
X81653688Y-44808178D01*
X81670118Y-44975001D01*
X81653688Y-45141824D01*
X81605025Y-45302243D01*
X81534115Y-45434907D01*
X81526005Y-45450079D01*
X81419660Y-45579660D01*
X81290079Y-45686005D01*
X81290077Y-45686006D01*
X81142243Y-45765025D01*
X80981824Y-45813688D01*
X80856805Y-45826001D01*
X80373197Y-45826001D01*
X80248178Y-45813688D01*
X80087759Y-45765025D01*
X79939925Y-45686006D01*
X79939923Y-45686005D01*
X79810342Y-45579660D01*
X79703997Y-45450079D01*
X79695887Y-45434907D01*
X79624977Y-45302243D01*
X79576314Y-45141824D01*
X79559884Y-44975001D01*
X79576314Y-44808178D01*
X79624977Y-44647759D01*
X79703996Y-44499925D01*
X79703997Y-44499923D01*
X79810342Y-44370342D01*
X79939923Y-44263997D01*
X79955095Y-44255887D01*
X80087759Y-44184977D01*
X80248178Y-44136314D01*
X80373197Y-44124001D01*
X80856805Y-44124001D01*
X80981824Y-44136314D01*
X80981824Y-44136314D01*
G37*
G36*
X103841824Y-41596314D02*
G01*
X104002243Y-41644977D01*
X104134907Y-41715887D01*
X104150079Y-41723997D01*
X104279660Y-41830342D01*
X104386005Y-41959923D01*
X104386006Y-41959925D01*
X104465025Y-42107759D01*
X104513688Y-42268178D01*
X104530118Y-42435001D01*
X104513688Y-42601824D01*
X104465025Y-42762243D01*
X104394115Y-42894907D01*
X104386005Y-42910079D01*
X104279660Y-43039660D01*
X104150079Y-43146005D01*
X104150077Y-43146006D01*
X104002243Y-43225025D01*
X103841824Y-43273688D01*
X103716805Y-43286001D01*
X103233197Y-43286001D01*
X103108178Y-43273688D01*
X102947759Y-43225025D01*
X102799925Y-43146006D01*
X102799923Y-43146005D01*
X102670342Y-43039660D01*
X102563997Y-42910079D01*
X102555887Y-42894907D01*
X102484977Y-42762243D01*
X102436314Y-42601824D01*
X102419884Y-42435001D01*
X102436314Y-42268178D01*
X102484977Y-42107759D01*
X102563996Y-41959925D01*
X102563997Y-41959923D01*
X102670342Y-41830342D01*
X102799923Y-41723997D01*
X102815095Y-41715887D01*
X102947759Y-41644977D01*
X103108178Y-41596314D01*
X103233197Y-41584001D01*
X103716805Y-41584001D01*
X103841824Y-41596314D01*
X103841824Y-41596314D01*
G37*
G36*
X80981824Y-41596314D02*
G01*
X81142243Y-41644977D01*
X81274907Y-41715887D01*
X81290079Y-41723997D01*
X81419660Y-41830342D01*
X81526005Y-41959923D01*
X81526006Y-41959925D01*
X81605025Y-42107759D01*
X81653688Y-42268178D01*
X81670118Y-42435001D01*
X81653688Y-42601824D01*
X81605025Y-42762243D01*
X81534115Y-42894907D01*
X81526005Y-42910079D01*
X81419660Y-43039660D01*
X81290079Y-43146005D01*
X81290077Y-43146006D01*
X81142243Y-43225025D01*
X80981824Y-43273688D01*
X80856805Y-43286001D01*
X80373197Y-43286001D01*
X80248178Y-43273688D01*
X80087759Y-43225025D01*
X79939925Y-43146006D01*
X79939923Y-43146005D01*
X79810342Y-43039660D01*
X79703997Y-42910079D01*
X79695887Y-42894907D01*
X79624977Y-42762243D01*
X79576314Y-42601824D01*
X79559884Y-42435001D01*
X79576314Y-42268178D01*
X79624977Y-42107759D01*
X79703996Y-41959925D01*
X79703997Y-41959923D01*
X79810342Y-41830342D01*
X79939923Y-41723997D01*
X79955095Y-41715887D01*
X80087759Y-41644977D01*
X80248178Y-41596314D01*
X80373197Y-41584001D01*
X80856805Y-41584001D01*
X80981824Y-41596314D01*
X80981824Y-41596314D01*
G37*
G36*
X67857823Y-40182313D02*
G01*
X68018242Y-40230976D01*
X68079954Y-40263962D01*
X68166078Y-40309996D01*
X68295659Y-40416341D01*
X68402004Y-40545922D01*
X68402005Y-40545924D01*
X68481024Y-40693758D01*
X68529687Y-40854177D01*
X68546117Y-41021000D01*
X68529687Y-41187823D01*
X68481024Y-41348242D01*
X68412210Y-41476983D01*
X68402004Y-41496078D01*
X68295659Y-41625659D01*
X68166078Y-41732004D01*
X68166076Y-41732005D01*
X68018242Y-41811024D01*
X67857823Y-41859687D01*
X67732804Y-41872000D01*
X67649196Y-41872000D01*
X67524177Y-41859687D01*
X67363758Y-41811024D01*
X67215924Y-41732005D01*
X67215922Y-41732004D01*
X67086341Y-41625659D01*
X66979996Y-41496078D01*
X66969790Y-41476983D01*
X66900976Y-41348242D01*
X66852313Y-41187823D01*
X66835883Y-41021000D01*
X66852313Y-40854177D01*
X66900976Y-40693758D01*
X66979995Y-40545924D01*
X66979996Y-40545922D01*
X67086341Y-40416341D01*
X67215922Y-40309996D01*
X67302046Y-40263962D01*
X67363758Y-40230976D01*
X67524177Y-40182313D01*
X67649196Y-40170000D01*
X67732804Y-40170000D01*
X67857823Y-40182313D01*
X67857823Y-40182313D01*
G37*
G36*
X66002000Y-41872000D02*
G01*
X64300000Y-41872000D01*
X64300000Y-40170000D01*
X66002000Y-40170000D01*
X66002000Y-41872000D01*
X66002000Y-41872000D01*
G37*
G36*
X70694674Y-40147465D02*
G01*
X70732367Y-40158899D01*
X70767103Y-40177466D01*
X70797548Y-40202452D01*
X70822534Y-40232897D01*
X70841101Y-40267633D01*
X70852535Y-40305326D01*
X70857000Y-40350661D01*
X70857000Y-41437339D01*
X70852535Y-41482674D01*
X70841101Y-41520367D01*
X70822534Y-41555103D01*
X70797548Y-41585548D01*
X70767103Y-41610534D01*
X70732367Y-41629101D01*
X70694674Y-41640535D01*
X70649339Y-41645000D01*
X69812661Y-41645000D01*
X69767326Y-41640535D01*
X69729633Y-41629101D01*
X69694897Y-41610534D01*
X69664452Y-41585548D01*
X69639466Y-41555103D01*
X69620899Y-41520367D01*
X69609465Y-41482674D01*
X69605000Y-41437339D01*
X69605000Y-40350661D01*
X69609465Y-40305326D01*
X69620899Y-40267633D01*
X69639466Y-40232897D01*
X69664452Y-40202452D01*
X69694897Y-40177466D01*
X69729633Y-40158899D01*
X69767326Y-40147465D01*
X69812661Y-40143000D01*
X70649339Y-40143000D01*
X70694674Y-40147465D01*
X70694674Y-40147465D01*
G37*
G36*
X72744674Y-40147465D02*
G01*
X72782367Y-40158899D01*
X72817103Y-40177466D01*
X72847548Y-40202452D01*
X72872534Y-40232897D01*
X72891101Y-40267633D01*
X72902535Y-40305326D01*
X72907000Y-40350661D01*
X72907000Y-41437339D01*
X72902535Y-41482674D01*
X72891101Y-41520367D01*
X72872534Y-41555103D01*
X72847548Y-41585548D01*
X72817103Y-41610534D01*
X72782367Y-41629101D01*
X72744674Y-41640535D01*
X72699339Y-41645000D01*
X71862661Y-41645000D01*
X71817326Y-41640535D01*
X71779633Y-41629101D01*
X71744897Y-41610534D01*
X71714452Y-41585548D01*
X71689466Y-41555103D01*
X71670899Y-41520367D01*
X71659465Y-41482674D01*
X71655000Y-41437339D01*
X71655000Y-40350661D01*
X71659465Y-40305326D01*
X71670899Y-40267633D01*
X71689466Y-40232897D01*
X71714452Y-40202452D01*
X71744897Y-40177466D01*
X71779633Y-40158899D01*
X71817326Y-40147465D01*
X71862661Y-40143000D01*
X72699339Y-40143000D01*
X72744674Y-40147465D01*
X72744674Y-40147465D01*
G37*
G36*
X93951000Y-41601000D02*
G01*
X90049000Y-41601000D01*
X90049000Y-39499000D01*
X93951000Y-39499000D01*
X93951000Y-41601000D01*
X93951000Y-41601000D01*
G37*
G36*
X103841824Y-39056314D02*
G01*
X104002243Y-39104977D01*
X104134907Y-39175887D01*
X104150079Y-39183997D01*
X104279660Y-39290342D01*
X104386005Y-39419923D01*
X104386006Y-39419925D01*
X104465025Y-39567759D01*
X104513688Y-39728178D01*
X104530118Y-39895001D01*
X104513688Y-40061824D01*
X104465025Y-40222243D01*
X104418120Y-40309996D01*
X104386005Y-40370079D01*
X104279660Y-40499660D01*
X104150079Y-40606005D01*
X104150077Y-40606006D01*
X104002243Y-40685025D01*
X103841824Y-40733688D01*
X103716805Y-40746001D01*
X103233197Y-40746001D01*
X103108178Y-40733688D01*
X102947759Y-40685025D01*
X102799925Y-40606006D01*
X102799923Y-40606005D01*
X102670342Y-40499660D01*
X102563997Y-40370079D01*
X102531882Y-40309996D01*
X102484977Y-40222243D01*
X102436314Y-40061824D01*
X102419884Y-39895001D01*
X102436314Y-39728178D01*
X102484977Y-39567759D01*
X102563996Y-39419925D01*
X102563997Y-39419923D01*
X102670342Y-39290342D01*
X102799923Y-39183997D01*
X102815095Y-39175887D01*
X102947759Y-39104977D01*
X103108178Y-39056314D01*
X103233197Y-39044001D01*
X103716805Y-39044001D01*
X103841824Y-39056314D01*
X103841824Y-39056314D01*
G37*
G36*
X80981824Y-39056314D02*
G01*
X81142243Y-39104977D01*
X81274907Y-39175887D01*
X81290079Y-39183997D01*
X81419660Y-39290342D01*
X81526005Y-39419923D01*
X81526006Y-39419925D01*
X81605025Y-39567759D01*
X81653688Y-39728178D01*
X81670118Y-39895001D01*
X81653688Y-40061824D01*
X81605025Y-40222243D01*
X81558120Y-40309996D01*
X81526005Y-40370079D01*
X81419660Y-40499660D01*
X81290079Y-40606005D01*
X81290077Y-40606006D01*
X81142243Y-40685025D01*
X80981824Y-40733688D01*
X80856805Y-40746001D01*
X80373197Y-40746001D01*
X80248178Y-40733688D01*
X80087759Y-40685025D01*
X79939925Y-40606006D01*
X79939923Y-40606005D01*
X79810342Y-40499660D01*
X79703997Y-40370079D01*
X79671882Y-40309996D01*
X79624977Y-40222243D01*
X79576314Y-40061824D01*
X79559884Y-39895001D01*
X79576314Y-39728178D01*
X79624977Y-39567759D01*
X79703996Y-39419925D01*
X79703997Y-39419923D01*
X79810342Y-39290342D01*
X79939923Y-39183997D01*
X79955095Y-39175887D01*
X80087759Y-39104977D01*
X80248178Y-39056314D01*
X80373197Y-39044001D01*
X80856805Y-39044001D01*
X80981824Y-39056314D01*
X80981824Y-39056314D01*
G37*
G36*
X80981824Y-36516314D02*
G01*
X81142243Y-36564977D01*
X81274907Y-36635887D01*
X81290079Y-36643997D01*
X81419660Y-36750342D01*
X81526005Y-36879923D01*
X81526006Y-36879925D01*
X81605025Y-37027759D01*
X81653688Y-37188178D01*
X81670118Y-37355001D01*
X81653688Y-37521824D01*
X81605025Y-37682243D01*
X81534115Y-37814907D01*
X81526005Y-37830079D01*
X81419660Y-37959660D01*
X81290079Y-38066005D01*
X81290077Y-38066006D01*
X81142243Y-38145025D01*
X80981824Y-38193688D01*
X80856805Y-38206001D01*
X80373197Y-38206001D01*
X80248178Y-38193688D01*
X80087759Y-38145025D01*
X79939925Y-38066006D01*
X79939923Y-38066005D01*
X79810342Y-37959660D01*
X79703997Y-37830079D01*
X79695887Y-37814907D01*
X79624977Y-37682243D01*
X79576314Y-37521824D01*
X79559884Y-37355001D01*
X79576314Y-37188178D01*
X79624977Y-37027759D01*
X79703996Y-36879925D01*
X79703997Y-36879923D01*
X79810342Y-36750342D01*
X79939923Y-36643997D01*
X79955095Y-36635887D01*
X80087759Y-36564977D01*
X80248178Y-36516314D01*
X80373197Y-36504001D01*
X80856805Y-36504001D01*
X80981824Y-36516314D01*
X80981824Y-36516314D01*
G37*
G36*
X103841824Y-36516314D02*
G01*
X104002243Y-36564977D01*
X104134907Y-36635887D01*
X104150079Y-36643997D01*
X104279660Y-36750342D01*
X104386005Y-36879923D01*
X104386006Y-36879925D01*
X104465025Y-37027759D01*
X104513688Y-37188178D01*
X104530118Y-37355001D01*
X104513688Y-37521824D01*
X104465025Y-37682243D01*
X104394115Y-37814907D01*
X104386005Y-37830079D01*
X104279660Y-37959660D01*
X104150079Y-38066005D01*
X104150077Y-38066006D01*
X104002243Y-38145025D01*
X103841824Y-38193688D01*
X103716805Y-38206001D01*
X103233197Y-38206001D01*
X103108178Y-38193688D01*
X102947759Y-38145025D01*
X102799925Y-38066006D01*
X102799923Y-38066005D01*
X102670342Y-37959660D01*
X102563997Y-37830079D01*
X102555887Y-37814907D01*
X102484977Y-37682243D01*
X102436314Y-37521824D01*
X102419884Y-37355001D01*
X102436314Y-37188178D01*
X102484977Y-37027759D01*
X102563996Y-36879925D01*
X102563997Y-36879923D01*
X102670342Y-36750342D01*
X102799923Y-36643997D01*
X102815095Y-36635887D01*
X102947759Y-36564977D01*
X103108178Y-36516314D01*
X103233197Y-36504001D01*
X103716805Y-36504001D01*
X103841824Y-36516314D01*
X103841824Y-36516314D01*
G37*
G36*
X87588674Y-35903465D02*
G01*
X87626367Y-35914899D01*
X87661103Y-35933466D01*
X87691548Y-35958452D01*
X87716534Y-35988897D01*
X87735101Y-36023633D01*
X87746535Y-36061326D01*
X87751000Y-36106661D01*
X87751000Y-36943339D01*
X87746535Y-36988674D01*
X87735101Y-37026367D01*
X87716534Y-37061103D01*
X87691548Y-37091548D01*
X87661103Y-37116534D01*
X87626367Y-37135101D01*
X87588674Y-37146535D01*
X87543339Y-37151000D01*
X86456661Y-37151000D01*
X86411326Y-37146535D01*
X86373633Y-37135101D01*
X86338897Y-37116534D01*
X86308452Y-37091548D01*
X86283466Y-37061103D01*
X86264899Y-37026367D01*
X86253465Y-36988674D01*
X86249000Y-36943339D01*
X86249000Y-36106661D01*
X86253465Y-36061326D01*
X86264899Y-36023633D01*
X86283466Y-35988897D01*
X86308452Y-35958452D01*
X86338897Y-35933466D01*
X86373633Y-35914899D01*
X86411326Y-35903465D01*
X86456661Y-35899000D01*
X87543339Y-35899000D01*
X87588674Y-35903465D01*
X87588674Y-35903465D01*
G37*
G36*
X80981824Y-33976314D02*
G01*
X81142243Y-34024977D01*
X81230744Y-34072282D01*
X81290079Y-34103997D01*
X81419660Y-34210342D01*
X81526005Y-34339923D01*
X81526006Y-34339925D01*
X81605025Y-34487759D01*
X81653688Y-34648178D01*
X81670118Y-34815001D01*
X81653688Y-34981824D01*
X81605025Y-35142243D01*
X81534115Y-35274907D01*
X81526005Y-35290079D01*
X81419660Y-35419660D01*
X81290079Y-35526005D01*
X81290077Y-35526006D01*
X81142243Y-35605025D01*
X80981824Y-35653688D01*
X80856805Y-35666001D01*
X80373197Y-35666001D01*
X80248178Y-35653688D01*
X80087759Y-35605025D01*
X79939925Y-35526006D01*
X79939923Y-35526005D01*
X79810342Y-35419660D01*
X79703997Y-35290079D01*
X79695887Y-35274907D01*
X79624977Y-35142243D01*
X79576314Y-34981824D01*
X79559884Y-34815001D01*
X79576314Y-34648178D01*
X79624977Y-34487759D01*
X79703996Y-34339925D01*
X79703997Y-34339923D01*
X79810342Y-34210342D01*
X79939923Y-34103997D01*
X79999258Y-34072282D01*
X80087759Y-34024977D01*
X80248178Y-33976314D01*
X80373197Y-33964001D01*
X80856805Y-33964001D01*
X80981824Y-33976314D01*
X80981824Y-33976314D01*
G37*
G36*
X103841824Y-33976314D02*
G01*
X104002243Y-34024977D01*
X104090744Y-34072282D01*
X104150079Y-34103997D01*
X104279660Y-34210342D01*
X104386005Y-34339923D01*
X104386006Y-34339925D01*
X104465025Y-34487759D01*
X104513688Y-34648178D01*
X104530118Y-34815001D01*
X104513688Y-34981824D01*
X104465025Y-35142243D01*
X104394115Y-35274907D01*
X104386005Y-35290079D01*
X104279660Y-35419660D01*
X104150079Y-35526005D01*
X104150077Y-35526006D01*
X104002243Y-35605025D01*
X103841824Y-35653688D01*
X103716805Y-35666001D01*
X103233197Y-35666001D01*
X103108178Y-35653688D01*
X102947759Y-35605025D01*
X102799925Y-35526006D01*
X102799923Y-35526005D01*
X102670342Y-35419660D01*
X102563997Y-35290079D01*
X102555887Y-35274907D01*
X102484977Y-35142243D01*
X102436314Y-34981824D01*
X102419884Y-34815001D01*
X102436314Y-34648178D01*
X102484977Y-34487759D01*
X102563996Y-34339925D01*
X102563997Y-34339923D01*
X102670342Y-34210342D01*
X102799923Y-34103997D01*
X102859258Y-34072282D01*
X102947759Y-34024977D01*
X103108178Y-33976314D01*
X103233197Y-33964001D01*
X103716805Y-33964001D01*
X103841824Y-33976314D01*
X103841824Y-33976314D01*
G37*
G36*
X92801000Y-35301000D02*
G01*
X91199000Y-35301000D01*
X91199000Y-33199000D01*
X92801000Y-33199000D01*
X92801000Y-35301000D01*
X92801000Y-35301000D01*
G37*
G36*
X90501000Y-35301000D02*
G01*
X88899000Y-35301000D01*
X88899000Y-33199000D01*
X90501000Y-33199000D01*
X90501000Y-35301000D01*
X90501000Y-35301000D01*
G37*
G36*
X95101000Y-35301000D02*
G01*
X93499000Y-35301000D01*
X93499000Y-33199000D01*
X95101000Y-33199000D01*
X95101000Y-35301000D01*
X95101000Y-35301000D01*
G37*
G36*
X87588674Y-33853465D02*
G01*
X87626367Y-33864899D01*
X87661103Y-33883466D01*
X87691548Y-33908452D01*
X87716534Y-33938897D01*
X87735101Y-33973633D01*
X87746535Y-34011326D01*
X87751000Y-34056661D01*
X87751000Y-34893339D01*
X87746535Y-34938674D01*
X87735101Y-34976367D01*
X87716534Y-35011103D01*
X87691548Y-35041548D01*
X87661103Y-35066534D01*
X87626367Y-35085101D01*
X87588674Y-35096535D01*
X87543339Y-35101000D01*
X86456661Y-35101000D01*
X86411326Y-35096535D01*
X86373633Y-35085101D01*
X86338897Y-35066534D01*
X86308452Y-35041548D01*
X86283466Y-35011103D01*
X86264899Y-34976367D01*
X86253465Y-34938674D01*
X86249000Y-34893339D01*
X86249000Y-34056661D01*
X86253465Y-34011326D01*
X86264899Y-33973633D01*
X86283466Y-33938897D01*
X86308452Y-33908452D01*
X86338897Y-33883466D01*
X86373633Y-33864899D01*
X86411326Y-33853465D01*
X86456661Y-33849000D01*
X87543339Y-33849000D01*
X87588674Y-33853465D01*
X87588674Y-33853465D01*
G37*
G36*
X67857823Y-32562313D02*
G01*
X68018242Y-32610976D01*
X68130011Y-32670718D01*
X68166078Y-32689996D01*
X68295659Y-32796341D01*
X68402004Y-32925922D01*
X68402005Y-32925924D01*
X68481024Y-33073758D01*
X68529687Y-33234177D01*
X68546117Y-33401000D01*
X68529687Y-33567823D01*
X68481024Y-33728242D01*
X68416477Y-33849000D01*
X68402004Y-33876078D01*
X68295659Y-34005659D01*
X68166078Y-34112004D01*
X68166076Y-34112005D01*
X68018242Y-34191024D01*
X67857823Y-34239687D01*
X67732804Y-34252000D01*
X67649196Y-34252000D01*
X67524177Y-34239687D01*
X67363758Y-34191024D01*
X67215924Y-34112005D01*
X67215922Y-34112004D01*
X67086341Y-34005659D01*
X66979996Y-33876078D01*
X66965523Y-33849000D01*
X66900976Y-33728242D01*
X66852313Y-33567823D01*
X66835883Y-33401000D01*
X66852313Y-33234177D01*
X66900976Y-33073758D01*
X66979995Y-32925924D01*
X66979996Y-32925922D01*
X67086341Y-32796341D01*
X67215922Y-32689996D01*
X67251989Y-32670718D01*
X67363758Y-32610976D01*
X67524177Y-32562313D01*
X67649196Y-32550000D01*
X67732804Y-32550000D01*
X67857823Y-32562313D01*
X67857823Y-32562313D01*
G37*
G36*
X65317823Y-32562313D02*
G01*
X65478242Y-32610976D01*
X65590011Y-32670718D01*
X65626078Y-32689996D01*
X65755659Y-32796341D01*
X65862004Y-32925922D01*
X65862005Y-32925924D01*
X65941024Y-33073758D01*
X65989687Y-33234177D01*
X66006117Y-33401000D01*
X65989687Y-33567823D01*
X65941024Y-33728242D01*
X65876477Y-33849000D01*
X65862004Y-33876078D01*
X65755659Y-34005659D01*
X65626078Y-34112004D01*
X65626076Y-34112005D01*
X65478242Y-34191024D01*
X65317823Y-34239687D01*
X65192804Y-34252000D01*
X65109196Y-34252000D01*
X64984177Y-34239687D01*
X64823758Y-34191024D01*
X64675924Y-34112005D01*
X64675922Y-34112004D01*
X64546341Y-34005659D01*
X64439996Y-33876078D01*
X64425523Y-33849000D01*
X64360976Y-33728242D01*
X64312313Y-33567823D01*
X64295883Y-33401000D01*
X64312313Y-33234177D01*
X64360976Y-33073758D01*
X64439995Y-32925924D01*
X64439996Y-32925922D01*
X64546341Y-32796341D01*
X64675922Y-32689996D01*
X64711989Y-32670718D01*
X64823758Y-32610976D01*
X64984177Y-32562313D01*
X65109196Y-32550000D01*
X65192804Y-32550000D01*
X65317823Y-32562313D01*
X65317823Y-32562313D01*
G37*
G36*
X72862674Y-32654465D02*
G01*
X72900367Y-32665899D01*
X72935103Y-32684466D01*
X72965548Y-32709452D01*
X72990534Y-32739897D01*
X73009101Y-32774633D01*
X73020535Y-32812326D01*
X73025000Y-32857661D01*
X73025000Y-33944339D01*
X73020535Y-33989674D01*
X73009101Y-34027367D01*
X72990534Y-34062103D01*
X72965548Y-34092548D01*
X72935103Y-34117534D01*
X72900367Y-34136101D01*
X72862674Y-34147535D01*
X72817339Y-34152000D01*
X71980661Y-34152000D01*
X71935326Y-34147535D01*
X71897633Y-34136101D01*
X71862897Y-34117534D01*
X71832452Y-34092548D01*
X71807466Y-34062103D01*
X71788899Y-34027367D01*
X71777465Y-33989674D01*
X71773000Y-33944339D01*
X71773000Y-32857661D01*
X71777465Y-32812326D01*
X71788899Y-32774633D01*
X71807466Y-32739897D01*
X71832452Y-32709452D01*
X71862897Y-32684466D01*
X71897633Y-32665899D01*
X71935326Y-32654465D01*
X71980661Y-32650000D01*
X72817339Y-32650000D01*
X72862674Y-32654465D01*
X72862674Y-32654465D01*
G37*
G36*
X70812674Y-32654465D02*
G01*
X70850367Y-32665899D01*
X70885103Y-32684466D01*
X70915548Y-32709452D01*
X70940534Y-32739897D01*
X70959101Y-32774633D01*
X70970535Y-32812326D01*
X70975000Y-32857661D01*
X70975000Y-33944339D01*
X70970535Y-33989674D01*
X70959101Y-34027367D01*
X70940534Y-34062103D01*
X70915548Y-34092548D01*
X70885103Y-34117534D01*
X70850367Y-34136101D01*
X70812674Y-34147535D01*
X70767339Y-34152000D01*
X69930661Y-34152000D01*
X69885326Y-34147535D01*
X69847633Y-34136101D01*
X69812897Y-34117534D01*
X69782452Y-34092548D01*
X69757466Y-34062103D01*
X69738899Y-34027367D01*
X69727465Y-33989674D01*
X69723000Y-33944339D01*
X69723000Y-32857661D01*
X69727465Y-32812326D01*
X69738899Y-32774633D01*
X69757466Y-32739897D01*
X69782452Y-32709452D01*
X69812897Y-32684466D01*
X69847633Y-32665899D01*
X69885326Y-32654465D01*
X69930661Y-32650000D01*
X70767339Y-32650000D01*
X70812674Y-32654465D01*
X70812674Y-32654465D01*
G37*
G36*
X99375256Y-29891298D02*
G01*
X99481579Y-29912447D01*
X99782042Y-30036903D01*
X100052451Y-30217585D01*
X100282415Y-30447549D01*
X100411131Y-30640186D01*
X100463098Y-30717960D01*
X100478121Y-30754230D01*
X100587553Y-31018421D01*
X100651000Y-31337391D01*
X100651000Y-31662609D01*
X100594280Y-31947762D01*
X100587553Y-31981578D01*
X100466014Y-32275001D01*
X100463097Y-32282042D01*
X100282415Y-32552451D01*
X100052451Y-32782415D01*
X99782042Y-32963097D01*
X99481579Y-33087553D01*
X99375256Y-33108702D01*
X99162611Y-33151000D01*
X98837389Y-33151000D01*
X98624744Y-33108702D01*
X98518421Y-33087553D01*
X98217958Y-32963097D01*
X97947549Y-32782415D01*
X97717585Y-32552451D01*
X97536903Y-32282042D01*
X97533987Y-32275001D01*
X97412447Y-31981578D01*
X97405721Y-31947762D01*
X97349000Y-31662609D01*
X97349000Y-31337391D01*
X97412447Y-31018421D01*
X97521879Y-30754230D01*
X97536902Y-30717960D01*
X97588869Y-30640186D01*
X97717585Y-30447549D01*
X97947549Y-30217585D01*
X98217958Y-30036903D01*
X98518421Y-29912447D01*
X98624744Y-29891298D01*
X98837389Y-29849000D01*
X99162611Y-29849000D01*
X99375256Y-29891298D01*
X99375256Y-29891298D01*
G37*
G36*
X80981824Y-31436314D02*
G01*
X81142243Y-31484977D01*
X81274907Y-31555887D01*
X81290079Y-31563997D01*
X81419660Y-31670342D01*
X81526005Y-31799923D01*
X81526006Y-31799925D01*
X81605025Y-31947759D01*
X81653688Y-32108178D01*
X81670118Y-32275001D01*
X81653688Y-32441824D01*
X81605025Y-32602243D01*
X81536888Y-32729718D01*
X81526005Y-32750079D01*
X81419660Y-32879660D01*
X81290079Y-32986005D01*
X81290077Y-32986006D01*
X81142243Y-33065025D01*
X80981824Y-33113688D01*
X80856805Y-33126001D01*
X80373197Y-33126001D01*
X80248178Y-33113688D01*
X80087759Y-33065025D01*
X79939925Y-32986006D01*
X79939923Y-32986005D01*
X79810342Y-32879660D01*
X79703997Y-32750079D01*
X79693114Y-32729718D01*
X79624977Y-32602243D01*
X79576314Y-32441824D01*
X79559884Y-32275001D01*
X79576314Y-32108178D01*
X79624977Y-31947759D01*
X79703996Y-31799925D01*
X79703997Y-31799923D01*
X79810342Y-31670342D01*
X79939923Y-31563997D01*
X79955095Y-31555887D01*
X80087759Y-31484977D01*
X80248178Y-31436314D01*
X80373197Y-31424001D01*
X80856805Y-31424001D01*
X80981824Y-31436314D01*
X80981824Y-31436314D01*
G37*
G36*
X103841824Y-31436314D02*
G01*
X104002243Y-31484977D01*
X104134907Y-31555887D01*
X104150079Y-31563997D01*
X104279660Y-31670342D01*
X104386005Y-31799923D01*
X104386006Y-31799925D01*
X104465025Y-31947759D01*
X104513688Y-32108178D01*
X104530118Y-32275001D01*
X104513688Y-32441824D01*
X104465025Y-32602243D01*
X104396888Y-32729718D01*
X104386005Y-32750079D01*
X104279660Y-32879660D01*
X104150079Y-32986005D01*
X104150077Y-32986006D01*
X104002243Y-33065025D01*
X103841824Y-33113688D01*
X103716805Y-33126001D01*
X103233197Y-33126001D01*
X103108178Y-33113688D01*
X102947759Y-33065025D01*
X102799925Y-32986006D01*
X102799923Y-32986005D01*
X102670342Y-32879660D01*
X102563997Y-32750079D01*
X102553114Y-32729718D01*
X102484977Y-32602243D01*
X102436314Y-32441824D01*
X102419884Y-32275001D01*
X102436314Y-32108178D01*
X102484977Y-31947759D01*
X102563996Y-31799925D01*
X102563997Y-31799923D01*
X102670342Y-31670342D01*
X102799923Y-31563997D01*
X102815095Y-31555887D01*
X102947759Y-31484977D01*
X103108178Y-31436314D01*
X103233197Y-31424001D01*
X103716805Y-31424001D01*
X103841824Y-31436314D01*
X103841824Y-31436314D01*
G37*
G36*
X94988674Y-30753465D02*
G01*
X95026367Y-30764899D01*
X95061103Y-30783466D01*
X95091548Y-30808452D01*
X95116534Y-30838897D01*
X95135101Y-30873633D01*
X95146535Y-30911326D01*
X95151000Y-30956661D01*
X95151000Y-32043339D01*
X95146535Y-32088674D01*
X95135101Y-32126367D01*
X95116534Y-32161103D01*
X95091548Y-32191548D01*
X95061103Y-32216534D01*
X95026367Y-32235101D01*
X94988674Y-32246535D01*
X94943339Y-32251000D01*
X94106661Y-32251000D01*
X94061326Y-32246535D01*
X94023633Y-32235101D01*
X93988897Y-32216534D01*
X93958452Y-32191548D01*
X93933466Y-32161103D01*
X93914899Y-32126367D01*
X93903465Y-32088674D01*
X93899000Y-32043339D01*
X93899000Y-30956661D01*
X93903465Y-30911326D01*
X93914899Y-30873633D01*
X93933466Y-30838897D01*
X93958452Y-30808452D01*
X93988897Y-30783466D01*
X94023633Y-30764899D01*
X94061326Y-30753465D01*
X94106661Y-30749000D01*
X94943339Y-30749000D01*
X94988674Y-30753465D01*
X94988674Y-30753465D01*
G37*
G36*
X92938674Y-30753465D02*
G01*
X92976367Y-30764899D01*
X93011103Y-30783466D01*
X93041548Y-30808452D01*
X93066534Y-30838897D01*
X93085101Y-30873633D01*
X93096535Y-30911326D01*
X93101000Y-30956661D01*
X93101000Y-32043339D01*
X93096535Y-32088674D01*
X93085101Y-32126367D01*
X93066534Y-32161103D01*
X93041548Y-32191548D01*
X93011103Y-32216534D01*
X92976367Y-32235101D01*
X92938674Y-32246535D01*
X92893339Y-32251000D01*
X92056661Y-32251000D01*
X92011326Y-32246535D01*
X91973633Y-32235101D01*
X91938897Y-32216534D01*
X91908452Y-32191548D01*
X91883466Y-32161103D01*
X91864899Y-32126367D01*
X91853465Y-32088674D01*
X91849000Y-32043339D01*
X91849000Y-30956661D01*
X91853465Y-30911326D01*
X91864899Y-30873633D01*
X91883466Y-30838897D01*
X91908452Y-30808452D01*
X91938897Y-30783466D01*
X91973633Y-30764899D01*
X92011326Y-30753465D01*
X92056661Y-30749000D01*
X92893339Y-30749000D01*
X92938674Y-30753465D01*
X92938674Y-30753465D01*
G37*
G36*
X72730442Y-29105518D02*
G01*
X72796627Y-29112037D01*
X72966466Y-29163557D01*
X73122991Y-29247222D01*
X73158729Y-29276552D01*
X73260186Y-29359814D01*
X73343448Y-29461271D01*
X73372778Y-29497009D01*
X73456443Y-29653534D01*
X73507963Y-29823373D01*
X73525359Y-30000000D01*
X73507963Y-30176627D01*
X73456443Y-30346466D01*
X73372778Y-30502991D01*
X73354695Y-30525025D01*
X73260186Y-30640186D01*
X73165419Y-30717958D01*
X73122991Y-30752778D01*
X72966466Y-30836443D01*
X72796627Y-30887963D01*
X72730442Y-30894482D01*
X72664260Y-30901000D01*
X72575740Y-30901000D01*
X72509558Y-30894482D01*
X72443373Y-30887963D01*
X72273534Y-30836443D01*
X72117009Y-30752778D01*
X72074581Y-30717958D01*
X71979814Y-30640186D01*
X71885305Y-30525025D01*
X71867222Y-30502991D01*
X71783557Y-30346466D01*
X71732037Y-30176627D01*
X71714641Y-30000000D01*
X71732037Y-29823373D01*
X71783557Y-29653534D01*
X71867222Y-29497009D01*
X71896552Y-29461271D01*
X71979814Y-29359814D01*
X72081271Y-29276552D01*
X72117009Y-29247222D01*
X72273534Y-29163557D01*
X72443373Y-29112037D01*
X72509558Y-29105518D01*
X72575740Y-29099000D01*
X72664260Y-29099000D01*
X72730442Y-29105518D01*
X72730442Y-29105518D01*
G37*
G36*
X75270442Y-29105518D02*
G01*
X75336627Y-29112037D01*
X75506466Y-29163557D01*
X75662991Y-29247222D01*
X75698729Y-29276552D01*
X75800186Y-29359814D01*
X75883448Y-29461271D01*
X75912778Y-29497009D01*
X75996443Y-29653534D01*
X76047963Y-29823373D01*
X76065359Y-30000000D01*
X76047963Y-30176627D01*
X75996443Y-30346466D01*
X75912778Y-30502991D01*
X75894695Y-30525025D01*
X75800186Y-30640186D01*
X75705419Y-30717958D01*
X75662991Y-30752778D01*
X75506466Y-30836443D01*
X75336627Y-30887963D01*
X75270442Y-30894482D01*
X75204260Y-30901000D01*
X75115740Y-30901000D01*
X75049558Y-30894482D01*
X74983373Y-30887963D01*
X74813534Y-30836443D01*
X74657009Y-30752778D01*
X74614581Y-30717958D01*
X74519814Y-30640186D01*
X74425305Y-30525025D01*
X74407222Y-30502991D01*
X74323557Y-30346466D01*
X74272037Y-30176627D01*
X74254641Y-30000000D01*
X74272037Y-29823373D01*
X74323557Y-29653534D01*
X74407222Y-29497009D01*
X74436552Y-29461271D01*
X74519814Y-29359814D01*
X74621271Y-29276552D01*
X74657009Y-29247222D01*
X74813534Y-29163557D01*
X74983373Y-29112037D01*
X75049558Y-29105518D01*
X75115740Y-29099000D01*
X75204260Y-29099000D01*
X75270442Y-29105518D01*
X75270442Y-29105518D01*
G37*
G36*
X70190442Y-29105518D02*
G01*
X70256627Y-29112037D01*
X70426466Y-29163557D01*
X70582991Y-29247222D01*
X70618729Y-29276552D01*
X70720186Y-29359814D01*
X70803448Y-29461271D01*
X70832778Y-29497009D01*
X70916443Y-29653534D01*
X70967963Y-29823373D01*
X70985359Y-30000000D01*
X70967963Y-30176627D01*
X70916443Y-30346466D01*
X70832778Y-30502991D01*
X70814695Y-30525025D01*
X70720186Y-30640186D01*
X70625419Y-30717958D01*
X70582991Y-30752778D01*
X70426466Y-30836443D01*
X70256627Y-30887963D01*
X70190442Y-30894482D01*
X70124260Y-30901000D01*
X70035740Y-30901000D01*
X69969558Y-30894482D01*
X69903373Y-30887963D01*
X69733534Y-30836443D01*
X69577009Y-30752778D01*
X69534581Y-30717958D01*
X69439814Y-30640186D01*
X69345305Y-30525025D01*
X69327222Y-30502991D01*
X69243557Y-30346466D01*
X69192037Y-30176627D01*
X69174641Y-30000000D01*
X69192037Y-29823373D01*
X69243557Y-29653534D01*
X69327222Y-29497009D01*
X69356552Y-29461271D01*
X69439814Y-29359814D01*
X69541271Y-29276552D01*
X69577009Y-29247222D01*
X69733534Y-29163557D01*
X69903373Y-29112037D01*
X69969558Y-29105518D01*
X70035740Y-29099000D01*
X70124260Y-29099000D01*
X70190442Y-29105518D01*
X70190442Y-29105518D01*
G37*
G36*
X67650442Y-29105518D02*
G01*
X67716627Y-29112037D01*
X67886466Y-29163557D01*
X68042991Y-29247222D01*
X68078729Y-29276552D01*
X68180186Y-29359814D01*
X68263448Y-29461271D01*
X68292778Y-29497009D01*
X68376443Y-29653534D01*
X68427963Y-29823373D01*
X68445359Y-30000000D01*
X68427963Y-30176627D01*
X68376443Y-30346466D01*
X68292778Y-30502991D01*
X68274695Y-30525025D01*
X68180186Y-30640186D01*
X68085419Y-30717958D01*
X68042991Y-30752778D01*
X67886466Y-30836443D01*
X67716627Y-30887963D01*
X67650442Y-30894482D01*
X67584260Y-30901000D01*
X67495740Y-30901000D01*
X67429558Y-30894482D01*
X67363373Y-30887963D01*
X67193534Y-30836443D01*
X67037009Y-30752778D01*
X66994581Y-30717958D01*
X66899814Y-30640186D01*
X66805305Y-30525025D01*
X66787222Y-30502991D01*
X66703557Y-30346466D01*
X66652037Y-30176627D01*
X66634641Y-30000000D01*
X66652037Y-29823373D01*
X66703557Y-29653534D01*
X66787222Y-29497009D01*
X66816552Y-29461271D01*
X66899814Y-29359814D01*
X67001271Y-29276552D01*
X67037009Y-29247222D01*
X67193534Y-29163557D01*
X67363373Y-29112037D01*
X67429558Y-29105518D01*
X67495740Y-29099000D01*
X67584260Y-29099000D01*
X67650442Y-29105518D01*
X67650442Y-29105518D01*
G37*
G36*
X65901000Y-30901000D02*
G01*
X64099000Y-30901000D01*
X64099000Y-29099000D01*
X65901000Y-29099000D01*
X65901000Y-30901000D01*
X65901000Y-30901000D01*
G37*
G36*
X81666001Y-30786001D02*
G01*
X79564001Y-30786001D01*
X79564001Y-28684001D01*
X81666001Y-28684001D01*
X81666001Y-30786001D01*
X81666001Y-30786001D01*
G37*
G36*
X103841824Y-28896314D02*
G01*
X104002243Y-28944977D01*
X104134907Y-29015887D01*
X104150079Y-29023997D01*
X104279660Y-29130342D01*
X104386005Y-29259923D01*
X104386006Y-29259925D01*
X104465025Y-29407759D01*
X104513688Y-29568178D01*
X104530118Y-29735001D01*
X104513688Y-29901824D01*
X104465025Y-30062243D01*
X104403886Y-30176625D01*
X104386005Y-30210079D01*
X104279660Y-30339660D01*
X104150079Y-30446005D01*
X104150077Y-30446006D01*
X104002243Y-30525025D01*
X103841824Y-30573688D01*
X103716805Y-30586001D01*
X103233197Y-30586001D01*
X103108178Y-30573688D01*
X102947759Y-30525025D01*
X102799925Y-30446006D01*
X102799923Y-30446005D01*
X102670342Y-30339660D01*
X102563997Y-30210079D01*
X102546116Y-30176625D01*
X102484977Y-30062243D01*
X102436314Y-29901824D01*
X102419884Y-29735001D01*
X102436314Y-29568178D01*
X102484977Y-29407759D01*
X102563996Y-29259925D01*
X102563997Y-29259923D01*
X102670342Y-29130342D01*
X102799923Y-29023997D01*
X102815095Y-29015887D01*
X102947759Y-28944977D01*
X103108178Y-28896314D01*
X103233197Y-28884001D01*
X103716805Y-28884001D01*
X103841824Y-28896314D01*
X103841824Y-28896314D01*
G37*
M02*
