M48
; DRILL file {KiCad 5.1.2} date Mon 06 May 2019 08:04:09 PM CEST
; FORMAT={3:3/ absolute / metric / suppress leading zeros}
; #@! TF.CreationDate,2019-05-06T20:04:09+02:00
; #@! TF.GenerationSoftware,Kicad,Pcbnew,5.1.2
FMAT,2
METRIC,TZ
T1C0.400
T2C0.800
T3C1.000
T4C1.001
T5C3.200
%
G90
G05
T1
X88400Y-48600
X92600Y-48800
T2
X65151Y-33401
X65151Y-41021
X67691Y-33401
X67691Y-41021
T3
X65000Y-30000
X67540Y-30000
X70080Y-30000
X72620Y-30000
X75160Y-30000
X82180Y-59250
X84720Y-59250
X87260Y-59250
X89800Y-59250
X92340Y-59250
X94880Y-59250
X97420Y-59250
X99960Y-59250
X102500Y-59250
X80615Y-29735
X80615Y-32275
X80615Y-34815
X80615Y-37355
X80615Y-39895
X80615Y-42435
X80615Y-44975
X80615Y-47515
X103475Y-29735
X103475Y-32275
X103475Y-34815
X103475Y-37355
X103475Y-39895
X103475Y-42435
X103475Y-44975
X103475Y-47515
X66200Y-53800
X68740Y-53800
X71280Y-53800
X73820Y-53800
T4
X66190Y-58000
X70000Y-58000
T5
X99000Y-31500
X66000Y-48000
T0
M30
