M48
INCH,TZ
T1C0.0157
T2C0.0394
%
G90
G05
T1
X41225Y-42660
X42463Y-43766
X42659Y-42399
X43319Y-48249
X44123Y-42760
X45175Y-45335
X45266Y-44678
X45770Y-43984
X46331Y-43851
X46331Y-49115
X46765Y-43636
X47534Y-49870
X48395Y-47480
T2
X38878Y-42126
X38878Y-43126
X38878Y-44126
X38878Y-45126
X38878Y-46126
X38878Y-47126
X38878Y-48126
X38878Y-49126
X38878Y-50126
X39370Y-39370
X39370Y-40370
X39370Y-51969
X40370Y-39370
X40370Y-40370
X40370Y-51969
X41370Y-39370
X41370Y-40370
X41370Y-51969
X42370Y-39370
X42370Y-40370
X42370Y-51969
X43370Y-39370
X43370Y-40370
X43370Y-51969
X44370Y-39370
X44370Y-40370
X44370Y-51969
X45370Y-39370
X45370Y-40370
X45370Y-51969
X46370Y-39370
X46370Y-40370
X46370Y-51969
X47370Y-39370
X47370Y-40370
X47370Y-51969
X48370Y-39370
X48370Y-40370
X48370Y-51969
X49370Y-39370
X49370Y-40370
X49370Y-51969
X50098Y-42126
X50098Y-43126
X50098Y-44126
X50098Y-45126
X50098Y-46126
X50098Y-47126
X50098Y-48126
X50098Y-49126
X50098Y-50126
T0
M30
