G04 #@! TF.GenerationSoftware,KiCad,Pcbnew,5.1.9*
G04 #@! TF.CreationDate,2021-04-03T20:04:09+02:00*
G04 #@! TF.ProjectId,driverboard,64726976-6572-4626-9f61-72642e6b6963,rev?*
G04 #@! TF.SameCoordinates,Original*
G04 #@! TF.FileFunction,Copper,L2,Bot*
G04 #@! TF.FilePolarity,Positive*
%FSLAX46Y46*%
G04 Gerber Fmt 4.6, Leading zero omitted, Abs format (unit mm)*
G04 Created by KiCad (PCBNEW 5.1.9) date 2021-04-03 20:04:09*
%MOMM*%
%LPD*%
G01*
G04 APERTURE LIST*
G04 #@! TA.AperFunction,ComponentPad*
%ADD10R,1.700000X1.700000*%
G04 #@! TD*
G04 #@! TA.AperFunction,ComponentPad*
%ADD11O,1.700000X1.700000*%
G04 #@! TD*
G04 #@! TA.AperFunction,ViaPad*
%ADD12C,0.800000*%
G04 #@! TD*
G04 #@! TA.AperFunction,Conductor*
%ADD13C,0.250000*%
G04 #@! TD*
G04 #@! TA.AperFunction,Conductor*
%ADD14C,0.400000*%
G04 #@! TD*
G04 APERTURE END LIST*
G04 #@! TA.AperFunction,SMDPad,CuDef*
G36*
G01*
X104935000Y-119830000D02*
X105885000Y-119830000D01*
G75*
G02*
X106135000Y-120080000I0J-250000D01*
G01*
X106135000Y-120755000D01*
G75*
G02*
X105885000Y-121005000I-250000J0D01*
G01*
X104935000Y-121005000D01*
G75*
G02*
X104685000Y-120755000I0J250000D01*
G01*
X104685000Y-120080000D01*
G75*
G02*
X104935000Y-119830000I250000J0D01*
G01*
G37*
G04 #@! TD.AperFunction*
G04 #@! TA.AperFunction,SMDPad,CuDef*
G36*
G01*
X104935000Y-117755000D02*
X105885000Y-117755000D01*
G75*
G02*
X106135000Y-118005000I0J-250000D01*
G01*
X106135000Y-118680000D01*
G75*
G02*
X105885000Y-118930000I-250000J0D01*
G01*
X104935000Y-118930000D01*
G75*
G02*
X104685000Y-118680000I0J250000D01*
G01*
X104685000Y-118005000D01*
G75*
G02*
X104935000Y-117755000I250000J0D01*
G01*
G37*
G04 #@! TD.AperFunction*
G04 #@! TA.AperFunction,SMDPad,CuDef*
G36*
G01*
X117635000Y-108400000D02*
X118585000Y-108400000D01*
G75*
G02*
X118835000Y-108650000I0J-250000D01*
G01*
X118835000Y-109325000D01*
G75*
G02*
X118585000Y-109575000I-250000J0D01*
G01*
X117635000Y-109575000D01*
G75*
G02*
X117385000Y-109325000I0J250000D01*
G01*
X117385000Y-108650000D01*
G75*
G02*
X117635000Y-108400000I250000J0D01*
G01*
G37*
G04 #@! TD.AperFunction*
G04 #@! TA.AperFunction,SMDPad,CuDef*
G36*
G01*
X117635000Y-106325000D02*
X118585000Y-106325000D01*
G75*
G02*
X118835000Y-106575000I0J-250000D01*
G01*
X118835000Y-107250000D01*
G75*
G02*
X118585000Y-107500000I-250000J0D01*
G01*
X117635000Y-107500000D01*
G75*
G02*
X117385000Y-107250000I0J250000D01*
G01*
X117385000Y-106575000D01*
G75*
G02*
X117635000Y-106325000I250000J0D01*
G01*
G37*
G04 #@! TD.AperFunction*
D10*
X127250000Y-107000000D03*
D11*
X127250000Y-109540000D03*
X127250000Y-112080000D03*
X127250000Y-114620000D03*
X127250000Y-117160000D03*
X127250000Y-119700000D03*
X127250000Y-122240000D03*
X127250000Y-124780000D03*
X127250000Y-127320000D03*
D10*
X100000000Y-100000000D03*
D11*
X100000000Y-102540000D03*
X102540000Y-100000000D03*
X102540000Y-102540000D03*
X105080000Y-100000000D03*
X105080000Y-102540000D03*
X107620000Y-100000000D03*
X107620000Y-102540000D03*
X110160000Y-100000000D03*
X110160000Y-102540000D03*
X112700000Y-100000000D03*
X112700000Y-102540000D03*
X115240000Y-100000000D03*
X115240000Y-102540000D03*
X117780000Y-100000000D03*
X117780000Y-102540000D03*
X120320000Y-100000000D03*
X120320000Y-102540000D03*
X122860000Y-100000000D03*
X122860000Y-102540000D03*
X125400000Y-100000000D03*
X125400000Y-102540000D03*
D10*
X98750000Y-107000000D03*
D11*
X98750000Y-109540000D03*
X98750000Y-112080000D03*
X98750000Y-114620000D03*
X98750000Y-117160000D03*
X98750000Y-119700000D03*
X98750000Y-122240000D03*
X98750000Y-124780000D03*
X98750000Y-127320000D03*
D10*
X100000000Y-132000000D03*
D11*
X102540000Y-132000000D03*
X105080000Y-132000000D03*
X107620000Y-132000000D03*
X110160000Y-132000000D03*
X112700000Y-132000000D03*
X115240000Y-132000000D03*
X117780000Y-132000000D03*
X120320000Y-132000000D03*
X122860000Y-132000000D03*
X125400000Y-132000000D03*
G04 #@! TA.AperFunction,SMDPad,CuDef*
G36*
G01*
X113815000Y-106865000D02*
X113515000Y-106865000D01*
G75*
G02*
X113365000Y-106715000I0J150000D01*
G01*
X113365000Y-104965000D01*
G75*
G02*
X113515000Y-104815000I150000J0D01*
G01*
X113815000Y-104815000D01*
G75*
G02*
X113965000Y-104965000I0J-150000D01*
G01*
X113965000Y-106715000D01*
G75*
G02*
X113815000Y-106865000I-150000J0D01*
G01*
G37*
G04 #@! TD.AperFunction*
G04 #@! TA.AperFunction,SMDPad,CuDef*
G36*
G01*
X112545000Y-106865000D02*
X112245000Y-106865000D01*
G75*
G02*
X112095000Y-106715000I0J150000D01*
G01*
X112095000Y-104965000D01*
G75*
G02*
X112245000Y-104815000I150000J0D01*
G01*
X112545000Y-104815000D01*
G75*
G02*
X112695000Y-104965000I0J-150000D01*
G01*
X112695000Y-106715000D01*
G75*
G02*
X112545000Y-106865000I-150000J0D01*
G01*
G37*
G04 #@! TD.AperFunction*
G04 #@! TA.AperFunction,SMDPad,CuDef*
G36*
G01*
X111275000Y-106865000D02*
X110975000Y-106865000D01*
G75*
G02*
X110825000Y-106715000I0J150000D01*
G01*
X110825000Y-104965000D01*
G75*
G02*
X110975000Y-104815000I150000J0D01*
G01*
X111275000Y-104815000D01*
G75*
G02*
X111425000Y-104965000I0J-150000D01*
G01*
X111425000Y-106715000D01*
G75*
G02*
X111275000Y-106865000I-150000J0D01*
G01*
G37*
G04 #@! TD.AperFunction*
G04 #@! TA.AperFunction,SMDPad,CuDef*
G36*
G01*
X110005000Y-106865000D02*
X109705000Y-106865000D01*
G75*
G02*
X109555000Y-106715000I0J150000D01*
G01*
X109555000Y-104965000D01*
G75*
G02*
X109705000Y-104815000I150000J0D01*
G01*
X110005000Y-104815000D01*
G75*
G02*
X110155000Y-104965000I0J-150000D01*
G01*
X110155000Y-106715000D01*
G75*
G02*
X110005000Y-106865000I-150000J0D01*
G01*
G37*
G04 #@! TD.AperFunction*
G04 #@! TA.AperFunction,SMDPad,CuDef*
G36*
G01*
X108735000Y-106865000D02*
X108435000Y-106865000D01*
G75*
G02*
X108285000Y-106715000I0J150000D01*
G01*
X108285000Y-104965000D01*
G75*
G02*
X108435000Y-104815000I150000J0D01*
G01*
X108735000Y-104815000D01*
G75*
G02*
X108885000Y-104965000I0J-150000D01*
G01*
X108885000Y-106715000D01*
G75*
G02*
X108735000Y-106865000I-150000J0D01*
G01*
G37*
G04 #@! TD.AperFunction*
G04 #@! TA.AperFunction,SMDPad,CuDef*
G36*
G01*
X107465000Y-106865000D02*
X107165000Y-106865000D01*
G75*
G02*
X107015000Y-106715000I0J150000D01*
G01*
X107015000Y-104965000D01*
G75*
G02*
X107165000Y-104815000I150000J0D01*
G01*
X107465000Y-104815000D01*
G75*
G02*
X107615000Y-104965000I0J-150000D01*
G01*
X107615000Y-106715000D01*
G75*
G02*
X107465000Y-106865000I-150000J0D01*
G01*
G37*
G04 #@! TD.AperFunction*
G04 #@! TA.AperFunction,SMDPad,CuDef*
G36*
G01*
X106195000Y-106865000D02*
X105895000Y-106865000D01*
G75*
G02*
X105745000Y-106715000I0J150000D01*
G01*
X105745000Y-104965000D01*
G75*
G02*
X105895000Y-104815000I150000J0D01*
G01*
X106195000Y-104815000D01*
G75*
G02*
X106345000Y-104965000I0J-150000D01*
G01*
X106345000Y-106715000D01*
G75*
G02*
X106195000Y-106865000I-150000J0D01*
G01*
G37*
G04 #@! TD.AperFunction*
G04 #@! TA.AperFunction,SMDPad,CuDef*
G36*
G01*
X104925000Y-106865000D02*
X104625000Y-106865000D01*
G75*
G02*
X104475000Y-106715000I0J150000D01*
G01*
X104475000Y-104965000D01*
G75*
G02*
X104625000Y-104815000I150000J0D01*
G01*
X104925000Y-104815000D01*
G75*
G02*
X105075000Y-104965000I0J-150000D01*
G01*
X105075000Y-106715000D01*
G75*
G02*
X104925000Y-106865000I-150000J0D01*
G01*
G37*
G04 #@! TD.AperFunction*
G04 #@! TA.AperFunction,SMDPad,CuDef*
G36*
G01*
X103655000Y-106865000D02*
X103355000Y-106865000D01*
G75*
G02*
X103205000Y-106715000I0J150000D01*
G01*
X103205000Y-104965000D01*
G75*
G02*
X103355000Y-104815000I150000J0D01*
G01*
X103655000Y-104815000D01*
G75*
G02*
X103805000Y-104965000I0J-150000D01*
G01*
X103805000Y-106715000D01*
G75*
G02*
X103655000Y-106865000I-150000J0D01*
G01*
G37*
G04 #@! TD.AperFunction*
G04 #@! TA.AperFunction,SMDPad,CuDef*
G36*
G01*
X102385000Y-106865000D02*
X102085000Y-106865000D01*
G75*
G02*
X101935000Y-106715000I0J150000D01*
G01*
X101935000Y-104965000D01*
G75*
G02*
X102085000Y-104815000I150000J0D01*
G01*
X102385000Y-104815000D01*
G75*
G02*
X102535000Y-104965000I0J-150000D01*
G01*
X102535000Y-106715000D01*
G75*
G02*
X102385000Y-106865000I-150000J0D01*
G01*
G37*
G04 #@! TD.AperFunction*
G04 #@! TA.AperFunction,SMDPad,CuDef*
G36*
G01*
X102385000Y-116165000D02*
X102085000Y-116165000D01*
G75*
G02*
X101935000Y-116015000I0J150000D01*
G01*
X101935000Y-114265000D01*
G75*
G02*
X102085000Y-114115000I150000J0D01*
G01*
X102385000Y-114115000D01*
G75*
G02*
X102535000Y-114265000I0J-150000D01*
G01*
X102535000Y-116015000D01*
G75*
G02*
X102385000Y-116165000I-150000J0D01*
G01*
G37*
G04 #@! TD.AperFunction*
G04 #@! TA.AperFunction,SMDPad,CuDef*
G36*
G01*
X103655000Y-116165000D02*
X103355000Y-116165000D01*
G75*
G02*
X103205000Y-116015000I0J150000D01*
G01*
X103205000Y-114265000D01*
G75*
G02*
X103355000Y-114115000I150000J0D01*
G01*
X103655000Y-114115000D01*
G75*
G02*
X103805000Y-114265000I0J-150000D01*
G01*
X103805000Y-116015000D01*
G75*
G02*
X103655000Y-116165000I-150000J0D01*
G01*
G37*
G04 #@! TD.AperFunction*
G04 #@! TA.AperFunction,SMDPad,CuDef*
G36*
G01*
X104925000Y-116165000D02*
X104625000Y-116165000D01*
G75*
G02*
X104475000Y-116015000I0J150000D01*
G01*
X104475000Y-114265000D01*
G75*
G02*
X104625000Y-114115000I150000J0D01*
G01*
X104925000Y-114115000D01*
G75*
G02*
X105075000Y-114265000I0J-150000D01*
G01*
X105075000Y-116015000D01*
G75*
G02*
X104925000Y-116165000I-150000J0D01*
G01*
G37*
G04 #@! TD.AperFunction*
G04 #@! TA.AperFunction,SMDPad,CuDef*
G36*
G01*
X106195000Y-116165000D02*
X105895000Y-116165000D01*
G75*
G02*
X105745000Y-116015000I0J150000D01*
G01*
X105745000Y-114265000D01*
G75*
G02*
X105895000Y-114115000I150000J0D01*
G01*
X106195000Y-114115000D01*
G75*
G02*
X106345000Y-114265000I0J-150000D01*
G01*
X106345000Y-116015000D01*
G75*
G02*
X106195000Y-116165000I-150000J0D01*
G01*
G37*
G04 #@! TD.AperFunction*
G04 #@! TA.AperFunction,SMDPad,CuDef*
G36*
G01*
X107465000Y-116165000D02*
X107165000Y-116165000D01*
G75*
G02*
X107015000Y-116015000I0J150000D01*
G01*
X107015000Y-114265000D01*
G75*
G02*
X107165000Y-114115000I150000J0D01*
G01*
X107465000Y-114115000D01*
G75*
G02*
X107615000Y-114265000I0J-150000D01*
G01*
X107615000Y-116015000D01*
G75*
G02*
X107465000Y-116165000I-150000J0D01*
G01*
G37*
G04 #@! TD.AperFunction*
G04 #@! TA.AperFunction,SMDPad,CuDef*
G36*
G01*
X108735000Y-116165000D02*
X108435000Y-116165000D01*
G75*
G02*
X108285000Y-116015000I0J150000D01*
G01*
X108285000Y-114265000D01*
G75*
G02*
X108435000Y-114115000I150000J0D01*
G01*
X108735000Y-114115000D01*
G75*
G02*
X108885000Y-114265000I0J-150000D01*
G01*
X108885000Y-116015000D01*
G75*
G02*
X108735000Y-116165000I-150000J0D01*
G01*
G37*
G04 #@! TD.AperFunction*
G04 #@! TA.AperFunction,SMDPad,CuDef*
G36*
G01*
X110005000Y-116165000D02*
X109705000Y-116165000D01*
G75*
G02*
X109555000Y-116015000I0J150000D01*
G01*
X109555000Y-114265000D01*
G75*
G02*
X109705000Y-114115000I150000J0D01*
G01*
X110005000Y-114115000D01*
G75*
G02*
X110155000Y-114265000I0J-150000D01*
G01*
X110155000Y-116015000D01*
G75*
G02*
X110005000Y-116165000I-150000J0D01*
G01*
G37*
G04 #@! TD.AperFunction*
G04 #@! TA.AperFunction,SMDPad,CuDef*
G36*
G01*
X111275000Y-116165000D02*
X110975000Y-116165000D01*
G75*
G02*
X110825000Y-116015000I0J150000D01*
G01*
X110825000Y-114265000D01*
G75*
G02*
X110975000Y-114115000I150000J0D01*
G01*
X111275000Y-114115000D01*
G75*
G02*
X111425000Y-114265000I0J-150000D01*
G01*
X111425000Y-116015000D01*
G75*
G02*
X111275000Y-116165000I-150000J0D01*
G01*
G37*
G04 #@! TD.AperFunction*
G04 #@! TA.AperFunction,SMDPad,CuDef*
G36*
G01*
X112545000Y-116165000D02*
X112245000Y-116165000D01*
G75*
G02*
X112095000Y-116015000I0J150000D01*
G01*
X112095000Y-114265000D01*
G75*
G02*
X112245000Y-114115000I150000J0D01*
G01*
X112545000Y-114115000D01*
G75*
G02*
X112695000Y-114265000I0J-150000D01*
G01*
X112695000Y-116015000D01*
G75*
G02*
X112545000Y-116165000I-150000J0D01*
G01*
G37*
G04 #@! TD.AperFunction*
G04 #@! TA.AperFunction,SMDPad,CuDef*
G36*
G01*
X113815000Y-116165000D02*
X113515000Y-116165000D01*
G75*
G02*
X113365000Y-116015000I0J150000D01*
G01*
X113365000Y-114265000D01*
G75*
G02*
X113515000Y-114115000I150000J0D01*
G01*
X113815000Y-114115000D01*
G75*
G02*
X113965000Y-114265000I0J-150000D01*
G01*
X113965000Y-116015000D01*
G75*
G02*
X113815000Y-116165000I-150000J0D01*
G01*
G37*
G04 #@! TD.AperFunction*
G04 #@! TA.AperFunction,SMDPad,CuDef*
G36*
G01*
X112245000Y-117945000D02*
X112545000Y-117945000D01*
G75*
G02*
X112695000Y-118095000I0J-150000D01*
G01*
X112695000Y-119845000D01*
G75*
G02*
X112545000Y-119995000I-150000J0D01*
G01*
X112245000Y-119995000D01*
G75*
G02*
X112095000Y-119845000I0J150000D01*
G01*
X112095000Y-118095000D01*
G75*
G02*
X112245000Y-117945000I150000J0D01*
G01*
G37*
G04 #@! TD.AperFunction*
G04 #@! TA.AperFunction,SMDPad,CuDef*
G36*
G01*
X113515000Y-117945000D02*
X113815000Y-117945000D01*
G75*
G02*
X113965000Y-118095000I0J-150000D01*
G01*
X113965000Y-119845000D01*
G75*
G02*
X113815000Y-119995000I-150000J0D01*
G01*
X113515000Y-119995000D01*
G75*
G02*
X113365000Y-119845000I0J150000D01*
G01*
X113365000Y-118095000D01*
G75*
G02*
X113515000Y-117945000I150000J0D01*
G01*
G37*
G04 #@! TD.AperFunction*
G04 #@! TA.AperFunction,SMDPad,CuDef*
G36*
G01*
X114785000Y-117945000D02*
X115085000Y-117945000D01*
G75*
G02*
X115235000Y-118095000I0J-150000D01*
G01*
X115235000Y-119845000D01*
G75*
G02*
X115085000Y-119995000I-150000J0D01*
G01*
X114785000Y-119995000D01*
G75*
G02*
X114635000Y-119845000I0J150000D01*
G01*
X114635000Y-118095000D01*
G75*
G02*
X114785000Y-117945000I150000J0D01*
G01*
G37*
G04 #@! TD.AperFunction*
G04 #@! TA.AperFunction,SMDPad,CuDef*
G36*
G01*
X116055000Y-117945000D02*
X116355000Y-117945000D01*
G75*
G02*
X116505000Y-118095000I0J-150000D01*
G01*
X116505000Y-119845000D01*
G75*
G02*
X116355000Y-119995000I-150000J0D01*
G01*
X116055000Y-119995000D01*
G75*
G02*
X115905000Y-119845000I0J150000D01*
G01*
X115905000Y-118095000D01*
G75*
G02*
X116055000Y-117945000I150000J0D01*
G01*
G37*
G04 #@! TD.AperFunction*
G04 #@! TA.AperFunction,SMDPad,CuDef*
G36*
G01*
X117325000Y-117945000D02*
X117625000Y-117945000D01*
G75*
G02*
X117775000Y-118095000I0J-150000D01*
G01*
X117775000Y-119845000D01*
G75*
G02*
X117625000Y-119995000I-150000J0D01*
G01*
X117325000Y-119995000D01*
G75*
G02*
X117175000Y-119845000I0J150000D01*
G01*
X117175000Y-118095000D01*
G75*
G02*
X117325000Y-117945000I150000J0D01*
G01*
G37*
G04 #@! TD.AperFunction*
G04 #@! TA.AperFunction,SMDPad,CuDef*
G36*
G01*
X118595000Y-117945000D02*
X118895000Y-117945000D01*
G75*
G02*
X119045000Y-118095000I0J-150000D01*
G01*
X119045000Y-119845000D01*
G75*
G02*
X118895000Y-119995000I-150000J0D01*
G01*
X118595000Y-119995000D01*
G75*
G02*
X118445000Y-119845000I0J150000D01*
G01*
X118445000Y-118095000D01*
G75*
G02*
X118595000Y-117945000I150000J0D01*
G01*
G37*
G04 #@! TD.AperFunction*
G04 #@! TA.AperFunction,SMDPad,CuDef*
G36*
G01*
X119865000Y-117945000D02*
X120165000Y-117945000D01*
G75*
G02*
X120315000Y-118095000I0J-150000D01*
G01*
X120315000Y-119845000D01*
G75*
G02*
X120165000Y-119995000I-150000J0D01*
G01*
X119865000Y-119995000D01*
G75*
G02*
X119715000Y-119845000I0J150000D01*
G01*
X119715000Y-118095000D01*
G75*
G02*
X119865000Y-117945000I150000J0D01*
G01*
G37*
G04 #@! TD.AperFunction*
G04 #@! TA.AperFunction,SMDPad,CuDef*
G36*
G01*
X121135000Y-117945000D02*
X121435000Y-117945000D01*
G75*
G02*
X121585000Y-118095000I0J-150000D01*
G01*
X121585000Y-119845000D01*
G75*
G02*
X121435000Y-119995000I-150000J0D01*
G01*
X121135000Y-119995000D01*
G75*
G02*
X120985000Y-119845000I0J150000D01*
G01*
X120985000Y-118095000D01*
G75*
G02*
X121135000Y-117945000I150000J0D01*
G01*
G37*
G04 #@! TD.AperFunction*
G04 #@! TA.AperFunction,SMDPad,CuDef*
G36*
G01*
X122405000Y-117945000D02*
X122705000Y-117945000D01*
G75*
G02*
X122855000Y-118095000I0J-150000D01*
G01*
X122855000Y-119845000D01*
G75*
G02*
X122705000Y-119995000I-150000J0D01*
G01*
X122405000Y-119995000D01*
G75*
G02*
X122255000Y-119845000I0J150000D01*
G01*
X122255000Y-118095000D01*
G75*
G02*
X122405000Y-117945000I150000J0D01*
G01*
G37*
G04 #@! TD.AperFunction*
G04 #@! TA.AperFunction,SMDPad,CuDef*
G36*
G01*
X123675000Y-117945000D02*
X123975000Y-117945000D01*
G75*
G02*
X124125000Y-118095000I0J-150000D01*
G01*
X124125000Y-119845000D01*
G75*
G02*
X123975000Y-119995000I-150000J0D01*
G01*
X123675000Y-119995000D01*
G75*
G02*
X123525000Y-119845000I0J150000D01*
G01*
X123525000Y-118095000D01*
G75*
G02*
X123675000Y-117945000I150000J0D01*
G01*
G37*
G04 #@! TD.AperFunction*
G04 #@! TA.AperFunction,SMDPad,CuDef*
G36*
G01*
X123675000Y-127245000D02*
X123975000Y-127245000D01*
G75*
G02*
X124125000Y-127395000I0J-150000D01*
G01*
X124125000Y-129145000D01*
G75*
G02*
X123975000Y-129295000I-150000J0D01*
G01*
X123675000Y-129295000D01*
G75*
G02*
X123525000Y-129145000I0J150000D01*
G01*
X123525000Y-127395000D01*
G75*
G02*
X123675000Y-127245000I150000J0D01*
G01*
G37*
G04 #@! TD.AperFunction*
G04 #@! TA.AperFunction,SMDPad,CuDef*
G36*
G01*
X122405000Y-127245000D02*
X122705000Y-127245000D01*
G75*
G02*
X122855000Y-127395000I0J-150000D01*
G01*
X122855000Y-129145000D01*
G75*
G02*
X122705000Y-129295000I-150000J0D01*
G01*
X122405000Y-129295000D01*
G75*
G02*
X122255000Y-129145000I0J150000D01*
G01*
X122255000Y-127395000D01*
G75*
G02*
X122405000Y-127245000I150000J0D01*
G01*
G37*
G04 #@! TD.AperFunction*
G04 #@! TA.AperFunction,SMDPad,CuDef*
G36*
G01*
X121135000Y-127245000D02*
X121435000Y-127245000D01*
G75*
G02*
X121585000Y-127395000I0J-150000D01*
G01*
X121585000Y-129145000D01*
G75*
G02*
X121435000Y-129295000I-150000J0D01*
G01*
X121135000Y-129295000D01*
G75*
G02*
X120985000Y-129145000I0J150000D01*
G01*
X120985000Y-127395000D01*
G75*
G02*
X121135000Y-127245000I150000J0D01*
G01*
G37*
G04 #@! TD.AperFunction*
G04 #@! TA.AperFunction,SMDPad,CuDef*
G36*
G01*
X119865000Y-127245000D02*
X120165000Y-127245000D01*
G75*
G02*
X120315000Y-127395000I0J-150000D01*
G01*
X120315000Y-129145000D01*
G75*
G02*
X120165000Y-129295000I-150000J0D01*
G01*
X119865000Y-129295000D01*
G75*
G02*
X119715000Y-129145000I0J150000D01*
G01*
X119715000Y-127395000D01*
G75*
G02*
X119865000Y-127245000I150000J0D01*
G01*
G37*
G04 #@! TD.AperFunction*
G04 #@! TA.AperFunction,SMDPad,CuDef*
G36*
G01*
X118595000Y-127245000D02*
X118895000Y-127245000D01*
G75*
G02*
X119045000Y-127395000I0J-150000D01*
G01*
X119045000Y-129145000D01*
G75*
G02*
X118895000Y-129295000I-150000J0D01*
G01*
X118595000Y-129295000D01*
G75*
G02*
X118445000Y-129145000I0J150000D01*
G01*
X118445000Y-127395000D01*
G75*
G02*
X118595000Y-127245000I150000J0D01*
G01*
G37*
G04 #@! TD.AperFunction*
G04 #@! TA.AperFunction,SMDPad,CuDef*
G36*
G01*
X117325000Y-127245000D02*
X117625000Y-127245000D01*
G75*
G02*
X117775000Y-127395000I0J-150000D01*
G01*
X117775000Y-129145000D01*
G75*
G02*
X117625000Y-129295000I-150000J0D01*
G01*
X117325000Y-129295000D01*
G75*
G02*
X117175000Y-129145000I0J150000D01*
G01*
X117175000Y-127395000D01*
G75*
G02*
X117325000Y-127245000I150000J0D01*
G01*
G37*
G04 #@! TD.AperFunction*
G04 #@! TA.AperFunction,SMDPad,CuDef*
G36*
G01*
X116055000Y-127245000D02*
X116355000Y-127245000D01*
G75*
G02*
X116505000Y-127395000I0J-150000D01*
G01*
X116505000Y-129145000D01*
G75*
G02*
X116355000Y-129295000I-150000J0D01*
G01*
X116055000Y-129295000D01*
G75*
G02*
X115905000Y-129145000I0J150000D01*
G01*
X115905000Y-127395000D01*
G75*
G02*
X116055000Y-127245000I150000J0D01*
G01*
G37*
G04 #@! TD.AperFunction*
G04 #@! TA.AperFunction,SMDPad,CuDef*
G36*
G01*
X114785000Y-127245000D02*
X115085000Y-127245000D01*
G75*
G02*
X115235000Y-127395000I0J-150000D01*
G01*
X115235000Y-129145000D01*
G75*
G02*
X115085000Y-129295000I-150000J0D01*
G01*
X114785000Y-129295000D01*
G75*
G02*
X114635000Y-129145000I0J150000D01*
G01*
X114635000Y-127395000D01*
G75*
G02*
X114785000Y-127245000I150000J0D01*
G01*
G37*
G04 #@! TD.AperFunction*
G04 #@! TA.AperFunction,SMDPad,CuDef*
G36*
G01*
X113515000Y-127245000D02*
X113815000Y-127245000D01*
G75*
G02*
X113965000Y-127395000I0J-150000D01*
G01*
X113965000Y-129145000D01*
G75*
G02*
X113815000Y-129295000I-150000J0D01*
G01*
X113515000Y-129295000D01*
G75*
G02*
X113365000Y-129145000I0J150000D01*
G01*
X113365000Y-127395000D01*
G75*
G02*
X113515000Y-127245000I150000J0D01*
G01*
G37*
G04 #@! TD.AperFunction*
G04 #@! TA.AperFunction,SMDPad,CuDef*
G36*
G01*
X112245000Y-127245000D02*
X112545000Y-127245000D01*
G75*
G02*
X112695000Y-127395000I0J-150000D01*
G01*
X112695000Y-129145000D01*
G75*
G02*
X112545000Y-129295000I-150000J0D01*
G01*
X112245000Y-129295000D01*
G75*
G02*
X112095000Y-129145000I0J150000D01*
G01*
X112095000Y-127395000D01*
G75*
G02*
X112245000Y-127245000I150000J0D01*
G01*
G37*
G04 #@! TD.AperFunction*
D12*
X104711000Y-108356100D03*
X112073000Y-108610500D03*
X108353700Y-107692800D03*
X120735800Y-126669300D03*
X117680000Y-111382000D03*
X110029200Y-122553700D03*
X117680000Y-124751700D03*
X107855700Y-111165400D03*
X122923900Y-120599600D03*
X114744300Y-115149900D03*
X114975200Y-113482100D03*
X118782500Y-110835200D03*
X116256900Y-111720500D03*
D13*
X106045000Y-115140000D02*
X106045000Y-109690100D01*
X106045000Y-109690100D02*
X104711000Y-108356100D01*
X102540000Y-102540000D02*
X103715300Y-102540000D01*
X106045000Y-105840000D02*
X106045000Y-105407700D01*
X106045000Y-105407700D02*
X103715300Y-103078000D01*
X103715300Y-103078000D02*
X103715300Y-102540000D01*
X105080000Y-102540000D02*
X105080000Y-103715300D01*
X107315000Y-105840000D02*
X107315000Y-105307500D01*
X107315000Y-105307500D02*
X105722800Y-103715300D01*
X105722800Y-103715300D02*
X105080000Y-103715300D01*
X107620000Y-102540000D02*
X107620000Y-103715300D01*
X108585000Y-105840000D02*
X108585000Y-104680300D01*
X108585000Y-104680300D02*
X107620000Y-103715300D01*
X103505000Y-105840000D02*
X103505000Y-105396400D01*
X103505000Y-105396400D02*
X101364600Y-103256000D01*
X101364600Y-103256000D02*
X101364600Y-102014700D01*
X101364600Y-102014700D02*
X102016200Y-101363100D01*
X102016200Y-101363100D02*
X110648400Y-101363100D01*
X110648400Y-101363100D02*
X111335400Y-102050100D01*
X111335400Y-102050100D02*
X111335400Y-102901500D01*
X111335400Y-102901500D02*
X112498600Y-104064700D01*
X112498600Y-104064700D02*
X113616000Y-104064700D01*
X113616000Y-104064700D02*
X114302300Y-104751000D01*
X114302300Y-104751000D02*
X114302300Y-106905100D01*
X114302300Y-106905100D02*
X112596900Y-108610500D01*
X112596900Y-108610500D02*
X112073000Y-108610500D01*
X98750000Y-110904700D02*
X99117300Y-110904700D01*
X99117300Y-110904700D02*
X103505000Y-106517000D01*
X103505000Y-106517000D02*
X103505000Y-105840000D01*
X127250000Y-112080000D02*
X127250000Y-113255300D01*
X127250000Y-113255300D02*
X126882600Y-113255300D01*
X126882600Y-113255300D02*
X126074700Y-114063200D01*
X126074700Y-114063200D02*
X126074700Y-120987300D01*
X126074700Y-120987300D02*
X122555000Y-124507000D01*
X122555000Y-124507000D02*
X122555000Y-128270000D01*
X98750000Y-112080000D02*
X98750000Y-110904700D01*
X104812300Y-107228000D02*
X105277000Y-107692800D01*
X105277000Y-107692800D02*
X108353700Y-107692800D01*
X104775000Y-105840000D02*
X104775000Y-107190800D01*
X104775000Y-107190800D02*
X104812300Y-107228000D01*
X104812300Y-107228000D02*
X99925300Y-112115000D01*
X99925300Y-112115000D02*
X99925300Y-112636800D01*
X99925300Y-112636800D02*
X99117400Y-113444700D01*
X99117400Y-113444700D02*
X98750000Y-113444700D01*
X98750000Y-114620000D02*
X98750000Y-113444700D01*
X121285000Y-128270000D02*
X121285000Y-127218500D01*
X121285000Y-127218500D02*
X120735800Y-126669300D01*
D14*
X117680000Y-111382000D02*
X117680000Y-109417500D01*
X117680000Y-109417500D02*
X118110000Y-108987500D01*
X113665000Y-115140000D02*
X113665000Y-113636200D01*
X113665000Y-113636200D02*
X114703000Y-112598200D01*
X114703000Y-112598200D02*
X116514700Y-112598200D01*
X116514700Y-112598200D02*
X117680000Y-111432900D01*
X117680000Y-111432900D02*
X117680000Y-111382000D01*
X97481000Y-115890000D02*
X101485000Y-115890000D01*
X101485000Y-115890000D02*
X102235000Y-115140000D01*
X97481000Y-115890000D02*
X97481000Y-120204300D01*
X97481000Y-120204300D02*
X98246700Y-120970000D01*
X98246700Y-120970000D02*
X104857500Y-120970000D01*
X104857500Y-120970000D02*
X105410000Y-120417500D01*
X98750000Y-108250300D02*
X98203000Y-108250300D01*
X98203000Y-108250300D02*
X97481000Y-108972300D01*
X97481000Y-108972300D02*
X97481000Y-115890000D01*
X110029200Y-121370800D02*
X106363300Y-121370800D01*
X106363300Y-121370800D02*
X105410000Y-120417500D01*
X112395000Y-118970000D02*
X112394900Y-118970000D01*
X112394900Y-118970000D02*
X112394900Y-119005100D01*
X112394900Y-119005100D02*
X110029200Y-121370800D01*
X110029200Y-122553700D02*
X110029200Y-121370800D01*
X110029200Y-122553700D02*
X112130400Y-124654900D01*
X112130400Y-124654900D02*
X112829700Y-124654900D01*
X98750000Y-107000000D02*
X98750000Y-108250300D01*
X98750000Y-107000000D02*
X101075000Y-107000000D01*
X101075000Y-107000000D02*
X102235000Y-105840000D01*
X103505000Y-115140000D02*
X102235000Y-115140000D01*
X122555000Y-118970000D02*
X123825000Y-118970000D01*
X122555000Y-118970000D02*
X122555000Y-119683100D01*
X122555000Y-119683100D02*
X117583200Y-124654900D01*
X112829700Y-128270000D02*
X113665000Y-128270000D01*
X112395000Y-128270000D02*
X112829700Y-128270000D01*
X112829700Y-124654900D02*
X117583200Y-124654900D01*
X112829700Y-128270000D02*
X112829700Y-124654900D01*
X117583200Y-124654900D02*
X117680000Y-124751700D01*
X112395000Y-105840000D02*
X112395000Y-106626100D01*
X112395000Y-106626100D02*
X107855700Y-111165400D01*
X112395000Y-105840000D02*
X113665000Y-105840000D01*
X125400000Y-132000000D02*
X125400000Y-130749700D01*
X123825000Y-128270000D02*
X123825000Y-129174700D01*
X123825000Y-129174700D02*
X125400000Y-130749700D01*
D13*
X122860000Y-130824700D02*
X121920100Y-129884800D01*
X121920100Y-129884800D02*
X121920100Y-124186700D01*
X121920100Y-124186700D02*
X125400000Y-120706800D01*
X125400000Y-120706800D02*
X125400000Y-112198000D01*
X125400000Y-112198000D02*
X126882700Y-110715300D01*
X126882700Y-110715300D02*
X127250000Y-110715300D01*
X127250000Y-109540000D02*
X127250000Y-110715300D01*
X122860000Y-132000000D02*
X122860000Y-130824700D01*
X114935000Y-128270000D02*
X114935000Y-127763400D01*
X114935000Y-127763400D02*
X117092000Y-125606400D01*
X117092000Y-125606400D02*
X117917100Y-125606400D01*
X117917100Y-125606400D02*
X122923900Y-120599600D01*
X98750000Y-119700000D02*
X99925300Y-119700000D01*
X104775000Y-117390000D02*
X104775000Y-115140000D01*
X105410000Y-118025000D02*
X104775000Y-117390000D01*
X104775000Y-117390000D02*
X102235300Y-117390000D01*
X102235300Y-117390000D02*
X99925300Y-119700000D01*
X118955300Y-132000000D02*
X118955300Y-132367300D01*
X118955300Y-132367300D02*
X119802200Y-133214200D01*
X119802200Y-133214200D02*
X123364200Y-133214200D01*
X123364200Y-133214200D02*
X124063300Y-132515100D01*
X124063300Y-132515100D02*
X124063300Y-131023700D01*
X124063300Y-131023700D02*
X123190000Y-130150400D01*
X123190000Y-130150400D02*
X123190000Y-124615000D01*
X123190000Y-124615000D02*
X126929700Y-120875300D01*
X126929700Y-120875300D02*
X127250000Y-120875300D01*
X119380000Y-120331700D02*
X119380000Y-111263500D01*
X119380000Y-111263500D02*
X119507800Y-111135700D01*
X119507800Y-111135700D02*
X119507800Y-108310300D01*
X119507800Y-108310300D02*
X118110000Y-106912500D01*
X127250000Y-119700000D02*
X127250000Y-120875300D01*
X117780000Y-132000000D02*
X118955300Y-132000000D01*
X119380000Y-120331700D02*
X120420000Y-120331700D01*
X120420000Y-120331700D02*
X121285000Y-119466700D01*
X121285000Y-119466700D02*
X121285000Y-118970000D01*
X113665000Y-118970000D02*
X113665000Y-119476600D01*
X113665000Y-119476600D02*
X114520100Y-120331700D01*
X114520100Y-120331700D02*
X119380000Y-120331700D01*
X105410000Y-118025000D02*
X105410000Y-118342500D01*
X105410000Y-118025000D02*
X111514400Y-118025000D01*
X111514400Y-118025000D02*
X112395000Y-117144400D01*
X112395000Y-117144400D02*
X113665000Y-118414400D01*
X113665000Y-118414400D02*
X113665000Y-118970000D01*
X112395000Y-115140000D02*
X112395000Y-117144400D01*
X127250000Y-122240000D02*
X127250000Y-123415300D01*
X98750000Y-122240000D02*
X98750000Y-123415300D01*
X98750000Y-123415300D02*
X99117300Y-123415300D01*
X99117300Y-123415300D02*
X106297400Y-130595400D01*
X106297400Y-130595400D02*
X106297400Y-132369700D01*
X106297400Y-132369700D02*
X107592300Y-133664600D01*
X107592300Y-133664600D02*
X125418900Y-133664600D01*
X125418900Y-133664600D02*
X126602000Y-132481500D01*
X126602000Y-132481500D02*
X126602000Y-129349700D01*
X126602000Y-129349700D02*
X125874400Y-128622100D01*
X125874400Y-128622100D02*
X125874400Y-124423600D01*
X125874400Y-124423600D02*
X126882700Y-123415300D01*
X126882700Y-123415300D02*
X127250000Y-123415300D01*
X110160000Y-132000000D02*
X111335300Y-132000000D01*
X116205000Y-128270000D02*
X116205000Y-128699800D01*
X116205000Y-128699800D02*
X114080100Y-130824700D01*
X114080100Y-130824700D02*
X112143200Y-130824700D01*
X112143200Y-130824700D02*
X111335300Y-131632600D01*
X111335300Y-131632600D02*
X111335300Y-132000000D01*
X110160000Y-102540000D02*
X110160000Y-103715300D01*
X109855000Y-105840000D02*
X109855000Y-104020300D01*
X109855000Y-104020300D02*
X110160000Y-103715300D01*
X116205000Y-118970000D02*
X116205000Y-116610600D01*
X116205000Y-116610600D02*
X114744300Y-115149900D01*
X117475000Y-118970000D02*
X117475000Y-115981900D01*
X117475000Y-115981900D02*
X114975200Y-113482100D01*
X118745000Y-118970000D02*
X118745000Y-110872700D01*
X118745000Y-110872700D02*
X118782500Y-110835200D01*
X120320000Y-100000000D02*
X120320000Y-101175300D01*
X109855000Y-115140000D02*
X109855000Y-113454500D01*
X109855000Y-113454500D02*
X119144700Y-104164800D01*
X119144700Y-104164800D02*
X119144700Y-101983200D01*
X119144700Y-101983200D02*
X119952600Y-101175300D01*
X119952600Y-101175300D02*
X120320000Y-101175300D01*
X120320000Y-102540000D02*
X120320000Y-103715300D01*
X120015000Y-118970000D02*
X120015000Y-104020300D01*
X120015000Y-104020300D02*
X120320000Y-103715300D01*
X122860000Y-100000000D02*
X121684700Y-100000000D01*
X108585000Y-115140000D02*
X108585000Y-114087600D01*
X108585000Y-114087600D02*
X116510000Y-106162600D01*
X116510000Y-106162600D02*
X116510000Y-102132400D01*
X116510000Y-102132400D02*
X117277800Y-101364600D01*
X117277800Y-101364600D02*
X118079600Y-101364600D01*
X118079600Y-101364600D02*
X119050000Y-100394200D01*
X119050000Y-100394200D02*
X119050000Y-99524300D01*
X119050000Y-99524300D02*
X119749600Y-98824700D01*
X119749600Y-98824700D02*
X120876800Y-98824700D01*
X120876800Y-98824700D02*
X121684700Y-99632600D01*
X121684700Y-99632600D02*
X121684700Y-100000000D01*
X122860000Y-102540000D02*
X122860000Y-103715300D01*
X120015000Y-128270000D02*
X120015000Y-128769300D01*
X120015000Y-128769300D02*
X119136000Y-129648300D01*
X119136000Y-129648300D02*
X118366500Y-129648300D01*
X118366500Y-129648300D02*
X118110000Y-129391800D01*
X118110000Y-129391800D02*
X118110000Y-126723000D01*
X118110000Y-126723000D02*
X124456800Y-120376200D01*
X124456800Y-120376200D02*
X124456800Y-105312100D01*
X124456800Y-105312100D02*
X122860000Y-103715300D01*
X125400000Y-100000000D02*
X124224700Y-100000000D01*
X107315000Y-115140000D02*
X107315000Y-114625100D01*
X107315000Y-114625100D02*
X114771800Y-107168300D01*
X114771800Y-107168300D02*
X114771800Y-104321500D01*
X114771800Y-104321500D02*
X114026300Y-103576000D01*
X114026300Y-103576000D02*
X114026300Y-99524300D01*
X114026300Y-99524300D02*
X115215200Y-98335400D01*
X115215200Y-98335400D02*
X122927400Y-98335400D01*
X122927400Y-98335400D02*
X124224700Y-99632700D01*
X124224700Y-99632700D02*
X124224700Y-100000000D01*
X118745000Y-128270000D02*
X118745000Y-126724900D01*
X118745000Y-126724900D02*
X124912900Y-120557000D01*
X124912900Y-120557000D02*
X124912900Y-104202400D01*
X124912900Y-104202400D02*
X125400000Y-103715300D01*
X125400000Y-102540000D02*
X125400000Y-103715300D01*
X107620000Y-132000000D02*
X108795300Y-132000000D01*
X117475000Y-128270000D02*
X117475000Y-130404700D01*
X117475000Y-130404700D02*
X116510000Y-131369700D01*
X116510000Y-131369700D02*
X116510000Y-132498300D01*
X116510000Y-132498300D02*
X115833000Y-133175300D01*
X115833000Y-133175300D02*
X109603200Y-133175300D01*
X109603200Y-133175300D02*
X108795300Y-132367400D01*
X108795300Y-132367400D02*
X108795300Y-132000000D01*
X111125000Y-115140000D02*
X111125000Y-114021500D01*
X111125000Y-114021500D02*
X113426000Y-111720500D01*
X113426000Y-111720500D02*
X116256900Y-111720500D01*
X114935000Y-118970000D02*
X114935000Y-118386800D01*
X114935000Y-118386800D02*
X113030000Y-116481800D01*
X113030000Y-116481800D02*
X113030000Y-114010700D01*
X113030000Y-114010700D02*
X112800200Y-113780900D01*
X112800200Y-113780900D02*
X112034400Y-113780900D01*
X112034400Y-113780900D02*
X111760000Y-114055300D01*
X111760000Y-114055300D02*
X111760000Y-116256700D01*
X111760000Y-116256700D02*
X111465300Y-116551400D01*
X111465300Y-116551400D02*
X107009600Y-116551400D01*
X107009600Y-116551400D02*
X106680000Y-116221800D01*
X106680000Y-116221800D02*
X106680000Y-111285000D01*
X106680000Y-111285000D02*
X111125000Y-106840000D01*
X111125000Y-106840000D02*
X111125000Y-105840000D01*
M02*
