G04 #@! TF.GenerationSoftware,KiCad,Pcbnew,5.1.9*
G04 #@! TF.CreationDate,2021-04-03T20:04:09+02:00*
G04 #@! TF.ProjectId,driverboard,64726976-6572-4626-9f61-72642e6b6963,rev?*
G04 #@! TF.SameCoordinates,Original*
G04 #@! TF.FileFunction,Soldermask,Bot*
G04 #@! TF.FilePolarity,Negative*
%FSLAX46Y46*%
G04 Gerber Fmt 4.6, Leading zero omitted, Abs format (unit mm)*
G04 Created by KiCad (PCBNEW 5.1.9) date 2021-04-03 20:04:09*
%MOMM*%
%LPD*%
G01*
G04 APERTURE LIST*
%ADD10O,1.802000X1.802000*%
G04 APERTURE END LIST*
G36*
G01*
X104905702Y-119779000D02*
X105914298Y-119779000D01*
G75*
G02*
X106186000Y-120050702I0J-271702D01*
G01*
X106186000Y-120784298D01*
G75*
G02*
X105914298Y-121056000I-271702J0D01*
G01*
X104905702Y-121056000D01*
G75*
G02*
X104634000Y-120784298I0J271702D01*
G01*
X104634000Y-120050702D01*
G75*
G02*
X104905702Y-119779000I271702J0D01*
G01*
G37*
G36*
G01*
X104905702Y-117704000D02*
X105914298Y-117704000D01*
G75*
G02*
X106186000Y-117975702I0J-271702D01*
G01*
X106186000Y-118709298D01*
G75*
G02*
X105914298Y-118981000I-271702J0D01*
G01*
X104905702Y-118981000D01*
G75*
G02*
X104634000Y-118709298I0J271702D01*
G01*
X104634000Y-117975702D01*
G75*
G02*
X104905702Y-117704000I271702J0D01*
G01*
G37*
G36*
G01*
X117605702Y-108349000D02*
X118614298Y-108349000D01*
G75*
G02*
X118886000Y-108620702I0J-271702D01*
G01*
X118886000Y-109354298D01*
G75*
G02*
X118614298Y-109626000I-271702J0D01*
G01*
X117605702Y-109626000D01*
G75*
G02*
X117334000Y-109354298I0J271702D01*
G01*
X117334000Y-108620702D01*
G75*
G02*
X117605702Y-108349000I271702J0D01*
G01*
G37*
G36*
G01*
X117605702Y-106274000D02*
X118614298Y-106274000D01*
G75*
G02*
X118886000Y-106545702I0J-271702D01*
G01*
X118886000Y-107279298D01*
G75*
G02*
X118614298Y-107551000I-271702J0D01*
G01*
X117605702Y-107551000D01*
G75*
G02*
X117334000Y-107279298I0J271702D01*
G01*
X117334000Y-106545702D01*
G75*
G02*
X117605702Y-106274000I271702J0D01*
G01*
G37*
G36*
G01*
X128151000Y-106150000D02*
X128151000Y-107850000D01*
G75*
G02*
X128100000Y-107901000I-51000J0D01*
G01*
X126400000Y-107901000D01*
G75*
G02*
X126349000Y-107850000I0J51000D01*
G01*
X126349000Y-106150000D01*
G75*
G02*
X126400000Y-106099000I51000J0D01*
G01*
X128100000Y-106099000D01*
G75*
G02*
X128151000Y-106150000I0J-51000D01*
G01*
G37*
D10*
X127250000Y-109540000D03*
X127250000Y-112080000D03*
X127250000Y-114620000D03*
X127250000Y-117160000D03*
X127250000Y-119700000D03*
X127250000Y-122240000D03*
X127250000Y-124780000D03*
X127250000Y-127320000D03*
G36*
G01*
X100850000Y-100901000D02*
X99150000Y-100901000D01*
G75*
G02*
X99099000Y-100850000I0J51000D01*
G01*
X99099000Y-99150000D01*
G75*
G02*
X99150000Y-99099000I51000J0D01*
G01*
X100850000Y-99099000D01*
G75*
G02*
X100901000Y-99150000I0J-51000D01*
G01*
X100901000Y-100850000D01*
G75*
G02*
X100850000Y-100901000I-51000J0D01*
G01*
G37*
X100000000Y-102540000D03*
X102540000Y-100000000D03*
X102540000Y-102540000D03*
X105080000Y-100000000D03*
X105080000Y-102540000D03*
X107620000Y-100000000D03*
X107620000Y-102540000D03*
X110160000Y-100000000D03*
X110160000Y-102540000D03*
X112700000Y-100000000D03*
X112700000Y-102540000D03*
X115240000Y-100000000D03*
X115240000Y-102540000D03*
X117780000Y-100000000D03*
X117780000Y-102540000D03*
X120320000Y-100000000D03*
X120320000Y-102540000D03*
X122860000Y-100000000D03*
X122860000Y-102540000D03*
X125400000Y-100000000D03*
X125400000Y-102540000D03*
G36*
G01*
X99651000Y-106150000D02*
X99651000Y-107850000D01*
G75*
G02*
X99600000Y-107901000I-51000J0D01*
G01*
X97900000Y-107901000D01*
G75*
G02*
X97849000Y-107850000I0J51000D01*
G01*
X97849000Y-106150000D01*
G75*
G02*
X97900000Y-106099000I51000J0D01*
G01*
X99600000Y-106099000D01*
G75*
G02*
X99651000Y-106150000I0J-51000D01*
G01*
G37*
X98750000Y-109540000D03*
X98750000Y-112080000D03*
X98750000Y-114620000D03*
X98750000Y-117160000D03*
X98750000Y-119700000D03*
X98750000Y-122240000D03*
X98750000Y-124780000D03*
X98750000Y-127320000D03*
G36*
G01*
X100850000Y-132901000D02*
X99150000Y-132901000D01*
G75*
G02*
X99099000Y-132850000I0J51000D01*
G01*
X99099000Y-131150000D01*
G75*
G02*
X99150000Y-131099000I51000J0D01*
G01*
X100850000Y-131099000D01*
G75*
G02*
X100901000Y-131150000I0J-51000D01*
G01*
X100901000Y-132850000D01*
G75*
G02*
X100850000Y-132901000I-51000J0D01*
G01*
G37*
X102540000Y-132000000D03*
X105080000Y-132000000D03*
X107620000Y-132000000D03*
X110160000Y-132000000D03*
X112700000Y-132000000D03*
X115240000Y-132000000D03*
X117780000Y-132000000D03*
X120320000Y-132000000D03*
X122860000Y-132000000D03*
X125400000Y-132000000D03*
G36*
G01*
X113840500Y-106916000D02*
X113489500Y-106916000D01*
G75*
G02*
X113314000Y-106740500I0J175500D01*
G01*
X113314000Y-104939500D01*
G75*
G02*
X113489500Y-104764000I175500J0D01*
G01*
X113840500Y-104764000D01*
G75*
G02*
X114016000Y-104939500I0J-175500D01*
G01*
X114016000Y-106740500D01*
G75*
G02*
X113840500Y-106916000I-175500J0D01*
G01*
G37*
G36*
G01*
X112570500Y-106916000D02*
X112219500Y-106916000D01*
G75*
G02*
X112044000Y-106740500I0J175500D01*
G01*
X112044000Y-104939500D01*
G75*
G02*
X112219500Y-104764000I175500J0D01*
G01*
X112570500Y-104764000D01*
G75*
G02*
X112746000Y-104939500I0J-175500D01*
G01*
X112746000Y-106740500D01*
G75*
G02*
X112570500Y-106916000I-175500J0D01*
G01*
G37*
G36*
G01*
X111300500Y-106916000D02*
X110949500Y-106916000D01*
G75*
G02*
X110774000Y-106740500I0J175500D01*
G01*
X110774000Y-104939500D01*
G75*
G02*
X110949500Y-104764000I175500J0D01*
G01*
X111300500Y-104764000D01*
G75*
G02*
X111476000Y-104939500I0J-175500D01*
G01*
X111476000Y-106740500D01*
G75*
G02*
X111300500Y-106916000I-175500J0D01*
G01*
G37*
G36*
G01*
X110030500Y-106916000D02*
X109679500Y-106916000D01*
G75*
G02*
X109504000Y-106740500I0J175500D01*
G01*
X109504000Y-104939500D01*
G75*
G02*
X109679500Y-104764000I175500J0D01*
G01*
X110030500Y-104764000D01*
G75*
G02*
X110206000Y-104939500I0J-175500D01*
G01*
X110206000Y-106740500D01*
G75*
G02*
X110030500Y-106916000I-175500J0D01*
G01*
G37*
G36*
G01*
X108760500Y-106916000D02*
X108409500Y-106916000D01*
G75*
G02*
X108234000Y-106740500I0J175500D01*
G01*
X108234000Y-104939500D01*
G75*
G02*
X108409500Y-104764000I175500J0D01*
G01*
X108760500Y-104764000D01*
G75*
G02*
X108936000Y-104939500I0J-175500D01*
G01*
X108936000Y-106740500D01*
G75*
G02*
X108760500Y-106916000I-175500J0D01*
G01*
G37*
G36*
G01*
X107490500Y-106916000D02*
X107139500Y-106916000D01*
G75*
G02*
X106964000Y-106740500I0J175500D01*
G01*
X106964000Y-104939500D01*
G75*
G02*
X107139500Y-104764000I175500J0D01*
G01*
X107490500Y-104764000D01*
G75*
G02*
X107666000Y-104939500I0J-175500D01*
G01*
X107666000Y-106740500D01*
G75*
G02*
X107490500Y-106916000I-175500J0D01*
G01*
G37*
G36*
G01*
X106220500Y-106916000D02*
X105869500Y-106916000D01*
G75*
G02*
X105694000Y-106740500I0J175500D01*
G01*
X105694000Y-104939500D01*
G75*
G02*
X105869500Y-104764000I175500J0D01*
G01*
X106220500Y-104764000D01*
G75*
G02*
X106396000Y-104939500I0J-175500D01*
G01*
X106396000Y-106740500D01*
G75*
G02*
X106220500Y-106916000I-175500J0D01*
G01*
G37*
G36*
G01*
X104950500Y-106916000D02*
X104599500Y-106916000D01*
G75*
G02*
X104424000Y-106740500I0J175500D01*
G01*
X104424000Y-104939500D01*
G75*
G02*
X104599500Y-104764000I175500J0D01*
G01*
X104950500Y-104764000D01*
G75*
G02*
X105126000Y-104939500I0J-175500D01*
G01*
X105126000Y-106740500D01*
G75*
G02*
X104950500Y-106916000I-175500J0D01*
G01*
G37*
G36*
G01*
X103680500Y-106916000D02*
X103329500Y-106916000D01*
G75*
G02*
X103154000Y-106740500I0J175500D01*
G01*
X103154000Y-104939500D01*
G75*
G02*
X103329500Y-104764000I175500J0D01*
G01*
X103680500Y-104764000D01*
G75*
G02*
X103856000Y-104939500I0J-175500D01*
G01*
X103856000Y-106740500D01*
G75*
G02*
X103680500Y-106916000I-175500J0D01*
G01*
G37*
G36*
G01*
X102410500Y-106916000D02*
X102059500Y-106916000D01*
G75*
G02*
X101884000Y-106740500I0J175500D01*
G01*
X101884000Y-104939500D01*
G75*
G02*
X102059500Y-104764000I175500J0D01*
G01*
X102410500Y-104764000D01*
G75*
G02*
X102586000Y-104939500I0J-175500D01*
G01*
X102586000Y-106740500D01*
G75*
G02*
X102410500Y-106916000I-175500J0D01*
G01*
G37*
G36*
G01*
X102410500Y-116216000D02*
X102059500Y-116216000D01*
G75*
G02*
X101884000Y-116040500I0J175500D01*
G01*
X101884000Y-114239500D01*
G75*
G02*
X102059500Y-114064000I175500J0D01*
G01*
X102410500Y-114064000D01*
G75*
G02*
X102586000Y-114239500I0J-175500D01*
G01*
X102586000Y-116040500D01*
G75*
G02*
X102410500Y-116216000I-175500J0D01*
G01*
G37*
G36*
G01*
X103680500Y-116216000D02*
X103329500Y-116216000D01*
G75*
G02*
X103154000Y-116040500I0J175500D01*
G01*
X103154000Y-114239500D01*
G75*
G02*
X103329500Y-114064000I175500J0D01*
G01*
X103680500Y-114064000D01*
G75*
G02*
X103856000Y-114239500I0J-175500D01*
G01*
X103856000Y-116040500D01*
G75*
G02*
X103680500Y-116216000I-175500J0D01*
G01*
G37*
G36*
G01*
X104950500Y-116216000D02*
X104599500Y-116216000D01*
G75*
G02*
X104424000Y-116040500I0J175500D01*
G01*
X104424000Y-114239500D01*
G75*
G02*
X104599500Y-114064000I175500J0D01*
G01*
X104950500Y-114064000D01*
G75*
G02*
X105126000Y-114239500I0J-175500D01*
G01*
X105126000Y-116040500D01*
G75*
G02*
X104950500Y-116216000I-175500J0D01*
G01*
G37*
G36*
G01*
X106220500Y-116216000D02*
X105869500Y-116216000D01*
G75*
G02*
X105694000Y-116040500I0J175500D01*
G01*
X105694000Y-114239500D01*
G75*
G02*
X105869500Y-114064000I175500J0D01*
G01*
X106220500Y-114064000D01*
G75*
G02*
X106396000Y-114239500I0J-175500D01*
G01*
X106396000Y-116040500D01*
G75*
G02*
X106220500Y-116216000I-175500J0D01*
G01*
G37*
G36*
G01*
X107490500Y-116216000D02*
X107139500Y-116216000D01*
G75*
G02*
X106964000Y-116040500I0J175500D01*
G01*
X106964000Y-114239500D01*
G75*
G02*
X107139500Y-114064000I175500J0D01*
G01*
X107490500Y-114064000D01*
G75*
G02*
X107666000Y-114239500I0J-175500D01*
G01*
X107666000Y-116040500D01*
G75*
G02*
X107490500Y-116216000I-175500J0D01*
G01*
G37*
G36*
G01*
X108760500Y-116216000D02*
X108409500Y-116216000D01*
G75*
G02*
X108234000Y-116040500I0J175500D01*
G01*
X108234000Y-114239500D01*
G75*
G02*
X108409500Y-114064000I175500J0D01*
G01*
X108760500Y-114064000D01*
G75*
G02*
X108936000Y-114239500I0J-175500D01*
G01*
X108936000Y-116040500D01*
G75*
G02*
X108760500Y-116216000I-175500J0D01*
G01*
G37*
G36*
G01*
X110030500Y-116216000D02*
X109679500Y-116216000D01*
G75*
G02*
X109504000Y-116040500I0J175500D01*
G01*
X109504000Y-114239500D01*
G75*
G02*
X109679500Y-114064000I175500J0D01*
G01*
X110030500Y-114064000D01*
G75*
G02*
X110206000Y-114239500I0J-175500D01*
G01*
X110206000Y-116040500D01*
G75*
G02*
X110030500Y-116216000I-175500J0D01*
G01*
G37*
G36*
G01*
X111300500Y-116216000D02*
X110949500Y-116216000D01*
G75*
G02*
X110774000Y-116040500I0J175500D01*
G01*
X110774000Y-114239500D01*
G75*
G02*
X110949500Y-114064000I175500J0D01*
G01*
X111300500Y-114064000D01*
G75*
G02*
X111476000Y-114239500I0J-175500D01*
G01*
X111476000Y-116040500D01*
G75*
G02*
X111300500Y-116216000I-175500J0D01*
G01*
G37*
G36*
G01*
X112570500Y-116216000D02*
X112219500Y-116216000D01*
G75*
G02*
X112044000Y-116040500I0J175500D01*
G01*
X112044000Y-114239500D01*
G75*
G02*
X112219500Y-114064000I175500J0D01*
G01*
X112570500Y-114064000D01*
G75*
G02*
X112746000Y-114239500I0J-175500D01*
G01*
X112746000Y-116040500D01*
G75*
G02*
X112570500Y-116216000I-175500J0D01*
G01*
G37*
G36*
G01*
X113840500Y-116216000D02*
X113489500Y-116216000D01*
G75*
G02*
X113314000Y-116040500I0J175500D01*
G01*
X113314000Y-114239500D01*
G75*
G02*
X113489500Y-114064000I175500J0D01*
G01*
X113840500Y-114064000D01*
G75*
G02*
X114016000Y-114239500I0J-175500D01*
G01*
X114016000Y-116040500D01*
G75*
G02*
X113840500Y-116216000I-175500J0D01*
G01*
G37*
G36*
G01*
X112219500Y-117894000D02*
X112570500Y-117894000D01*
G75*
G02*
X112746000Y-118069500I0J-175500D01*
G01*
X112746000Y-119870500D01*
G75*
G02*
X112570500Y-120046000I-175500J0D01*
G01*
X112219500Y-120046000D01*
G75*
G02*
X112044000Y-119870500I0J175500D01*
G01*
X112044000Y-118069500D01*
G75*
G02*
X112219500Y-117894000I175500J0D01*
G01*
G37*
G36*
G01*
X113489500Y-117894000D02*
X113840500Y-117894000D01*
G75*
G02*
X114016000Y-118069500I0J-175500D01*
G01*
X114016000Y-119870500D01*
G75*
G02*
X113840500Y-120046000I-175500J0D01*
G01*
X113489500Y-120046000D01*
G75*
G02*
X113314000Y-119870500I0J175500D01*
G01*
X113314000Y-118069500D01*
G75*
G02*
X113489500Y-117894000I175500J0D01*
G01*
G37*
G36*
G01*
X114759500Y-117894000D02*
X115110500Y-117894000D01*
G75*
G02*
X115286000Y-118069500I0J-175500D01*
G01*
X115286000Y-119870500D01*
G75*
G02*
X115110500Y-120046000I-175500J0D01*
G01*
X114759500Y-120046000D01*
G75*
G02*
X114584000Y-119870500I0J175500D01*
G01*
X114584000Y-118069500D01*
G75*
G02*
X114759500Y-117894000I175500J0D01*
G01*
G37*
G36*
G01*
X116029500Y-117894000D02*
X116380500Y-117894000D01*
G75*
G02*
X116556000Y-118069500I0J-175500D01*
G01*
X116556000Y-119870500D01*
G75*
G02*
X116380500Y-120046000I-175500J0D01*
G01*
X116029500Y-120046000D01*
G75*
G02*
X115854000Y-119870500I0J175500D01*
G01*
X115854000Y-118069500D01*
G75*
G02*
X116029500Y-117894000I175500J0D01*
G01*
G37*
G36*
G01*
X117299500Y-117894000D02*
X117650500Y-117894000D01*
G75*
G02*
X117826000Y-118069500I0J-175500D01*
G01*
X117826000Y-119870500D01*
G75*
G02*
X117650500Y-120046000I-175500J0D01*
G01*
X117299500Y-120046000D01*
G75*
G02*
X117124000Y-119870500I0J175500D01*
G01*
X117124000Y-118069500D01*
G75*
G02*
X117299500Y-117894000I175500J0D01*
G01*
G37*
G36*
G01*
X118569500Y-117894000D02*
X118920500Y-117894000D01*
G75*
G02*
X119096000Y-118069500I0J-175500D01*
G01*
X119096000Y-119870500D01*
G75*
G02*
X118920500Y-120046000I-175500J0D01*
G01*
X118569500Y-120046000D01*
G75*
G02*
X118394000Y-119870500I0J175500D01*
G01*
X118394000Y-118069500D01*
G75*
G02*
X118569500Y-117894000I175500J0D01*
G01*
G37*
G36*
G01*
X119839500Y-117894000D02*
X120190500Y-117894000D01*
G75*
G02*
X120366000Y-118069500I0J-175500D01*
G01*
X120366000Y-119870500D01*
G75*
G02*
X120190500Y-120046000I-175500J0D01*
G01*
X119839500Y-120046000D01*
G75*
G02*
X119664000Y-119870500I0J175500D01*
G01*
X119664000Y-118069500D01*
G75*
G02*
X119839500Y-117894000I175500J0D01*
G01*
G37*
G36*
G01*
X121109500Y-117894000D02*
X121460500Y-117894000D01*
G75*
G02*
X121636000Y-118069500I0J-175500D01*
G01*
X121636000Y-119870500D01*
G75*
G02*
X121460500Y-120046000I-175500J0D01*
G01*
X121109500Y-120046000D01*
G75*
G02*
X120934000Y-119870500I0J175500D01*
G01*
X120934000Y-118069500D01*
G75*
G02*
X121109500Y-117894000I175500J0D01*
G01*
G37*
G36*
G01*
X122379500Y-117894000D02*
X122730500Y-117894000D01*
G75*
G02*
X122906000Y-118069500I0J-175500D01*
G01*
X122906000Y-119870500D01*
G75*
G02*
X122730500Y-120046000I-175500J0D01*
G01*
X122379500Y-120046000D01*
G75*
G02*
X122204000Y-119870500I0J175500D01*
G01*
X122204000Y-118069500D01*
G75*
G02*
X122379500Y-117894000I175500J0D01*
G01*
G37*
G36*
G01*
X123649500Y-117894000D02*
X124000500Y-117894000D01*
G75*
G02*
X124176000Y-118069500I0J-175500D01*
G01*
X124176000Y-119870500D01*
G75*
G02*
X124000500Y-120046000I-175500J0D01*
G01*
X123649500Y-120046000D01*
G75*
G02*
X123474000Y-119870500I0J175500D01*
G01*
X123474000Y-118069500D01*
G75*
G02*
X123649500Y-117894000I175500J0D01*
G01*
G37*
G36*
G01*
X123649500Y-127194000D02*
X124000500Y-127194000D01*
G75*
G02*
X124176000Y-127369500I0J-175500D01*
G01*
X124176000Y-129170500D01*
G75*
G02*
X124000500Y-129346000I-175500J0D01*
G01*
X123649500Y-129346000D01*
G75*
G02*
X123474000Y-129170500I0J175500D01*
G01*
X123474000Y-127369500D01*
G75*
G02*
X123649500Y-127194000I175500J0D01*
G01*
G37*
G36*
G01*
X122379500Y-127194000D02*
X122730500Y-127194000D01*
G75*
G02*
X122906000Y-127369500I0J-175500D01*
G01*
X122906000Y-129170500D01*
G75*
G02*
X122730500Y-129346000I-175500J0D01*
G01*
X122379500Y-129346000D01*
G75*
G02*
X122204000Y-129170500I0J175500D01*
G01*
X122204000Y-127369500D01*
G75*
G02*
X122379500Y-127194000I175500J0D01*
G01*
G37*
G36*
G01*
X121109500Y-127194000D02*
X121460500Y-127194000D01*
G75*
G02*
X121636000Y-127369500I0J-175500D01*
G01*
X121636000Y-129170500D01*
G75*
G02*
X121460500Y-129346000I-175500J0D01*
G01*
X121109500Y-129346000D01*
G75*
G02*
X120934000Y-129170500I0J175500D01*
G01*
X120934000Y-127369500D01*
G75*
G02*
X121109500Y-127194000I175500J0D01*
G01*
G37*
G36*
G01*
X119839500Y-127194000D02*
X120190500Y-127194000D01*
G75*
G02*
X120366000Y-127369500I0J-175500D01*
G01*
X120366000Y-129170500D01*
G75*
G02*
X120190500Y-129346000I-175500J0D01*
G01*
X119839500Y-129346000D01*
G75*
G02*
X119664000Y-129170500I0J175500D01*
G01*
X119664000Y-127369500D01*
G75*
G02*
X119839500Y-127194000I175500J0D01*
G01*
G37*
G36*
G01*
X118569500Y-127194000D02*
X118920500Y-127194000D01*
G75*
G02*
X119096000Y-127369500I0J-175500D01*
G01*
X119096000Y-129170500D01*
G75*
G02*
X118920500Y-129346000I-175500J0D01*
G01*
X118569500Y-129346000D01*
G75*
G02*
X118394000Y-129170500I0J175500D01*
G01*
X118394000Y-127369500D01*
G75*
G02*
X118569500Y-127194000I175500J0D01*
G01*
G37*
G36*
G01*
X117299500Y-127194000D02*
X117650500Y-127194000D01*
G75*
G02*
X117826000Y-127369500I0J-175500D01*
G01*
X117826000Y-129170500D01*
G75*
G02*
X117650500Y-129346000I-175500J0D01*
G01*
X117299500Y-129346000D01*
G75*
G02*
X117124000Y-129170500I0J175500D01*
G01*
X117124000Y-127369500D01*
G75*
G02*
X117299500Y-127194000I175500J0D01*
G01*
G37*
G36*
G01*
X116029500Y-127194000D02*
X116380500Y-127194000D01*
G75*
G02*
X116556000Y-127369500I0J-175500D01*
G01*
X116556000Y-129170500D01*
G75*
G02*
X116380500Y-129346000I-175500J0D01*
G01*
X116029500Y-129346000D01*
G75*
G02*
X115854000Y-129170500I0J175500D01*
G01*
X115854000Y-127369500D01*
G75*
G02*
X116029500Y-127194000I175500J0D01*
G01*
G37*
G36*
G01*
X114759500Y-127194000D02*
X115110500Y-127194000D01*
G75*
G02*
X115286000Y-127369500I0J-175500D01*
G01*
X115286000Y-129170500D01*
G75*
G02*
X115110500Y-129346000I-175500J0D01*
G01*
X114759500Y-129346000D01*
G75*
G02*
X114584000Y-129170500I0J175500D01*
G01*
X114584000Y-127369500D01*
G75*
G02*
X114759500Y-127194000I175500J0D01*
G01*
G37*
G36*
G01*
X113489500Y-127194000D02*
X113840500Y-127194000D01*
G75*
G02*
X114016000Y-127369500I0J-175500D01*
G01*
X114016000Y-129170500D01*
G75*
G02*
X113840500Y-129346000I-175500J0D01*
G01*
X113489500Y-129346000D01*
G75*
G02*
X113314000Y-129170500I0J175500D01*
G01*
X113314000Y-127369500D01*
G75*
G02*
X113489500Y-127194000I175500J0D01*
G01*
G37*
G36*
G01*
X112219500Y-127194000D02*
X112570500Y-127194000D01*
G75*
G02*
X112746000Y-127369500I0J-175500D01*
G01*
X112746000Y-129170500D01*
G75*
G02*
X112570500Y-129346000I-175500J0D01*
G01*
X112219500Y-129346000D01*
G75*
G02*
X112044000Y-129170500I0J175500D01*
G01*
X112044000Y-127369500D01*
G75*
G02*
X112219500Y-127194000I175500J0D01*
G01*
G37*
M02*
