G04 #@! TF.GenerationSoftware,KiCad,Pcbnew,5.1.9*
G04 #@! TF.CreationDate,2021-04-03T20:04:09+02:00*
G04 #@! TF.ProjectId,driverboard,64726976-6572-4626-9f61-72642e6b6963,rev?*
G04 #@! TF.SameCoordinates,Original*
G04 #@! TF.FileFunction,Legend,Bot*
G04 #@! TF.FilePolarity,Positive*
%FSLAX46Y46*%
G04 Gerber Fmt 4.6, Leading zero omitted, Abs format (unit mm)*
G04 Created by KiCad (PCBNEW 5.1.9) date 2021-04-03 20:04:09*
%MOMM*%
%LPD*%
G01*
G04 APERTURE LIST*
%ADD10C,0.120000*%
%ADD11C,0.150000*%
G04 APERTURE END LIST*
D10*
X104675000Y-119118748D02*
X104675000Y-119641252D01*
X106145000Y-119118748D02*
X106145000Y-119641252D01*
X117375000Y-107688748D02*
X117375000Y-108211252D01*
X118845000Y-107688748D02*
X118845000Y-108211252D01*
X137340000Y-105790000D02*
X128710000Y-105790000D01*
X137340000Y-105908095D02*
X128710000Y-105908095D01*
X137340000Y-106026190D02*
X128710000Y-106026190D01*
X137340000Y-106144285D02*
X128710000Y-106144285D01*
X137340000Y-106262380D02*
X128710000Y-106262380D01*
X137340000Y-106380475D02*
X128710000Y-106380475D01*
X137340000Y-106498570D02*
X128710000Y-106498570D01*
X137340000Y-106616665D02*
X128710000Y-106616665D01*
X137340000Y-106734760D02*
X128710000Y-106734760D01*
X137340000Y-106852855D02*
X128710000Y-106852855D01*
X137340000Y-106970950D02*
X128710000Y-106970950D01*
X137340000Y-107089045D02*
X128710000Y-107089045D01*
X137340000Y-107207140D02*
X128710000Y-107207140D01*
X137340000Y-107325235D02*
X128710000Y-107325235D01*
X137340000Y-107443330D02*
X128710000Y-107443330D01*
X137340000Y-107561425D02*
X128710000Y-107561425D01*
X137340000Y-107679520D02*
X128710000Y-107679520D01*
X137340000Y-107797615D02*
X128710000Y-107797615D01*
X137340000Y-107915710D02*
X128710000Y-107915710D01*
X137340000Y-108033805D02*
X128710000Y-108033805D01*
X137340000Y-108151900D02*
X128710000Y-108151900D01*
X128710000Y-106640000D02*
X128360000Y-106640000D01*
X128710000Y-107360000D02*
X128360000Y-107360000D01*
X128710000Y-109180000D02*
X128300000Y-109180000D01*
X128710000Y-109900000D02*
X128300000Y-109900000D01*
X128710000Y-111720000D02*
X128300000Y-111720000D01*
X128710000Y-112440000D02*
X128300000Y-112440000D01*
X128710000Y-114260000D02*
X128300000Y-114260000D01*
X128710000Y-114980000D02*
X128300000Y-114980000D01*
X128710000Y-116800000D02*
X128300000Y-116800000D01*
X128710000Y-117520000D02*
X128300000Y-117520000D01*
X128710000Y-119340000D02*
X128300000Y-119340000D01*
X128710000Y-120060000D02*
X128300000Y-120060000D01*
X128710000Y-121880000D02*
X128300000Y-121880000D01*
X128710000Y-122600000D02*
X128300000Y-122600000D01*
X128710000Y-124420000D02*
X128300000Y-124420000D01*
X128710000Y-125140000D02*
X128300000Y-125140000D01*
X128710000Y-126960000D02*
X128300000Y-126960000D01*
X128710000Y-127680000D02*
X128300000Y-127680000D01*
X137340000Y-108270000D02*
X128710000Y-108270000D01*
X137340000Y-110810000D02*
X128710000Y-110810000D01*
X137340000Y-113350000D02*
X128710000Y-113350000D01*
X137340000Y-115890000D02*
X128710000Y-115890000D01*
X137340000Y-118430000D02*
X128710000Y-118430000D01*
X137340000Y-120970000D02*
X128710000Y-120970000D01*
X137340000Y-123510000D02*
X128710000Y-123510000D01*
X137340000Y-126050000D02*
X128710000Y-126050000D01*
X137340000Y-105670000D02*
X128710000Y-105670000D01*
X128710000Y-105670000D02*
X128710000Y-128650000D01*
X137340000Y-128650000D02*
X128710000Y-128650000D01*
X137340000Y-105670000D02*
X137340000Y-128650000D01*
X126140000Y-105670000D02*
X126140000Y-107000000D01*
X127250000Y-105670000D02*
X126140000Y-105670000D01*
X97310000Y-105670000D02*
X97310000Y-128650000D01*
X97310000Y-128650000D02*
X94650000Y-128650000D01*
X94650000Y-128650000D02*
X94650000Y-105670000D01*
X94650000Y-105670000D02*
X97310000Y-105670000D01*
X94650000Y-106620000D02*
X88650000Y-106620000D01*
X88650000Y-106620000D02*
X88650000Y-107380000D01*
X88650000Y-107380000D02*
X94650000Y-107380000D01*
X94650000Y-106680000D02*
X88650000Y-106680000D01*
X94650000Y-106800000D02*
X88650000Y-106800000D01*
X94650000Y-106920000D02*
X88650000Y-106920000D01*
X94650000Y-107040000D02*
X88650000Y-107040000D01*
X94650000Y-107160000D02*
X88650000Y-107160000D01*
X94650000Y-107280000D02*
X88650000Y-107280000D01*
X97640000Y-106620000D02*
X97310000Y-106620000D01*
X97640000Y-107380000D02*
X97310000Y-107380000D01*
X97310000Y-108270000D02*
X94650000Y-108270000D01*
X94650000Y-109160000D02*
X88650000Y-109160000D01*
X88650000Y-109160000D02*
X88650000Y-109920000D01*
X88650000Y-109920000D02*
X94650000Y-109920000D01*
X97707071Y-109160000D02*
X97310000Y-109160000D01*
X97707071Y-109920000D02*
X97310000Y-109920000D01*
X97310000Y-110810000D02*
X94650000Y-110810000D01*
X94650000Y-111700000D02*
X88650000Y-111700000D01*
X88650000Y-111700000D02*
X88650000Y-112460000D01*
X88650000Y-112460000D02*
X94650000Y-112460000D01*
X97707071Y-111700000D02*
X97310000Y-111700000D01*
X97707071Y-112460000D02*
X97310000Y-112460000D01*
X97310000Y-113350000D02*
X94650000Y-113350000D01*
X94650000Y-114240000D02*
X88650000Y-114240000D01*
X88650000Y-114240000D02*
X88650000Y-115000000D01*
X88650000Y-115000000D02*
X94650000Y-115000000D01*
X97707071Y-114240000D02*
X97310000Y-114240000D01*
X97707071Y-115000000D02*
X97310000Y-115000000D01*
X97310000Y-115890000D02*
X94650000Y-115890000D01*
X94650000Y-116780000D02*
X88650000Y-116780000D01*
X88650000Y-116780000D02*
X88650000Y-117540000D01*
X88650000Y-117540000D02*
X94650000Y-117540000D01*
X97707071Y-116780000D02*
X97310000Y-116780000D01*
X97707071Y-117540000D02*
X97310000Y-117540000D01*
X97310000Y-118430000D02*
X94650000Y-118430000D01*
X94650000Y-119320000D02*
X88650000Y-119320000D01*
X88650000Y-119320000D02*
X88650000Y-120080000D01*
X88650000Y-120080000D02*
X94650000Y-120080000D01*
X97707071Y-119320000D02*
X97310000Y-119320000D01*
X97707071Y-120080000D02*
X97310000Y-120080000D01*
X97310000Y-120970000D02*
X94650000Y-120970000D01*
X94650000Y-121860000D02*
X88650000Y-121860000D01*
X88650000Y-121860000D02*
X88650000Y-122620000D01*
X88650000Y-122620000D02*
X94650000Y-122620000D01*
X97707071Y-121860000D02*
X97310000Y-121860000D01*
X97707071Y-122620000D02*
X97310000Y-122620000D01*
X97310000Y-123510000D02*
X94650000Y-123510000D01*
X94650000Y-124400000D02*
X88650000Y-124400000D01*
X88650000Y-124400000D02*
X88650000Y-125160000D01*
X88650000Y-125160000D02*
X94650000Y-125160000D01*
X97707071Y-124400000D02*
X97310000Y-124400000D01*
X97707071Y-125160000D02*
X97310000Y-125160000D01*
X97310000Y-126050000D02*
X94650000Y-126050000D01*
X94650000Y-126940000D02*
X88650000Y-126940000D01*
X88650000Y-126940000D02*
X88650000Y-127700000D01*
X88650000Y-127700000D02*
X94650000Y-127700000D01*
X97707071Y-126940000D02*
X97310000Y-126940000D01*
X97707071Y-127700000D02*
X97310000Y-127700000D01*
X100020000Y-107000000D02*
X100020000Y-105730000D01*
X100020000Y-105730000D02*
X98750000Y-105730000D01*
X114225000Y-114350000D02*
X114225000Y-116165000D01*
X114460000Y-114350000D02*
X114225000Y-114350000D01*
X114460000Y-110490000D02*
X114460000Y-114350000D01*
X114460000Y-106630000D02*
X114225000Y-106630000D01*
X114460000Y-110490000D02*
X114460000Y-106630000D01*
X101440000Y-114350000D02*
X101675000Y-114350000D01*
X101440000Y-110490000D02*
X101440000Y-114350000D01*
X101440000Y-106630000D02*
X101675000Y-106630000D01*
X101440000Y-110490000D02*
X101440000Y-106630000D01*
X124620000Y-123620000D02*
X124620000Y-127480000D01*
X124620000Y-127480000D02*
X124385000Y-127480000D01*
X124620000Y-123620000D02*
X124620000Y-119760000D01*
X124620000Y-119760000D02*
X124385000Y-119760000D01*
X111600000Y-123620000D02*
X111600000Y-127480000D01*
X111600000Y-127480000D02*
X111835000Y-127480000D01*
X111600000Y-123620000D02*
X111600000Y-119760000D01*
X111600000Y-119760000D02*
X111835000Y-119760000D01*
X111835000Y-119760000D02*
X111835000Y-117945000D01*
D11*
X104087142Y-119213333D02*
X104134761Y-119165714D01*
X104182380Y-119022857D01*
X104182380Y-118927619D01*
X104134761Y-118784761D01*
X104039523Y-118689523D01*
X103944285Y-118641904D01*
X103753809Y-118594285D01*
X103610952Y-118594285D01*
X103420476Y-118641904D01*
X103325238Y-118689523D01*
X103230000Y-118784761D01*
X103182380Y-118927619D01*
X103182380Y-119022857D01*
X103230000Y-119165714D01*
X103277619Y-119213333D01*
X103277619Y-119594285D02*
X103230000Y-119641904D01*
X103182380Y-119737142D01*
X103182380Y-119975238D01*
X103230000Y-120070476D01*
X103277619Y-120118095D01*
X103372857Y-120165714D01*
X103468095Y-120165714D01*
X103610952Y-120118095D01*
X104182380Y-119546666D01*
X104182380Y-120165714D01*
X116787142Y-107783333D02*
X116834761Y-107735714D01*
X116882380Y-107592857D01*
X116882380Y-107497619D01*
X116834761Y-107354761D01*
X116739523Y-107259523D01*
X116644285Y-107211904D01*
X116453809Y-107164285D01*
X116310952Y-107164285D01*
X116120476Y-107211904D01*
X116025238Y-107259523D01*
X115930000Y-107354761D01*
X115882380Y-107497619D01*
X115882380Y-107592857D01*
X115930000Y-107735714D01*
X115977619Y-107783333D01*
X116882380Y-108735714D02*
X116882380Y-108164285D01*
X116882380Y-108450000D02*
X115882380Y-108450000D01*
X116025238Y-108354761D01*
X116120476Y-108259523D01*
X116168095Y-108164285D01*
X131963333Y-103682380D02*
X131963333Y-104396666D01*
X132010952Y-104539523D01*
X132106190Y-104634761D01*
X132249047Y-104682380D01*
X132344285Y-104682380D01*
X131582380Y-103682380D02*
X130963333Y-103682380D01*
X131296666Y-104063333D01*
X131153809Y-104063333D01*
X131058571Y-104110952D01*
X131010952Y-104158571D01*
X130963333Y-104253809D01*
X130963333Y-104491904D01*
X131010952Y-104587142D01*
X131058571Y-104634761D01*
X131153809Y-104682380D01*
X131439523Y-104682380D01*
X131534761Y-104634761D01*
X131582380Y-104587142D01*
X94698333Y-104182380D02*
X94698333Y-104896666D01*
X94745952Y-105039523D01*
X94841190Y-105134761D01*
X94984047Y-105182380D01*
X95079285Y-105182380D01*
X94269761Y-104277619D02*
X94222142Y-104230000D01*
X94126904Y-104182380D01*
X93888809Y-104182380D01*
X93793571Y-104230000D01*
X93745952Y-104277619D01*
X93698333Y-104372857D01*
X93698333Y-104468095D01*
X93745952Y-104610952D01*
X94317380Y-105182380D01*
X93698333Y-105182380D01*
X114752380Y-109728095D02*
X115561904Y-109728095D01*
X115657142Y-109775714D01*
X115704761Y-109823333D01*
X115752380Y-109918571D01*
X115752380Y-110109047D01*
X115704761Y-110204285D01*
X115657142Y-110251904D01*
X115561904Y-110299523D01*
X114752380Y-110299523D01*
X114847619Y-110728095D02*
X114800000Y-110775714D01*
X114752380Y-110870952D01*
X114752380Y-111109047D01*
X114800000Y-111204285D01*
X114847619Y-111251904D01*
X114942857Y-111299523D01*
X115038095Y-111299523D01*
X115180952Y-111251904D01*
X115752380Y-110680476D01*
X115752380Y-111299523D01*
X110212380Y-122858095D02*
X111021904Y-122858095D01*
X111117142Y-122905714D01*
X111164761Y-122953333D01*
X111212380Y-123048571D01*
X111212380Y-123239047D01*
X111164761Y-123334285D01*
X111117142Y-123381904D01*
X111021904Y-123429523D01*
X110212380Y-123429523D01*
X110212380Y-123810476D02*
X110212380Y-124429523D01*
X110593333Y-124096190D01*
X110593333Y-124239047D01*
X110640952Y-124334285D01*
X110688571Y-124381904D01*
X110783809Y-124429523D01*
X111021904Y-124429523D01*
X111117142Y-124381904D01*
X111164761Y-124334285D01*
X111212380Y-124239047D01*
X111212380Y-123953333D01*
X111164761Y-123858095D01*
X111117142Y-123810476D01*
M02*
