M48
; DRILL file {KiCad 5.1.2} date Sun 05 May 2019 06:37:32 PM CEST
; FORMAT={3:3/ absolute / metric / suppress leading zeros}
; #@! TF.CreationDate,2019-05-05T18:37:32+02:00
; #@! TF.GenerationSoftware,Kicad,Pcbnew,5.1.2
FMAT,2
METRIC,TZ
T1C0.400
T2C0.800
T3C1.000
%
G90
G05
T1
X101474Y-118620
X120250Y-129250
X121250Y-130500
X124250Y-129750
X125654Y-103991
T2
X104090Y-111000
X104090Y-113540
X104090Y-116080
X104090Y-118620
X104090Y-121160
X104090Y-123700
X106630Y-108460
X106630Y-111000
X106630Y-113540
X106630Y-116080
X106630Y-118620
X106630Y-121160
X106630Y-123700
X106630Y-126240
X109170Y-108460
X109170Y-111000
X109170Y-123700
X109170Y-126240
X111710Y-108460
X111710Y-111000
X111710Y-123700
X111710Y-126240
X114250Y-108460
X114250Y-111000
X114250Y-123700
X114250Y-126240
X116790Y-108460
X116790Y-111000
X116790Y-123700
X116790Y-126240
X119330Y-108460
X119330Y-111000
X119330Y-113540
X119330Y-116080
X119330Y-118620
X119330Y-121160
X119330Y-123700
X119330Y-126240
X121870Y-111000
X121870Y-113540
X121870Y-116080
X121870Y-118620
X121870Y-121160
X121870Y-123700
T3
X127250Y-107000
X127250Y-109540
X127250Y-112080
X127250Y-114620
X127250Y-117160
X127250Y-119700
X127250Y-122240
X127250Y-124780
X127250Y-127320
X100000Y-132000
X102540Y-132000
X105080Y-132000
X107620Y-132000
X110160Y-132000
X112700Y-132000
X115240Y-132000
X117780Y-132000
X120320Y-132000
X122860Y-132000
X125400Y-132000
X98750Y-107000
X98750Y-109540
X98750Y-112080
X98750Y-114620
X98750Y-117160
X98750Y-119700
X98750Y-122240
X98750Y-124780
X98750Y-127320
X100000Y-100000
X100000Y-102540
X102540Y-100000
X102540Y-102540
X105080Y-100000
X105080Y-102540
X107620Y-100000
X107620Y-102540
X110160Y-100000
X110160Y-102540
X112700Y-100000
X112700Y-102540
X115240Y-100000
X115240Y-102540
X117780Y-100000
X117780Y-102540
X120320Y-100000
X120320Y-102540
X122860Y-100000
X122860Y-102540
X125400Y-100000
X125400Y-102540
T0
M30
