G04 #@! TF.GenerationSoftware,KiCad,Pcbnew,5.1.2*
G04 #@! TF.CreationDate,2019-05-05T18:37:35+02:00*
G04 #@! TF.ProjectId,driverboard,64726976-6572-4626-9f61-72642e6b6963,rev?*
G04 #@! TF.SameCoordinates,Original*
G04 #@! TF.FileFunction,Copper,L2,Bot*
G04 #@! TF.FilePolarity,Positive*
%FSLAX46Y46*%
G04 Gerber Fmt 4.6, Leading zero omitted, Abs format (unit mm)*
G04 Created by KiCad (PCBNEW 5.1.2) date 2019-05-05 18:37:35*
%MOMM*%
%LPD*%
G04 APERTURE LIST*
%ADD10R,1.700000X1.700000*%
%ADD11O,1.700000X1.700000*%
%ADD12C,0.100000*%
%ADD13C,1.150000*%
%ADD14R,1.422400X1.422400*%
%ADD15C,1.422400*%
%ADD16C,0.800000*%
%ADD17C,0.250000*%
G04 APERTURE END LIST*
D10*
X100000000Y-100000000D03*
D11*
X100000000Y-102540000D03*
X102540000Y-100000000D03*
X102540000Y-102540000D03*
X105080000Y-100000000D03*
X105080000Y-102540000D03*
X107620000Y-100000000D03*
X107620000Y-102540000D03*
X110160000Y-100000000D03*
X110160000Y-102540000D03*
X112700000Y-100000000D03*
X112700000Y-102540000D03*
X115240000Y-100000000D03*
X115240000Y-102540000D03*
X117780000Y-100000000D03*
X117780000Y-102540000D03*
X120320000Y-100000000D03*
X120320000Y-102540000D03*
X122860000Y-100000000D03*
X122860000Y-102540000D03*
X125400000Y-100000000D03*
X125400000Y-102540000D03*
D10*
X98750000Y-107000000D03*
D11*
X98750000Y-109540000D03*
X98750000Y-112080000D03*
X98750000Y-114620000D03*
X98750000Y-117160000D03*
X98750000Y-119700000D03*
X98750000Y-122240000D03*
X98750000Y-124780000D03*
X98750000Y-127320000D03*
D10*
X127250000Y-107000000D03*
D11*
X127250000Y-109540000D03*
X127250000Y-112080000D03*
X127250000Y-114620000D03*
X127250000Y-117160000D03*
X127250000Y-119700000D03*
X127250000Y-122240000D03*
X127250000Y-124780000D03*
X127250000Y-127320000D03*
D10*
X100000000Y-132000000D03*
D11*
X102540000Y-132000000D03*
X105080000Y-132000000D03*
X107620000Y-132000000D03*
X110160000Y-132000000D03*
X112700000Y-132000000D03*
X115240000Y-132000000D03*
X117780000Y-132000000D03*
X120320000Y-132000000D03*
X122860000Y-132000000D03*
X125400000Y-132000000D03*
D12*
G36*
X117149505Y-112551204D02*
G01*
X117173773Y-112554804D01*
X117197572Y-112560765D01*
X117220671Y-112569030D01*
X117242850Y-112579520D01*
X117263893Y-112592132D01*
X117283599Y-112606747D01*
X117301777Y-112623223D01*
X117318253Y-112641401D01*
X117332868Y-112661107D01*
X117345480Y-112682150D01*
X117355970Y-112704329D01*
X117364235Y-112727428D01*
X117370196Y-112751227D01*
X117373796Y-112775495D01*
X117375000Y-112799999D01*
X117375000Y-113700001D01*
X117373796Y-113724505D01*
X117370196Y-113748773D01*
X117364235Y-113772572D01*
X117355970Y-113795671D01*
X117345480Y-113817850D01*
X117332868Y-113838893D01*
X117318253Y-113858599D01*
X117301777Y-113876777D01*
X117283599Y-113893253D01*
X117263893Y-113907868D01*
X117242850Y-113920480D01*
X117220671Y-113930970D01*
X117197572Y-113939235D01*
X117173773Y-113945196D01*
X117149505Y-113948796D01*
X117125001Y-113950000D01*
X116474999Y-113950000D01*
X116450495Y-113948796D01*
X116426227Y-113945196D01*
X116402428Y-113939235D01*
X116379329Y-113930970D01*
X116357150Y-113920480D01*
X116336107Y-113907868D01*
X116316401Y-113893253D01*
X116298223Y-113876777D01*
X116281747Y-113858599D01*
X116267132Y-113838893D01*
X116254520Y-113817850D01*
X116244030Y-113795671D01*
X116235765Y-113772572D01*
X116229804Y-113748773D01*
X116226204Y-113724505D01*
X116225000Y-113700001D01*
X116225000Y-112799999D01*
X116226204Y-112775495D01*
X116229804Y-112751227D01*
X116235765Y-112727428D01*
X116244030Y-112704329D01*
X116254520Y-112682150D01*
X116267132Y-112661107D01*
X116281747Y-112641401D01*
X116298223Y-112623223D01*
X116316401Y-112606747D01*
X116336107Y-112592132D01*
X116357150Y-112579520D01*
X116379329Y-112569030D01*
X116402428Y-112560765D01*
X116426227Y-112554804D01*
X116450495Y-112551204D01*
X116474999Y-112550000D01*
X117125001Y-112550000D01*
X117149505Y-112551204D01*
X117149505Y-112551204D01*
G37*
D13*
X116800000Y-113250000D03*
D12*
G36*
X115099505Y-112551204D02*
G01*
X115123773Y-112554804D01*
X115147572Y-112560765D01*
X115170671Y-112569030D01*
X115192850Y-112579520D01*
X115213893Y-112592132D01*
X115233599Y-112606747D01*
X115251777Y-112623223D01*
X115268253Y-112641401D01*
X115282868Y-112661107D01*
X115295480Y-112682150D01*
X115305970Y-112704329D01*
X115314235Y-112727428D01*
X115320196Y-112751227D01*
X115323796Y-112775495D01*
X115325000Y-112799999D01*
X115325000Y-113700001D01*
X115323796Y-113724505D01*
X115320196Y-113748773D01*
X115314235Y-113772572D01*
X115305970Y-113795671D01*
X115295480Y-113817850D01*
X115282868Y-113838893D01*
X115268253Y-113858599D01*
X115251777Y-113876777D01*
X115233599Y-113893253D01*
X115213893Y-113907868D01*
X115192850Y-113920480D01*
X115170671Y-113930970D01*
X115147572Y-113939235D01*
X115123773Y-113945196D01*
X115099505Y-113948796D01*
X115075001Y-113950000D01*
X114424999Y-113950000D01*
X114400495Y-113948796D01*
X114376227Y-113945196D01*
X114352428Y-113939235D01*
X114329329Y-113930970D01*
X114307150Y-113920480D01*
X114286107Y-113907868D01*
X114266401Y-113893253D01*
X114248223Y-113876777D01*
X114231747Y-113858599D01*
X114217132Y-113838893D01*
X114204520Y-113817850D01*
X114194030Y-113795671D01*
X114185765Y-113772572D01*
X114179804Y-113748773D01*
X114176204Y-113724505D01*
X114175000Y-113700001D01*
X114175000Y-112799999D01*
X114176204Y-112775495D01*
X114179804Y-112751227D01*
X114185765Y-112727428D01*
X114194030Y-112704329D01*
X114204520Y-112682150D01*
X114217132Y-112661107D01*
X114231747Y-112641401D01*
X114248223Y-112623223D01*
X114266401Y-112606747D01*
X114286107Y-112592132D01*
X114307150Y-112579520D01*
X114329329Y-112569030D01*
X114352428Y-112560765D01*
X114376227Y-112554804D01*
X114400495Y-112551204D01*
X114424999Y-112550000D01*
X115075001Y-112550000D01*
X115099505Y-112551204D01*
X115099505Y-112551204D01*
G37*
D13*
X114750000Y-113250000D03*
D14*
X114250000Y-111000000D03*
D15*
X111710000Y-111000000D03*
X109170000Y-111000000D03*
X116790000Y-111000000D03*
X119330000Y-111000000D03*
X111710000Y-108460000D03*
X109170000Y-108460000D03*
X106630000Y-108460000D03*
X114250000Y-108460000D03*
X116790000Y-108460000D03*
X106630000Y-111000000D03*
X106630000Y-113540000D03*
X106630000Y-116080000D03*
X106630000Y-118620000D03*
X106630000Y-121160000D03*
X104090000Y-111000000D03*
X104090000Y-113540000D03*
X104090000Y-116080000D03*
X104090000Y-118620000D03*
X104090000Y-121160000D03*
X104090000Y-123700000D03*
X106630000Y-123700000D03*
X109170000Y-123700000D03*
X111710000Y-123700000D03*
X114250000Y-123700000D03*
X116790000Y-123700000D03*
X121870000Y-123700000D03*
X106630000Y-126240000D03*
X109170000Y-126240000D03*
X111710000Y-126240000D03*
X114250000Y-126240000D03*
X116790000Y-126240000D03*
X119330000Y-126240000D03*
X119330000Y-123700000D03*
X119330000Y-121160000D03*
X119330000Y-118620000D03*
X119330000Y-116080000D03*
X119330000Y-113540000D03*
X119330000Y-108460000D03*
X121870000Y-121160000D03*
X121870000Y-118620000D03*
X121870000Y-116080000D03*
X121870000Y-113540000D03*
X121870000Y-111000000D03*
D16*
X125653900Y-103990900D03*
X121250000Y-130500000D03*
X124250000Y-129750000D03*
X101473500Y-118620000D03*
X120250000Y-129250000D03*
D17*
X119330000Y-108460000D02*
X123799100Y-103990900D01*
X123799100Y-103990900D02*
X125653900Y-103990900D01*
X111710000Y-108460000D02*
X110223100Y-109946900D01*
X110223100Y-109946900D02*
X108747200Y-109946900D01*
X108747200Y-109946900D02*
X107666600Y-111027500D01*
X107666600Y-111027500D02*
X107666600Y-111493500D01*
X107666600Y-111493500D02*
X107088500Y-112071600D01*
X107088500Y-112071600D02*
X103674400Y-112071600D01*
X103674400Y-112071600D02*
X102540000Y-110937200D01*
X102540000Y-110937200D02*
X102540000Y-102540000D01*
X107620000Y-100000000D02*
X108795300Y-100000000D01*
X119330000Y-121160000D02*
X120685200Y-119804800D01*
X120685200Y-119804800D02*
X120685200Y-115776400D01*
X120685200Y-115776400D02*
X121651600Y-114810000D01*
X121651600Y-114810000D02*
X122122200Y-114810000D01*
X122122200Y-114810000D02*
X126007700Y-110924500D01*
X126007700Y-110924500D02*
X126007700Y-106051700D01*
X126007700Y-106051700D02*
X127059200Y-105000200D01*
X127059200Y-105000200D02*
X127059200Y-99968500D01*
X127059200Y-99968500D02*
X125915400Y-98824700D01*
X125915400Y-98824700D02*
X109603200Y-98824700D01*
X109603200Y-98824700D02*
X108795300Y-99632600D01*
X108795300Y-99632600D02*
X108795300Y-100000000D01*
X127250000Y-113255300D02*
X126882600Y-113255300D01*
X126882600Y-113255300D02*
X126074700Y-114063200D01*
X126074700Y-114063200D02*
X126074700Y-115882400D01*
X126074700Y-115882400D02*
X122300500Y-119656600D01*
X122300500Y-119656600D02*
X121888200Y-119656600D01*
X121888200Y-119656600D02*
X120366600Y-121178200D01*
X120366600Y-121178200D02*
X120366600Y-121647700D01*
X120366600Y-121647700D02*
X119584300Y-122430000D01*
X119584300Y-122430000D02*
X119100100Y-122430000D01*
X119100100Y-122430000D02*
X117974800Y-123555300D01*
X117974800Y-123555300D02*
X117974800Y-124003700D01*
X117974800Y-124003700D02*
X117241900Y-124736600D01*
X117241900Y-124736600D02*
X112746600Y-124736600D01*
X112746600Y-124736600D02*
X111710000Y-123700000D01*
X127250000Y-112080000D02*
X127250000Y-113255300D01*
X114250000Y-126240000D02*
X115286600Y-125203400D01*
X115286600Y-125203400D02*
X117568800Y-125203400D01*
X117568800Y-125203400D02*
X118027500Y-124744700D01*
X118027500Y-124744700D02*
X119767100Y-124744700D01*
X119767100Y-124744700D02*
X120833400Y-123678400D01*
X120833400Y-123678400D02*
X120833400Y-123210200D01*
X120833400Y-123210200D02*
X121613600Y-122430000D01*
X121613600Y-122430000D02*
X122151000Y-122430000D01*
X122151000Y-122430000D02*
X124221600Y-120359400D01*
X124221600Y-120359400D02*
X124221600Y-118449300D01*
X124221600Y-118449300D02*
X126875600Y-115795300D01*
X126875600Y-115795300D02*
X127250000Y-115795300D01*
X99925300Y-114620000D02*
X102888700Y-117583400D01*
X102888700Y-117583400D02*
X104573900Y-117583400D01*
X104573900Y-117583400D02*
X105593400Y-118602900D01*
X105593400Y-118602900D02*
X105593400Y-119103800D01*
X105593400Y-119103800D02*
X106379600Y-119890000D01*
X106379600Y-119890000D02*
X106881700Y-119890000D01*
X106881700Y-119890000D02*
X110673400Y-123681700D01*
X110673400Y-123681700D02*
X110673400Y-124183800D01*
X110673400Y-124183800D02*
X111459600Y-124970000D01*
X111459600Y-124970000D02*
X112300400Y-124970000D01*
X112300400Y-124970000D02*
X113570400Y-126240000D01*
X113570400Y-126240000D02*
X114250000Y-126240000D01*
X127250000Y-114620000D02*
X127250000Y-115795300D01*
X98750000Y-114620000D02*
X99925300Y-114620000D01*
X119330000Y-126240000D02*
X117391100Y-128178900D01*
X117391100Y-128178900D02*
X107085600Y-128178900D01*
X107085600Y-128178900D02*
X99958100Y-121051400D01*
X99958100Y-121051400D02*
X99958100Y-119202000D01*
X99958100Y-119202000D02*
X99091400Y-118335300D01*
X99091400Y-118335300D02*
X98750000Y-118335300D01*
X98750000Y-117160000D02*
X98750000Y-118335300D01*
X127250000Y-107000000D02*
X127250000Y-105824700D01*
X127250000Y-105824700D02*
X127523600Y-105551100D01*
X127523600Y-105551100D02*
X127523600Y-99720100D01*
X127523600Y-99720100D02*
X126138900Y-98335400D01*
X126138900Y-98335400D02*
X99455400Y-98335400D01*
X99455400Y-98335400D02*
X98750000Y-99040800D01*
X98750000Y-99040800D02*
X98750000Y-107000000D01*
X125400000Y-132000000D02*
X123900000Y-130500000D01*
X123900000Y-130500000D02*
X121815685Y-130500000D01*
X121815685Y-130500000D02*
X121250000Y-130500000D01*
X127250000Y-118335300D02*
X126882600Y-118335300D01*
X126882600Y-118335300D02*
X126074700Y-119143200D01*
X126074700Y-119143200D02*
X126074700Y-120977000D01*
X126074700Y-120977000D02*
X121852300Y-125199400D01*
X121852300Y-125199400D02*
X118826000Y-125199400D01*
X118826000Y-125199400D02*
X118060000Y-125965400D01*
X118060000Y-125965400D02*
X118060000Y-126459500D01*
X118060000Y-126459500D02*
X116790900Y-127728600D01*
X116790900Y-127728600D02*
X108118600Y-127728600D01*
X108118600Y-127728600D02*
X106630000Y-126240000D01*
X127250000Y-117160000D02*
X127250000Y-118335300D01*
X117780000Y-132000000D02*
X118629999Y-131150001D01*
X118629999Y-131150001D02*
X119423001Y-131150001D01*
X123684315Y-129750000D02*
X124250000Y-129750000D01*
X119423001Y-131150001D02*
X120823002Y-129750000D01*
X120823002Y-129750000D02*
X123684315Y-129750000D01*
X97574700Y-115957800D02*
X99212000Y-115957800D01*
X99212000Y-115957800D02*
X100748200Y-117494000D01*
X100748200Y-117494000D02*
X100748200Y-119358400D01*
X100748200Y-119358400D02*
X103979100Y-122589300D01*
X103979100Y-122589300D02*
X104479900Y-122589300D01*
X104479900Y-122589300D02*
X105143000Y-123252400D01*
X105143000Y-123252400D02*
X105143000Y-123753200D01*
X105143000Y-123753200D02*
X106593200Y-125203400D01*
X106593200Y-125203400D02*
X107076700Y-125203400D01*
X107076700Y-125203400D02*
X108133400Y-126260100D01*
X108133400Y-126260100D02*
X108133400Y-126740500D01*
X108133400Y-126740500D02*
X108671200Y-127278300D01*
X108671200Y-127278300D02*
X115751700Y-127278300D01*
X115751700Y-127278300D02*
X116790000Y-126240000D01*
X98750000Y-122240000D02*
X98750000Y-121064700D01*
X97574700Y-115957800D02*
X97574700Y-120256800D01*
X97574700Y-120256800D02*
X98382600Y-121064700D01*
X98382600Y-121064700D02*
X98750000Y-121064700D01*
X114750000Y-113250000D02*
X110881600Y-117118400D01*
X110881600Y-117118400D02*
X106150300Y-117118400D01*
X106150300Y-117118400D02*
X105593400Y-116561500D01*
X105593400Y-116561500D02*
X105593400Y-116061200D01*
X105593400Y-116061200D02*
X104190200Y-114658000D01*
X104190200Y-114658000D02*
X101383700Y-114658000D01*
X101383700Y-114658000D02*
X100132000Y-113406300D01*
X100132000Y-113406300D02*
X98299800Y-113406300D01*
X98299800Y-113406300D02*
X97574700Y-114131400D01*
X97574700Y-114131400D02*
X97574700Y-115957800D01*
X99925300Y-122240000D02*
X98750000Y-122240000D01*
X126074700Y-122240000D02*
X120947200Y-127367500D01*
X120947200Y-127367500D02*
X119384500Y-127367500D01*
X127250000Y-122240000D02*
X126074700Y-122240000D01*
X119384500Y-127367500D02*
X118071500Y-128680500D01*
X106365800Y-128680500D02*
X99925300Y-122240000D01*
X118071500Y-128680500D02*
X106365800Y-128680500D01*
X101342200Y-129130800D02*
X101342200Y-128736900D01*
X101342200Y-128736900D02*
X99925300Y-127320000D01*
X100000000Y-130824700D02*
X101342200Y-129482500D01*
X101342200Y-129482500D02*
X101342200Y-129130800D01*
X100000000Y-132000000D02*
X100000000Y-130824700D01*
X98750000Y-127320000D02*
X99925300Y-127320000D01*
X102211400Y-130000000D02*
X101342200Y-129130800D01*
X117750000Y-130000000D02*
X102211400Y-130000000D01*
X119500000Y-128250000D02*
X117750000Y-130000000D01*
X127250000Y-127320000D02*
X126074700Y-127320000D01*
X125144700Y-128250000D02*
X119500000Y-128250000D01*
X126074700Y-127320000D02*
X125144700Y-128250000D01*
X104090000Y-118620000D02*
X101473500Y-118620000D01*
X116790000Y-123700000D02*
X116800000Y-123690000D01*
X116800000Y-123690000D02*
X116800000Y-113250000D01*
X112700000Y-102540000D02*
X111524700Y-102540000D01*
X106630000Y-108460000D02*
X111524700Y-103565300D01*
X111524700Y-103565300D02*
X111524700Y-102540000D01*
X104090000Y-111000000D02*
X105126600Y-109963400D01*
X105126600Y-109963400D02*
X106691400Y-109963400D01*
X106691400Y-109963400D02*
X107740700Y-108914100D01*
X107740700Y-108914100D02*
X107740700Y-108412400D01*
X107740700Y-108412400D02*
X108955400Y-107197700D01*
X108955400Y-107197700D02*
X109774400Y-107197700D01*
X109774400Y-107197700D02*
X114064700Y-102907400D01*
X114064700Y-102907400D02*
X114064700Y-102540000D01*
X115240000Y-102540000D02*
X114064700Y-102540000D01*
X117780000Y-102540000D02*
X116604700Y-102540000D01*
X106630000Y-111000000D02*
X108133500Y-109496500D01*
X108133500Y-109496500D02*
X109609400Y-109496500D01*
X109609400Y-109496500D02*
X110507800Y-108598100D01*
X110507800Y-108598100D02*
X110507800Y-108157600D01*
X110507800Y-108157600D02*
X114950100Y-103715300D01*
X114950100Y-103715300D02*
X115796800Y-103715300D01*
X115796800Y-103715300D02*
X116604700Y-102907400D01*
X116604700Y-102907400D02*
X116604700Y-102540000D01*
X120320000Y-102540000D02*
X119144700Y-102540000D01*
X104090000Y-113540000D02*
X101364600Y-110814600D01*
X101364600Y-110814600D02*
X101364600Y-102015700D01*
X101364600Y-102015700D02*
X102015600Y-101364700D01*
X102015600Y-101364700D02*
X118336800Y-101364700D01*
X118336800Y-101364700D02*
X119144700Y-102172600D01*
X119144700Y-102172600D02*
X119144700Y-102540000D01*
X122860000Y-100000000D02*
X124035300Y-100000000D01*
X119330000Y-113540000D02*
X120600000Y-112270000D01*
X120600000Y-112270000D02*
X120600000Y-110137700D01*
X120600000Y-110137700D02*
X126608800Y-104128900D01*
X126608800Y-104128900D02*
X126608800Y-102078500D01*
X126608800Y-102078500D02*
X125705600Y-101175300D01*
X125705600Y-101175300D02*
X124843200Y-101175300D01*
X124843200Y-101175300D02*
X124035300Y-100367400D01*
X124035300Y-100367400D02*
X124035300Y-100000000D01*
X122860000Y-102540000D02*
X121684700Y-102540000D01*
X106630000Y-113540000D02*
X108109100Y-113540000D01*
X108109100Y-113540000D02*
X110440000Y-111209100D01*
X110440000Y-111209100D02*
X110440000Y-110788000D01*
X110440000Y-110788000D02*
X111731400Y-109496600D01*
X111731400Y-109496600D02*
X112199700Y-109496600D01*
X112199700Y-109496600D02*
X112980000Y-108716300D01*
X112980000Y-108716300D02*
X112980000Y-108231500D01*
X112980000Y-108231500D02*
X117496200Y-103715300D01*
X117496200Y-103715300D02*
X120876800Y-103715300D01*
X120876800Y-103715300D02*
X121684700Y-102907400D01*
X121684700Y-102907400D02*
X121684700Y-102540000D01*
X125400000Y-102540000D02*
X124224700Y-102540000D01*
X106630000Y-116080000D02*
X110486400Y-112223600D01*
X110486400Y-112223600D02*
X114961300Y-112223600D01*
X114961300Y-112223600D02*
X115594100Y-111590800D01*
X115594100Y-111590800D02*
X115594100Y-110704300D01*
X115594100Y-110704300D02*
X116801800Y-109496600D01*
X116801800Y-109496600D02*
X117273900Y-109496600D01*
X117273900Y-109496600D02*
X118060000Y-108710500D01*
X118060000Y-108710500D02*
X118060000Y-108227700D01*
X118060000Y-108227700D02*
X118864300Y-107423400D01*
X118864300Y-107423400D02*
X119638900Y-107423400D01*
X119638900Y-107423400D02*
X124224700Y-102837600D01*
X124224700Y-102837600D02*
X124224700Y-102540000D01*
X107620000Y-132000000D02*
X108795300Y-130824700D01*
X108795300Y-130824700D02*
X117859609Y-130824700D01*
X117859609Y-130824700D02*
X119434309Y-129250000D01*
X119434309Y-129250000D02*
X119684315Y-129250000D01*
X119684315Y-129250000D02*
X120250000Y-129250000D01*
M02*
