G04 #@! TF.GenerationSoftware,KiCad,Pcbnew,5.1.2*
G04 #@! TF.CreationDate,2019-05-05T18:37:35+02:00*
G04 #@! TF.ProjectId,driverboard,64726976-6572-4626-9f61-72642e6b6963,rev?*
G04 #@! TF.SameCoordinates,Original*
G04 #@! TF.FileFunction,Legend,Bot*
G04 #@! TF.FilePolarity,Positive*
%FSLAX46Y46*%
G04 Gerber Fmt 4.6, Leading zero omitted, Abs format (unit mm)*
G04 Created by KiCad (PCBNEW 5.1.2) date 2019-05-05 18:37:35*
%MOMM*%
%LPD*%
G04 APERTURE LIST*
%ADD10C,0.120000*%
%ADD11C,0.150000*%
G04 APERTURE END LIST*
D10*
X97310000Y-105670000D02*
X97310000Y-128650000D01*
X97310000Y-128650000D02*
X94650000Y-128650000D01*
X94650000Y-128650000D02*
X94650000Y-105670000D01*
X94650000Y-105670000D02*
X97310000Y-105670000D01*
X94650000Y-106620000D02*
X88650000Y-106620000D01*
X88650000Y-106620000D02*
X88650000Y-107380000D01*
X88650000Y-107380000D02*
X94650000Y-107380000D01*
X94650000Y-106680000D02*
X88650000Y-106680000D01*
X94650000Y-106800000D02*
X88650000Y-106800000D01*
X94650000Y-106920000D02*
X88650000Y-106920000D01*
X94650000Y-107040000D02*
X88650000Y-107040000D01*
X94650000Y-107160000D02*
X88650000Y-107160000D01*
X94650000Y-107280000D02*
X88650000Y-107280000D01*
X97640000Y-106620000D02*
X97310000Y-106620000D01*
X97640000Y-107380000D02*
X97310000Y-107380000D01*
X97310000Y-108270000D02*
X94650000Y-108270000D01*
X94650000Y-109160000D02*
X88650000Y-109160000D01*
X88650000Y-109160000D02*
X88650000Y-109920000D01*
X88650000Y-109920000D02*
X94650000Y-109920000D01*
X97707071Y-109160000D02*
X97310000Y-109160000D01*
X97707071Y-109920000D02*
X97310000Y-109920000D01*
X97310000Y-110810000D02*
X94650000Y-110810000D01*
X94650000Y-111700000D02*
X88650000Y-111700000D01*
X88650000Y-111700000D02*
X88650000Y-112460000D01*
X88650000Y-112460000D02*
X94650000Y-112460000D01*
X97707071Y-111700000D02*
X97310000Y-111700000D01*
X97707071Y-112460000D02*
X97310000Y-112460000D01*
X97310000Y-113350000D02*
X94650000Y-113350000D01*
X94650000Y-114240000D02*
X88650000Y-114240000D01*
X88650000Y-114240000D02*
X88650000Y-115000000D01*
X88650000Y-115000000D02*
X94650000Y-115000000D01*
X97707071Y-114240000D02*
X97310000Y-114240000D01*
X97707071Y-115000000D02*
X97310000Y-115000000D01*
X97310000Y-115890000D02*
X94650000Y-115890000D01*
X94650000Y-116780000D02*
X88650000Y-116780000D01*
X88650000Y-116780000D02*
X88650000Y-117540000D01*
X88650000Y-117540000D02*
X94650000Y-117540000D01*
X97707071Y-116780000D02*
X97310000Y-116780000D01*
X97707071Y-117540000D02*
X97310000Y-117540000D01*
X97310000Y-118430000D02*
X94650000Y-118430000D01*
X94650000Y-119320000D02*
X88650000Y-119320000D01*
X88650000Y-119320000D02*
X88650000Y-120080000D01*
X88650000Y-120080000D02*
X94650000Y-120080000D01*
X97707071Y-119320000D02*
X97310000Y-119320000D01*
X97707071Y-120080000D02*
X97310000Y-120080000D01*
X97310000Y-120970000D02*
X94650000Y-120970000D01*
X94650000Y-121860000D02*
X88650000Y-121860000D01*
X88650000Y-121860000D02*
X88650000Y-122620000D01*
X88650000Y-122620000D02*
X94650000Y-122620000D01*
X97707071Y-121860000D02*
X97310000Y-121860000D01*
X97707071Y-122620000D02*
X97310000Y-122620000D01*
X97310000Y-123510000D02*
X94650000Y-123510000D01*
X94650000Y-124400000D02*
X88650000Y-124400000D01*
X88650000Y-124400000D02*
X88650000Y-125160000D01*
X88650000Y-125160000D02*
X94650000Y-125160000D01*
X97707071Y-124400000D02*
X97310000Y-124400000D01*
X97707071Y-125160000D02*
X97310000Y-125160000D01*
X97310000Y-126050000D02*
X94650000Y-126050000D01*
X94650000Y-126940000D02*
X88650000Y-126940000D01*
X88650000Y-126940000D02*
X88650000Y-127700000D01*
X88650000Y-127700000D02*
X94650000Y-127700000D01*
X97707071Y-126940000D02*
X97310000Y-126940000D01*
X97707071Y-127700000D02*
X97310000Y-127700000D01*
X100020000Y-107000000D02*
X100020000Y-105730000D01*
X100020000Y-105730000D02*
X98750000Y-105730000D01*
X137340000Y-105790000D02*
X128710000Y-105790000D01*
X137340000Y-105908095D02*
X128710000Y-105908095D01*
X137340000Y-106026190D02*
X128710000Y-106026190D01*
X137340000Y-106144285D02*
X128710000Y-106144285D01*
X137340000Y-106262380D02*
X128710000Y-106262380D01*
X137340000Y-106380475D02*
X128710000Y-106380475D01*
X137340000Y-106498570D02*
X128710000Y-106498570D01*
X137340000Y-106616665D02*
X128710000Y-106616665D01*
X137340000Y-106734760D02*
X128710000Y-106734760D01*
X137340000Y-106852855D02*
X128710000Y-106852855D01*
X137340000Y-106970950D02*
X128710000Y-106970950D01*
X137340000Y-107089045D02*
X128710000Y-107089045D01*
X137340000Y-107207140D02*
X128710000Y-107207140D01*
X137340000Y-107325235D02*
X128710000Y-107325235D01*
X137340000Y-107443330D02*
X128710000Y-107443330D01*
X137340000Y-107561425D02*
X128710000Y-107561425D01*
X137340000Y-107679520D02*
X128710000Y-107679520D01*
X137340000Y-107797615D02*
X128710000Y-107797615D01*
X137340000Y-107915710D02*
X128710000Y-107915710D01*
X137340000Y-108033805D02*
X128710000Y-108033805D01*
X137340000Y-108151900D02*
X128710000Y-108151900D01*
X128710000Y-106640000D02*
X128360000Y-106640000D01*
X128710000Y-107360000D02*
X128360000Y-107360000D01*
X128710000Y-109180000D02*
X128300000Y-109180000D01*
X128710000Y-109900000D02*
X128300000Y-109900000D01*
X128710000Y-111720000D02*
X128300000Y-111720000D01*
X128710000Y-112440000D02*
X128300000Y-112440000D01*
X128710000Y-114260000D02*
X128300000Y-114260000D01*
X128710000Y-114980000D02*
X128300000Y-114980000D01*
X128710000Y-116800000D02*
X128300000Y-116800000D01*
X128710000Y-117520000D02*
X128300000Y-117520000D01*
X128710000Y-119340000D02*
X128300000Y-119340000D01*
X128710000Y-120060000D02*
X128300000Y-120060000D01*
X128710000Y-121880000D02*
X128300000Y-121880000D01*
X128710000Y-122600000D02*
X128300000Y-122600000D01*
X128710000Y-124420000D02*
X128300000Y-124420000D01*
X128710000Y-125140000D02*
X128300000Y-125140000D01*
X128710000Y-126960000D02*
X128300000Y-126960000D01*
X128710000Y-127680000D02*
X128300000Y-127680000D01*
X137340000Y-108270000D02*
X128710000Y-108270000D01*
X137340000Y-110810000D02*
X128710000Y-110810000D01*
X137340000Y-113350000D02*
X128710000Y-113350000D01*
X137340000Y-115890000D02*
X128710000Y-115890000D01*
X137340000Y-118430000D02*
X128710000Y-118430000D01*
X137340000Y-120970000D02*
X128710000Y-120970000D01*
X137340000Y-123510000D02*
X128710000Y-123510000D01*
X137340000Y-126050000D02*
X128710000Y-126050000D01*
X137340000Y-105670000D02*
X128710000Y-105670000D01*
X128710000Y-105670000D02*
X128710000Y-128650000D01*
X137340000Y-128650000D02*
X128710000Y-128650000D01*
X137340000Y-105670000D02*
X137340000Y-128650000D01*
X126140000Y-105670000D02*
X126140000Y-107000000D01*
X127250000Y-105670000D02*
X126140000Y-105670000D01*
X116036252Y-112540000D02*
X115513748Y-112540000D01*
X116036252Y-113960000D02*
X115513748Y-113960000D01*
D11*
X94698333Y-104182380D02*
X94698333Y-104896666D01*
X94745952Y-105039523D01*
X94841190Y-105134761D01*
X94984047Y-105182380D01*
X95079285Y-105182380D01*
X94269761Y-104277619D02*
X94222142Y-104230000D01*
X94126904Y-104182380D01*
X93888809Y-104182380D01*
X93793571Y-104230000D01*
X93745952Y-104277619D01*
X93698333Y-104372857D01*
X93698333Y-104468095D01*
X93745952Y-104610952D01*
X94317380Y-105182380D01*
X93698333Y-105182380D01*
X131963333Y-103682380D02*
X131963333Y-104396666D01*
X132010952Y-104539523D01*
X132106190Y-104634761D01*
X132249047Y-104682380D01*
X132344285Y-104682380D01*
X131582380Y-103682380D02*
X130963333Y-103682380D01*
X131296666Y-104063333D01*
X131153809Y-104063333D01*
X131058571Y-104110952D01*
X131010952Y-104158571D01*
X130963333Y-104253809D01*
X130963333Y-104491904D01*
X131010952Y-104587142D01*
X131058571Y-104634761D01*
X131153809Y-104682380D01*
X131439523Y-104682380D01*
X131534761Y-104634761D01*
X131582380Y-104587142D01*
X115941666Y-112052380D02*
X116275000Y-111576190D01*
X116513095Y-112052380D02*
X116513095Y-111052380D01*
X116132142Y-111052380D01*
X116036904Y-111100000D01*
X115989285Y-111147619D01*
X115941666Y-111242857D01*
X115941666Y-111385714D01*
X115989285Y-111480952D01*
X116036904Y-111528571D01*
X116132142Y-111576190D01*
X116513095Y-111576190D01*
X114989285Y-112052380D02*
X115560714Y-112052380D01*
X115275000Y-112052380D02*
X115275000Y-111052380D01*
X115370238Y-111195238D01*
X115465476Y-111290476D01*
X115560714Y-111338095D01*
M02*
