G04 #@! TF.GenerationSoftware,KiCad,Pcbnew,5.1.2*
G04 #@! TF.CreationDate,2019-05-05T18:37:35+02:00*
G04 #@! TF.ProjectId,driverboard,64726976-6572-4626-9f61-72642e6b6963,rev?*
G04 #@! TF.SameCoordinates,Original*
G04 #@! TF.FileFunction,Copper,L1,Top*
G04 #@! TF.FilePolarity,Positive*
%FSLAX46Y46*%
G04 Gerber Fmt 4.6, Leading zero omitted, Abs format (unit mm)*
G04 Created by KiCad (PCBNEW 5.1.2) date 2019-05-05 18:37:35*
%MOMM*%
%LPD*%
G04 APERTURE LIST*
%ADD10R,1.700000X1.700000*%
%ADD11O,1.700000X1.700000*%
%ADD12R,1.422400X1.422400*%
%ADD13C,1.422400*%
%ADD14C,0.800000*%
%ADD15C,0.250000*%
G04 APERTURE END LIST*
D10*
X100000000Y-100000000D03*
D11*
X100000000Y-102540000D03*
X102540000Y-100000000D03*
X102540000Y-102540000D03*
X105080000Y-100000000D03*
X105080000Y-102540000D03*
X107620000Y-100000000D03*
X107620000Y-102540000D03*
X110160000Y-100000000D03*
X110160000Y-102540000D03*
X112700000Y-100000000D03*
X112700000Y-102540000D03*
X115240000Y-100000000D03*
X115240000Y-102540000D03*
X117780000Y-100000000D03*
X117780000Y-102540000D03*
X120320000Y-100000000D03*
X120320000Y-102540000D03*
X122860000Y-100000000D03*
X122860000Y-102540000D03*
X125400000Y-100000000D03*
X125400000Y-102540000D03*
D10*
X98750000Y-107000000D03*
D11*
X98750000Y-109540000D03*
X98750000Y-112080000D03*
X98750000Y-114620000D03*
X98750000Y-117160000D03*
X98750000Y-119700000D03*
X98750000Y-122240000D03*
X98750000Y-124780000D03*
X98750000Y-127320000D03*
D10*
X127250000Y-107000000D03*
D11*
X127250000Y-109540000D03*
X127250000Y-112080000D03*
X127250000Y-114620000D03*
X127250000Y-117160000D03*
X127250000Y-119700000D03*
X127250000Y-122240000D03*
X127250000Y-124780000D03*
X127250000Y-127320000D03*
D10*
X100000000Y-132000000D03*
D11*
X102540000Y-132000000D03*
X105080000Y-132000000D03*
X107620000Y-132000000D03*
X110160000Y-132000000D03*
X112700000Y-132000000D03*
X115240000Y-132000000D03*
X117780000Y-132000000D03*
X120320000Y-132000000D03*
X122860000Y-132000000D03*
X125400000Y-132000000D03*
D12*
X114250000Y-111000000D03*
D13*
X111710000Y-111000000D03*
X109170000Y-111000000D03*
X116790000Y-111000000D03*
X119330000Y-111000000D03*
X111710000Y-108460000D03*
X109170000Y-108460000D03*
X106630000Y-108460000D03*
X114250000Y-108460000D03*
X116790000Y-108460000D03*
X106630000Y-111000000D03*
X106630000Y-113540000D03*
X106630000Y-116080000D03*
X106630000Y-118620000D03*
X106630000Y-121160000D03*
X104090000Y-111000000D03*
X104090000Y-113540000D03*
X104090000Y-116080000D03*
X104090000Y-118620000D03*
X104090000Y-121160000D03*
X104090000Y-123700000D03*
X106630000Y-123700000D03*
X109170000Y-123700000D03*
X111710000Y-123700000D03*
X114250000Y-123700000D03*
X116790000Y-123700000D03*
X121870000Y-123700000D03*
X106630000Y-126240000D03*
X109170000Y-126240000D03*
X111710000Y-126240000D03*
X114250000Y-126240000D03*
X116790000Y-126240000D03*
X119330000Y-126240000D03*
X119330000Y-123700000D03*
X119330000Y-121160000D03*
X119330000Y-118620000D03*
X119330000Y-116080000D03*
X119330000Y-113540000D03*
X119330000Y-108460000D03*
X121870000Y-121160000D03*
X121870000Y-118620000D03*
X121870000Y-116080000D03*
X121870000Y-113540000D03*
X121870000Y-111000000D03*
D14*
X125653900Y-103990900D03*
X121250000Y-130500000D03*
X124250000Y-129750000D03*
X101473500Y-118620000D03*
X120250000Y-129250000D03*
D15*
X125653900Y-103990900D02*
X126597500Y-103047300D01*
X126597500Y-103047300D02*
X126597500Y-99443900D01*
X126597500Y-99443900D02*
X125978300Y-98824700D01*
X125978300Y-98824700D02*
X101983200Y-98824700D01*
X101983200Y-98824700D02*
X101175300Y-99632600D01*
X101175300Y-99632600D02*
X101175300Y-100000000D01*
X100000000Y-100000000D02*
X101175300Y-100000000D01*
X100000000Y-102540000D02*
X100000000Y-103715300D01*
X104090000Y-116080000D02*
X100487000Y-112477000D01*
X100487000Y-112477000D02*
X100487000Y-104202300D01*
X100487000Y-104202300D02*
X100000000Y-103715300D01*
X102540000Y-100000000D02*
X102540000Y-101175300D01*
X119330000Y-123700000D02*
X118875200Y-123700000D01*
X118875200Y-123700000D02*
X107678600Y-112503400D01*
X107678600Y-112503400D02*
X104110300Y-112503400D01*
X104110300Y-112503400D02*
X101364700Y-109757800D01*
X101364700Y-109757800D02*
X101364700Y-101983200D01*
X101364700Y-101983200D02*
X102172600Y-101175300D01*
X102172600Y-101175300D02*
X102540000Y-101175300D01*
X105080000Y-100000000D02*
X105080000Y-101175300D01*
X121870000Y-121160000D02*
X120833400Y-120123400D01*
X120833400Y-120123400D02*
X116104100Y-120123400D01*
X116104100Y-120123400D02*
X108033700Y-112053000D01*
X108033700Y-112053000D02*
X106197400Y-112053000D01*
X106197400Y-112053000D02*
X105360000Y-111215600D01*
X105360000Y-111215600D02*
X105360000Y-110693800D01*
X105360000Y-110693800D02*
X103904700Y-109238500D01*
X103904700Y-109238500D02*
X103904700Y-101983200D01*
X103904700Y-101983200D02*
X104712600Y-101175300D01*
X104712600Y-101175300D02*
X105080000Y-101175300D01*
X111710000Y-111000000D02*
X110636200Y-112073800D01*
X110636200Y-112073800D02*
X108691400Y-112073800D01*
X108691400Y-112073800D02*
X107944400Y-111326800D01*
X107944400Y-111326800D02*
X107944400Y-110842100D01*
X107944400Y-110842100D02*
X106864700Y-109762400D01*
X106864700Y-109762400D02*
X106394400Y-109762400D01*
X106394400Y-109762400D02*
X105080000Y-108448000D01*
X105080000Y-108448000D02*
X105080000Y-102540000D01*
X107620000Y-103715300D02*
X107620000Y-106910000D01*
X107620000Y-106910000D02*
X109170000Y-108460000D01*
X107620000Y-102540000D02*
X107620000Y-103715300D01*
X98750000Y-109540000D02*
X98750000Y-110715300D01*
X120320000Y-132000000D02*
X120320000Y-130824700D01*
X120320000Y-130824700D02*
X119873400Y-130824700D01*
X119873400Y-130824700D02*
X115294400Y-126245700D01*
X115294400Y-126245700D02*
X115294400Y-125808500D01*
X115294400Y-125808500D02*
X114222500Y-124736600D01*
X114222500Y-124736600D02*
X113756500Y-124736600D01*
X113756500Y-124736600D02*
X112980000Y-123960100D01*
X112980000Y-123960100D02*
X112980000Y-123448700D01*
X112980000Y-123448700D02*
X106679200Y-117147900D01*
X106679200Y-117147900D02*
X103664300Y-117147900D01*
X103664300Y-117147900D02*
X99925300Y-113408900D01*
X99925300Y-113408900D02*
X99925300Y-111523200D01*
X99925300Y-111523200D02*
X99117400Y-110715300D01*
X99117400Y-110715300D02*
X98750000Y-110715300D01*
X111710000Y-123700000D02*
X107900000Y-119890000D01*
X107900000Y-119890000D02*
X103872000Y-119890000D01*
X103872000Y-119890000D02*
X102198800Y-118216800D01*
X102198800Y-118216800D02*
X102198800Y-116404900D01*
X102198800Y-116404900D02*
X99049200Y-113255300D01*
X99049200Y-113255300D02*
X98750000Y-113255300D01*
X98750000Y-112080000D02*
X98750000Y-113255300D01*
X121289500Y-128254500D02*
X121289500Y-127717900D01*
X121289500Y-127717900D02*
X123521200Y-125486200D01*
X123521200Y-125486200D02*
X123521200Y-111536800D01*
X123521200Y-111536800D02*
X126882700Y-108175300D01*
X126882700Y-108175300D02*
X127250000Y-108175300D01*
X127250000Y-107000000D02*
X127250000Y-108175300D01*
X118254800Y-128327804D02*
X119901998Y-129975002D01*
X120848002Y-129975002D02*
X121289500Y-129533504D01*
X114250000Y-123700000D02*
X115753400Y-125203400D01*
X118254800Y-126184300D02*
X118254800Y-128327804D01*
X117273900Y-125203400D02*
X118254800Y-126184300D01*
X115753400Y-125203400D02*
X117273900Y-125203400D01*
X121289500Y-129533504D02*
X121289500Y-128254500D01*
X119901998Y-129975002D02*
X120848002Y-129975002D01*
X120848002Y-130098002D02*
X120848002Y-129975002D01*
X121250000Y-130500000D02*
X120848002Y-130098002D01*
X124602700Y-125041600D02*
X124602700Y-112187300D01*
X126400001Y-110389999D02*
X127250000Y-109540000D01*
X122860000Y-132000000D02*
X122860000Y-126784300D01*
X124602700Y-112187300D02*
X126400001Y-110389999D01*
X122860000Y-126784300D02*
X124602700Y-125041600D01*
X98750000Y-119700000D02*
X98750000Y-120875300D01*
X117780000Y-132000000D02*
X116604700Y-132000000D01*
X116604700Y-132000000D02*
X116604700Y-131632600D01*
X116604700Y-131632600D02*
X115796800Y-130824700D01*
X115796800Y-130824700D02*
X109736000Y-130824700D01*
X109736000Y-130824700D02*
X99786600Y-120875300D01*
X99786600Y-120875300D02*
X98750000Y-120875300D01*
X124649999Y-129350001D02*
X124250000Y-129750000D01*
X125250000Y-128750000D02*
X124649999Y-129350001D01*
X127250000Y-119700000D02*
X125250000Y-121700000D01*
X125250000Y-121700000D02*
X125250000Y-128750000D01*
X108984700Y-132000000D02*
X108984700Y-131632700D01*
X108984700Y-131632700D02*
X100862000Y-123510000D01*
X100862000Y-123510000D02*
X98348800Y-123510000D01*
X98348800Y-123510000D02*
X97541700Y-122702900D01*
X97541700Y-122702900D02*
X97541700Y-119212200D01*
X97541700Y-119212200D02*
X98323900Y-118430000D01*
X98323900Y-118430000D02*
X101283500Y-118430000D01*
X101283500Y-118430000D02*
X101473500Y-118620000D01*
X110160000Y-132000000D02*
X108984700Y-132000000D01*
X110160000Y-100000000D02*
X110160000Y-101175300D01*
X121870000Y-118620000D02*
X120832200Y-119657800D01*
X120832200Y-119657800D02*
X118889300Y-119657800D01*
X118889300Y-119657800D02*
X113164700Y-113933200D01*
X113164700Y-113933200D02*
X113164700Y-106241900D01*
X113164700Y-106241900D02*
X111335300Y-104412500D01*
X111335300Y-104412500D02*
X111335300Y-101983200D01*
X111335300Y-101983200D02*
X110527400Y-101175300D01*
X110527400Y-101175300D02*
X110160000Y-101175300D01*
X110160000Y-102540000D02*
X110160000Y-103715300D01*
X109170000Y-111000000D02*
X110230000Y-109940000D01*
X110230000Y-109940000D02*
X110230000Y-103785300D01*
X110230000Y-103785300D02*
X110160000Y-103715300D01*
X112700000Y-100000000D02*
X112700000Y-101175300D01*
X119330000Y-118620000D02*
X115520000Y-114810000D01*
X115520000Y-114810000D02*
X115520000Y-106035800D01*
X115520000Y-106035800D02*
X113875300Y-104391100D01*
X113875300Y-104391100D02*
X113875300Y-101983200D01*
X113875300Y-101983200D02*
X113067400Y-101175300D01*
X113067400Y-101175300D02*
X112700000Y-101175300D01*
X115240000Y-100000000D02*
X115240000Y-101175300D01*
X115240000Y-101175300D02*
X115607400Y-101175300D01*
X115607400Y-101175300D02*
X116415300Y-101983200D01*
X116415300Y-101983200D02*
X116415300Y-106462700D01*
X116415300Y-106462700D02*
X117834700Y-107882100D01*
X117834700Y-107882100D02*
X117834700Y-116071800D01*
X117834700Y-116071800D02*
X118893400Y-117130500D01*
X118893400Y-117130500D02*
X120819500Y-117130500D01*
X120819500Y-117130500D02*
X121870000Y-116080000D01*
X117780000Y-100000000D02*
X117780000Y-101175300D01*
X119330000Y-116080000D02*
X118289300Y-115039300D01*
X118289300Y-115039300D02*
X118289300Y-104935900D01*
X118289300Y-104935900D02*
X118955300Y-104269900D01*
X118955300Y-104269900D02*
X118955300Y-101983200D01*
X118955300Y-101983200D02*
X118147400Y-101175300D01*
X118147400Y-101175300D02*
X117780000Y-101175300D01*
X120320000Y-100000000D02*
X120320000Y-101175300D01*
X121870000Y-113540000D02*
X120788800Y-112458800D01*
X120788800Y-112458800D02*
X120788800Y-107300800D01*
X120788800Y-107300800D02*
X121495300Y-106594300D01*
X121495300Y-106594300D02*
X121495300Y-101983200D01*
X121495300Y-101983200D02*
X120687400Y-101175300D01*
X120687400Y-101175300D02*
X120320000Y-101175300D01*
X125400000Y-101175300D02*
X125032600Y-101175300D01*
X125032600Y-101175300D02*
X124224700Y-101983200D01*
X124224700Y-101983200D02*
X124224700Y-108645300D01*
X124224700Y-108645300D02*
X121870000Y-111000000D01*
X125400000Y-100000000D02*
X125400000Y-101175300D01*
X119330000Y-112005788D02*
X120833400Y-113509188D01*
X120833400Y-113509188D02*
X120833400Y-114023800D01*
X120250000Y-126786000D02*
X120250000Y-128684315D01*
X122944800Y-124091200D02*
X120250000Y-126786000D01*
X122102300Y-114810000D02*
X122944800Y-115652500D01*
X119330000Y-111000000D02*
X119330000Y-112005788D01*
X120833400Y-114023800D02*
X121619600Y-114810000D01*
X121619600Y-114810000D02*
X122102300Y-114810000D01*
X120250000Y-128684315D02*
X120250000Y-129250000D01*
X122944800Y-115652500D02*
X122944800Y-124091200D01*
M02*
